<svg width="1440" height="1024" viewBox="0 0 1440 1024" fill="none" xmlns="http://www.w3.org/2000/svg">
<g clip-path="url(#clip0_222_1172)">
<rect width="1440" height="1024" rx="20" fill="#F4F2EE"/>
<g filter="url(#filter0_f_222_1172)">
<mask id="path-2-inside-1_222_1172" fill="white">
<path fill-rule="evenodd" clip-rule="evenodd" d="M335.161 171.894C335.161 171.922 335.182 171.944 335.209 171.946C357.423 173.534 374.979 193.18 374.979 217.184C374.979 242.225 355.872 262.525 332.302 262.525C315.349 262.525 300.705 252.023 293.819 236.807C291.81 232.369 287.676 228.996 282.804 228.996L223.345 228.996C217.466 228.996 212.701 233.761 212.701 239.64V331.33C212.701 339.059 220.944 344.36 228.672 344.227C228.906 344.223 229.141 344.221 229.376 344.221C252.946 344.221 272.053 364.521 272.053 389.562C272.053 414.603 252.946 434.903 229.376 434.903C205.806 434.903 186.699 414.603 186.699 389.562C186.699 387.115 186.882 384.714 187.233 382.372C188.474 374.096 182.965 364.441 174.596 364.441L-85.0293 364.441C-109.803 364.441 -129.887 344.357 -129.887 319.584V310.885C-129.887 305.007 -134.652 300.241 -140.531 300.241H-185.356C-191.234 300.241 -196 295.476 -196 289.597V182.487C-196 176.608 -191.234 171.843 -185.356 171.843H-129.887H127.884L199.177 171.843H212.701H335.109C335.137 171.843 335.161 171.866 335.161 171.894Z"/>
</mask>
<path d="M-140.531 300.241V304.803V300.241ZM-185.356 300.241V295.68V300.241ZM293.819 236.807L289.663 238.688L293.819 236.807ZM187.233 382.372L191.744 383.049L187.233 382.372ZM335.209 171.946L334.884 176.496L335.209 171.946ZM335.534 167.396C360.349 169.169 379.541 191.007 379.541 217.184H370.417C370.417 195.354 354.497 177.898 334.884 176.496L335.534 167.396ZM379.541 217.184C379.541 244.48 358.648 267.087 332.302 267.087V257.963C353.096 257.963 370.417 239.97 370.417 217.184H379.541ZM332.302 267.087C313.377 267.087 297.21 255.364 289.663 238.688L297.975 234.926C304.199 248.681 317.321 257.963 332.302 257.963V267.087ZM223.345 224.434L282.804 224.434V233.557L223.345 233.557V224.434ZM208.139 331.33V239.64H217.263V331.33H208.139ZM229.376 348.783C229.167 348.783 228.959 348.785 228.751 348.788L228.594 339.666C228.854 339.661 229.115 339.659 229.376 339.659V348.783ZM267.491 389.562C267.491 366.776 250.17 348.783 229.376 348.783V339.659C255.721 339.659 276.614 362.266 276.614 389.562H267.491ZM229.376 430.342C250.17 430.342 267.491 412.348 267.491 389.562H276.614C276.614 416.859 255.721 439.465 229.376 439.465V430.342ZM191.261 389.562C191.261 412.348 208.582 430.342 229.376 430.342V439.465C203.03 439.465 182.137 416.859 182.137 389.562H191.261ZM191.744 383.049C191.426 385.167 191.261 387.342 191.261 389.562H182.137C182.137 386.888 182.337 384.261 182.721 381.696L191.744 383.049ZM-85.0293 359.879L174.596 359.879V369.002L-85.0293 369.002V359.879ZM-125.325 319.584C-125.325 341.838 -107.284 359.879 -85.0293 359.879V369.002C-112.323 369.002 -134.448 346.877 -134.448 319.584H-125.325ZM-125.325 310.885V319.584H-134.448V310.885H-125.325ZM-185.356 295.68H-140.531V304.803H-185.356V295.68ZM-191.438 182.487V289.597H-200.562V182.487H-191.438ZM-129.887 176.404H-185.356V167.281H-129.887V176.404ZM127.884 176.404H-129.887V167.281H127.884V176.404ZM199.177 176.404L127.884 176.404V167.281L199.177 167.281V176.404ZM212.701 176.404H199.177V167.281H212.701V176.404ZM335.109 176.404H212.701V167.281H335.109V176.404ZM335.109 167.281C337.657 167.281 339.722 169.346 339.722 171.894H330.599C330.599 174.385 332.618 176.404 335.109 176.404V167.281ZM-134.448 310.885C-134.448 307.526 -137.171 304.803 -140.531 304.803V295.68C-132.133 295.68 -125.325 302.487 -125.325 310.885H-134.448ZM-200.562 182.487C-200.562 174.089 -193.754 167.281 -185.356 167.281V176.404C-188.715 176.404 -191.438 179.127 -191.438 182.487H-200.562ZM223.345 233.557C219.986 233.557 217.263 236.281 217.263 239.64H208.139C208.139 231.242 214.947 224.434 223.345 224.434V233.557ZM-185.356 304.803C-193.754 304.803 -200.562 297.995 -200.562 289.597H-191.438C-191.438 292.956 -188.715 295.68 -185.356 295.68V304.803ZM289.663 238.688C288.195 235.446 285.45 233.557 282.804 233.557V224.434C289.901 224.434 295.424 229.292 297.975 234.926L289.663 238.688ZM182.721 381.696C183.168 378.72 182.387 375.364 180.707 372.81C179.046 370.285 176.86 369.002 174.596 369.002V359.879C180.701 359.879 185.454 363.424 188.329 367.796C191.186 372.138 192.539 377.748 191.744 383.049L182.721 381.696ZM217.263 331.33C217.263 333.431 218.357 335.448 220.529 337.08C222.734 338.737 225.732 339.715 228.594 339.666L228.751 348.788C223.884 348.872 218.897 347.266 215.048 344.373C211.166 341.456 208.139 336.958 208.139 331.33H217.263ZM334.884 176.496C332.497 176.326 330.599 174.342 330.599 171.894H339.722C339.722 169.501 337.866 167.563 335.534 167.396L334.884 176.496Z" fill="#F22828" mask="url(#path-2-inside-1_222_1172)"/>
</g>
<g filter="url(#filter1_f_222_1172)">
<mask id="path-4-inside-2_222_1172" fill="white">
<path fill-rule="evenodd" clip-rule="evenodd" d="M335.192 165.052C335.192 165.079 335.213 165.102 335.24 165.104C357.454 166.691 375.01 186.338 375.01 210.341C375.01 235.383 355.903 255.683 332.334 255.683C315.38 255.683 300.736 245.18 293.85 229.965C291.841 225.526 287.707 222.153 282.835 222.153L223.376 222.153C217.498 222.153 212.732 226.919 212.732 232.797V324.487C212.732 332.216 220.975 337.517 228.704 337.384C228.938 337.38 229.172 337.378 229.407 337.378C252.977 337.378 272.084 357.678 272.084 382.72C272.084 407.761 252.977 428.061 229.407 428.061C205.837 428.061 186.73 407.761 186.73 382.72C186.73 380.273 186.913 377.871 187.264 375.53C188.505 367.253 182.997 357.598 174.627 357.598L-84.9981 357.598C-109.772 357.598 -129.855 337.515 -129.855 312.741V304.043C-129.855 298.164 -134.621 293.399 -140.499 293.399H-185.325C-191.203 293.399 -195.969 288.633 -195.969 282.755V175.644C-195.969 169.766 -191.203 165 -185.325 165H-129.855H127.915L199.209 165H212.732L332.334 165L335.14 165C335.169 165 335.192 165.023 335.192 165.052Z"/>
</mask>
<path d="M212.732 165V160.438V165ZM332.334 165L332.334 169.562H332.334V165ZM-140.499 293.399V297.961V293.399ZM-185.325 293.399V288.837V293.399ZM335.14 165L335.14 160.438L335.14 165ZM187.264 375.53L182.753 374.853L187.264 375.53ZM335.24 165.104L335.565 160.553L335.24 165.104ZM335.565 160.553C360.38 162.327 379.572 184.165 379.572 210.341H370.449C370.449 188.511 354.529 171.055 334.915 169.654L335.565 160.553ZM379.572 210.341C379.572 237.638 358.679 260.244 332.334 260.244V251.121C353.128 251.121 370.449 233.127 370.449 210.341H379.572ZM332.334 260.244C313.408 260.244 297.241 248.522 289.694 231.846L298.006 228.084C304.231 241.838 317.353 251.121 332.334 251.121V260.244ZM223.376 217.591L282.835 217.591V226.715L223.376 226.715V217.591ZM208.17 324.487V232.797H217.294V324.487H208.17ZM229.407 341.94C229.198 341.94 228.99 341.942 228.782 341.946L228.625 332.823C228.885 332.819 229.146 332.817 229.407 332.817V341.94ZM267.522 382.72C267.522 359.934 250.201 341.94 229.407 341.94V332.817C255.752 332.817 276.646 355.423 276.646 382.72H267.522ZM229.407 423.499C250.201 423.499 267.522 405.506 267.522 382.72H276.646C276.646 410.016 255.752 432.623 229.407 432.623V423.499ZM191.292 382.72C191.292 405.506 208.613 423.499 229.407 423.499V432.623C203.062 432.623 182.169 410.016 182.169 382.72H191.292ZM191.775 376.206C191.458 378.324 191.292 380.5 191.292 382.72H182.169C182.169 380.046 182.368 377.418 182.753 374.853L191.775 376.206ZM-84.9981 353.036L174.627 353.036V362.16L-84.9981 362.16V353.036ZM-125.294 312.741C-125.294 334.996 -107.253 353.036 -84.9981 353.036V362.16C-112.291 362.16 -134.417 340.034 -134.417 312.741H-125.294ZM-125.294 304.043V312.741H-134.417V304.043H-125.294ZM-185.325 288.837H-140.499V297.961H-185.325V288.837ZM-191.407 175.644V282.755H-200.531V175.644H-191.407ZM-129.855 169.562H-185.325V160.438H-129.855V169.562ZM127.915 169.562H-129.855V160.438H127.915V169.562ZM199.209 169.562L127.915 169.562V160.438L199.209 160.438V169.562ZM212.732 169.562H199.209V160.438H212.732V169.562ZM332.334 169.562L212.732 169.562V160.438L332.334 160.438V169.562ZM335.14 169.562L332.334 169.562L332.334 160.438L335.14 160.438L335.14 169.562ZM-134.417 304.043C-134.417 300.684 -137.14 297.961 -140.499 297.961V288.837C-132.101 288.837 -125.294 295.645 -125.294 304.043H-134.417ZM-200.531 175.644C-200.531 167.246 -193.723 160.438 -185.325 160.438V169.562C-188.684 169.562 -191.407 172.285 -191.407 175.644H-200.531ZM223.376 226.715C220.017 226.715 217.294 229.438 217.294 232.797H208.17C208.17 224.399 214.978 217.591 223.376 217.591V226.715ZM-185.325 297.961C-193.723 297.961 -200.531 291.153 -200.531 282.755H-191.407C-191.407 286.114 -188.684 288.837 -185.325 288.837V297.961ZM289.694 231.846C288.227 228.603 285.482 226.715 282.835 226.715V217.591C289.933 217.591 295.456 222.449 298.006 228.084L289.694 231.846ZM335.14 160.438C337.688 160.438 339.754 162.504 339.754 165.052H330.63C330.63 167.543 332.649 169.562 335.14 169.562L335.14 160.438ZM182.753 374.853C183.199 371.878 182.418 368.521 180.738 365.967C179.078 363.442 176.891 362.16 174.627 362.16V353.036C180.733 353.036 185.485 356.582 188.361 360.953C191.217 365.296 192.57 370.905 191.775 376.206L182.753 374.853ZM217.294 324.487C217.294 326.588 218.389 328.605 220.56 330.237C222.765 331.894 225.764 332.873 228.625 332.823L228.782 341.946C223.916 342.029 218.928 340.423 215.079 337.531C211.197 334.613 208.17 330.115 208.17 324.487H217.294ZM334.915 169.654C332.529 169.483 330.63 167.5 330.63 165.052H339.754C339.754 162.658 337.898 160.72 335.565 160.553L334.915 169.654Z" fill="#F22828" mask="url(#path-4-inside-2_222_1172)"/>
</g>
<g filter="url(#filter2_f_222_1172)">
<mask id="path-6-inside-3_222_1172" fill="white">
<path fill-rule="evenodd" clip-rule="evenodd" d="M335.182 167.333C335.182 167.36 335.203 167.382 335.23 167.384C357.444 168.972 375 188.619 375 212.622C375 237.663 355.893 257.963 332.323 257.963C315.37 257.963 300.726 247.461 293.84 232.246C291.831 227.807 287.697 224.434 282.825 224.434L223.366 224.434C217.487 224.434 212.722 229.199 212.722 235.078V326.768C212.722 334.497 220.965 339.798 228.693 339.665C228.927 339.661 229.162 339.659 229.397 339.659C252.967 339.659 272.074 359.959 272.074 385C272.074 410.042 252.967 430.342 229.397 430.342C205.827 430.342 186.72 410.042 186.72 385C186.72 382.554 186.903 380.152 187.254 377.81C188.495 369.534 182.986 359.879 174.617 359.879L-85.0083 359.879C-109.782 359.879 -129.866 339.796 -129.866 315.022V306.324C-129.866 300.445 -134.631 295.68 -140.51 295.68H-185.335C-191.214 295.68 -195.979 290.914 -195.979 285.035V177.925C-195.979 172.046 -191.214 167.281 -185.335 167.281L-129.866 167.281L127.905 167.281L199.198 167.281H212.722H335.13C335.158 167.281 335.182 167.304 335.182 167.333Z"/>
</mask>
<path d="M-129.866 167.281V163.479V167.281ZM127.905 167.281V171.082H127.905L127.905 167.281ZM199.198 167.281L199.198 163.479H199.198V167.281ZM-140.51 295.68V299.481V295.68ZM-185.335 167.281V171.082V167.281ZM-185.335 295.68V291.878V295.68ZM187.254 377.81L183.494 377.247L187.254 377.81ZM228.693 339.665L228.759 343.466L228.693 339.665ZM335.23 167.384L334.959 171.176L335.23 167.384ZM335.501 163.593C359.882 165.335 378.801 186.808 378.801 212.622H371.199C371.199 190.43 355.006 172.609 334.959 171.176L335.501 163.593ZM378.801 212.622C378.801 239.543 358.206 261.765 332.323 261.765V254.162C353.58 254.162 371.199 235.784 371.199 212.622H378.801ZM332.323 261.765C313.726 261.765 297.813 250.246 290.376 233.813L297.303 230.678C303.638 244.676 317.014 254.162 332.323 254.162V261.765ZM223.366 220.632L282.825 220.632V228.235L223.366 228.235V220.632ZM208.92 326.768V235.078H216.523V326.768H208.92ZM229.397 343.461C229.184 343.461 228.971 343.463 228.759 343.466L228.628 335.864C228.884 335.86 229.14 335.858 229.397 335.858V343.461ZM268.272 385C268.272 361.839 250.653 343.461 229.397 343.461V335.858C255.28 335.858 275.875 358.08 275.875 385H268.272ZM229.397 426.54C250.653 426.54 268.272 408.162 268.272 385H275.875C275.875 411.921 255.28 434.143 229.397 434.143V426.54ZM190.522 385C190.522 408.162 208.14 426.54 229.397 426.54V434.143C203.514 434.143 182.919 411.921 182.919 385H190.522ZM191.013 378.374C190.69 380.53 190.522 382.743 190.522 385H182.919C182.919 382.365 183.115 379.775 183.494 377.247L191.013 378.374ZM-85.0083 356.077L174.617 356.077V363.68L-85.0083 363.68V356.077ZM-126.064 315.022C-126.064 337.696 -107.683 356.077 -85.0083 356.077V363.68C-111.882 363.68 -133.667 341.895 -133.667 315.022H-126.064ZM-126.064 306.324V315.022H-133.667V306.324H-126.064ZM-185.335 291.878H-140.51V299.481H-185.335V291.878ZM-192.178 177.925V285.035H-199.78V177.925H-192.178ZM-129.866 171.082L-185.335 171.082V163.479L-129.866 163.479V171.082ZM127.905 171.082L-129.866 171.082V163.479L127.905 163.479L127.905 171.082ZM199.198 171.082L127.905 171.082L127.905 163.479L199.198 163.479L199.198 171.082ZM212.722 171.082H199.198V163.479H212.722V171.082ZM335.13 171.082H212.722V163.479H335.13V171.082ZM335.13 163.479C337.258 163.479 338.983 165.205 338.983 167.333H331.38C331.38 169.404 333.059 171.082 335.13 171.082V163.479ZM-133.667 306.324C-133.667 302.545 -136.731 299.481 -140.51 299.481V291.878C-132.532 291.878 -126.064 298.346 -126.064 306.324H-133.667ZM-199.78 177.925C-199.78 169.947 -193.313 163.479 -185.335 163.479V171.082C-189.114 171.082 -192.178 174.146 -192.178 177.925H-199.78ZM223.366 228.235C219.587 228.235 216.523 231.299 216.523 235.078H208.92C208.92 227.1 215.388 220.632 223.366 220.632V228.235ZM-185.335 299.481C-193.313 299.481 -199.78 293.014 -199.78 285.035H-192.178C-192.178 288.815 -189.114 291.878 -185.335 291.878V299.481ZM290.376 233.813C288.819 230.371 285.842 228.235 282.825 228.235V220.632C289.551 220.632 294.843 225.243 297.303 230.678L290.376 233.813ZM183.494 377.247C183.97 374.077 183.141 370.533 181.363 367.83C179.601 365.151 177.201 363.68 174.617 363.68V356.077C180.402 356.077 184.941 359.434 187.715 363.652C190.474 367.845 191.779 373.267 191.013 378.374L183.494 377.247ZM216.523 326.768C216.523 329.163 217.779 331.387 220.093 333.126C222.435 334.886 225.599 335.916 228.628 335.864L228.759 343.466C224.059 343.547 219.238 341.993 215.526 339.204C211.786 336.393 208.92 332.102 208.92 326.768H216.523ZM334.959 171.176C332.966 171.034 331.38 169.377 331.38 167.333H338.983C338.983 165.342 337.44 163.731 335.501 163.593L334.959 171.176Z" fill="#F22828" mask="url(#path-6-inside-3_222_1172)"/>
</g>
<g filter="url(#filter3_f_222_1172)">
<mask id="path-8-inside-4_222_1172" fill="white">
<path fill-rule="evenodd" clip-rule="evenodd" d="M1508.9 133.387C1508.9 108.873 1489.03 89 1464.51 89H1450.54C1426.02 89 1406.15 108.873 1406.15 133.387V136.05C1406.15 160.564 1386.28 180.437 1361.76 180.437L1234.53 180.437C1220.34 180.437 1207.92 152.456 1207.92 138.269C1207.92 111.059 1185.33 89 1157.46 89C1129.59 89 1106.99 111.059 1106.99 138.269C1106.99 165.48 1129.59 187.538 1157.46 187.538C1166.64 187.538 1176.1 193.96 1176.1 203.138V251.849C1176.1 273.694 1158.39 291.403 1136.54 291.403C1114.7 291.403 1096.99 309.112 1096.99 330.957V471.613C1096.99 496.127 1116.86 516 1141.38 516H1249.68C1274.19 516 1294.07 496.127 1294.07 471.613V424.563C1294.07 400.049 1313.94 380.177 1338.45 380.177H1361.76C1386.28 380.177 1406.15 400.049 1406.15 424.563V436.104C1406.15 460.618 1426.02 480.491 1450.54 480.491H1464.51C1489.03 480.491 1508.9 460.618 1508.9 436.104L1508.9 133.387Z"/>
</mask>
<path d="M1450.54 83.6736H1464.51V94.3264H1450.54V83.6736ZM1400.82 136.05V133.387H1411.48V136.05H1400.82ZM1234.53 175.11L1361.76 175.11V185.763L1234.53 185.763V175.11ZM1202.6 138.269C1202.6 114.12 1182.51 94.3264 1157.46 94.3264V83.6736C1188.15 83.6736 1213.25 107.997 1213.25 138.269H1202.6ZM1157.46 94.3264C1132.41 94.3264 1112.32 114.12 1112.32 138.269L1101.67 138.269C1101.67 107.997 1126.77 83.6736 1157.46 83.6736V94.3264ZM1112.32 138.269C1112.32 162.418 1132.41 182.212 1157.46 182.212V192.865C1126.77 192.865 1101.67 168.541 1101.67 138.269L1112.32 138.269ZM1170.77 251.849V203.138H1181.42V251.849H1170.77ZM1091.66 471.613V330.957H1102.32V471.613H1091.66ZM1249.68 521.326H1141.38L1141.38 510.674H1249.68L1249.68 521.326ZM1299.39 424.563V471.613H1288.74V424.563H1299.39ZM1361.76 385.503H1338.45V374.85H1361.76V385.503ZM1400.82 436.104V424.563H1411.48V436.104H1400.82ZM1464.51 485.817H1450.54V475.164H1464.51V485.817ZM1514.22 133.387L1514.22 436.104H1503.57L1503.57 133.387H1514.22ZM1464.51 475.164C1486.08 475.164 1503.57 457.676 1503.57 436.104H1514.22C1514.22 463.56 1491.97 485.817 1464.51 485.817V475.164ZM1411.48 436.104C1411.48 457.676 1428.96 475.164 1450.54 475.164V485.817C1423.08 485.817 1400.82 463.56 1400.82 436.104H1411.48ZM1136.54 296.73C1117.64 296.73 1102.32 312.054 1102.32 330.957H1091.66C1091.66 306.171 1111.76 286.077 1136.54 286.077V296.73ZM1181.42 251.849C1181.42 276.636 1161.33 296.73 1136.54 296.73V286.077C1155.45 286.077 1170.77 270.753 1170.77 251.849H1181.42ZM1157.46 182.212C1163.22 182.212 1169.04 184.205 1173.5 187.704C1178.01 191.234 1181.42 196.57 1181.42 203.138H1170.77C1170.77 200.529 1169.45 198.064 1166.93 196.089C1164.37 194.083 1160.87 192.865 1157.46 192.865V182.212ZM1361.76 374.85C1389.22 374.85 1411.48 397.108 1411.48 424.563H1400.82C1400.82 402.991 1383.33 385.503 1361.76 385.503V374.85ZM1234.53 185.763C1229.18 185.763 1224.52 183.136 1220.82 179.801C1217.09 176.44 1213.87 171.969 1211.25 167.262C1206.08 157.961 1202.6 146.525 1202.6 138.269H1213.25C1213.25 144.2 1215.98 153.848 1220.56 162.084C1222.82 166.145 1225.36 169.556 1227.95 171.885C1230.56 174.24 1232.78 175.11 1234.53 175.11V185.763ZM1288.74 424.563C1288.74 397.108 1311 374.85 1338.45 374.85V385.503C1316.88 385.503 1299.39 402.991 1299.39 424.563H1288.74ZM1411.48 136.05C1411.48 163.506 1389.22 185.763 1361.76 185.763V175.11C1383.33 175.11 1400.82 157.622 1400.82 136.05H1411.48ZM1249.68 510.674C1271.25 510.674 1288.74 493.186 1288.74 471.613H1299.39C1299.39 499.069 1277.14 521.326 1249.68 521.326L1249.68 510.674ZM1464.51 83.6736C1491.97 83.6736 1514.22 105.931 1514.22 133.387H1503.57C1503.57 111.814 1486.08 94.3264 1464.51 94.3264V83.6736ZM1102.32 471.613C1102.32 493.186 1119.8 510.674 1141.38 510.674L1141.38 521.326C1113.92 521.326 1091.66 499.069 1091.66 471.613H1102.32ZM1450.54 94.3264C1428.96 94.3264 1411.48 111.814 1411.48 133.387H1400.82C1400.82 105.931 1423.08 83.6736 1450.54 83.6736V94.3264Z" fill="#377DC9" mask="url(#path-8-inside-4_222_1172)"/>
</g>
<g filter="url(#filter4_f_222_1172)">
<mask id="path-10-inside-5_222_1172" fill="white">
<path fill-rule="evenodd" clip-rule="evenodd" d="M1500.91 133.387C1500.91 108.873 1481.04 89 1456.52 89H1442.55C1418.03 89 1398.16 108.873 1398.16 133.387V136.05C1398.16 160.564 1378.29 180.437 1353.77 180.437L1226.54 180.437C1212.35 180.437 1199.93 152.456 1199.93 138.269C1199.93 111.059 1177.34 89 1149.47 89C1121.6 89 1099 111.059 1099 138.269C1099 165.48 1121.6 187.538 1149.47 187.538C1158.65 187.538 1168.11 193.96 1168.11 203.138V251.849C1168.11 273.694 1150.4 291.403 1128.55 291.403C1106.71 291.403 1089 309.112 1089 330.957V471.613C1089 496.127 1108.87 516 1133.39 516H1241.69C1266.2 516 1286.08 496.127 1286.08 471.613V424.563C1286.08 400.049 1305.95 380.177 1330.46 380.177H1353.77C1378.29 380.177 1398.16 400.049 1398.16 424.563V436.104C1398.16 460.618 1418.03 480.491 1442.55 480.491H1456.52C1481.04 480.491 1500.91 460.618 1500.91 436.104L1500.91 133.387Z"/>
</mask>
<path d="M1442.55 83.6736H1456.52V94.3264H1442.55V83.6736ZM1392.83 136.05V133.387H1403.49V136.05H1392.83ZM1226.54 175.11L1353.77 175.11V185.763L1226.54 185.763V175.11ZM1194.61 138.269C1194.61 114.12 1174.52 94.3264 1149.47 94.3264V83.6736C1180.16 83.6736 1205.26 107.997 1205.26 138.269H1194.61ZM1149.47 94.3264C1124.42 94.3264 1104.33 114.12 1104.33 138.269L1093.68 138.269C1093.68 107.997 1118.78 83.6736 1149.47 83.6736V94.3264ZM1104.33 138.269C1104.33 162.418 1124.42 182.212 1149.47 182.212V192.865C1118.78 192.865 1093.68 168.541 1093.68 138.269L1104.33 138.269ZM1162.78 251.849V203.138H1173.43V251.849H1162.78ZM1083.67 471.613V330.957H1094.33V471.613H1083.67ZM1241.69 521.326H1133.39L1133.39 510.674H1241.69L1241.69 521.326ZM1291.4 424.563V471.613H1280.75V424.563H1291.4ZM1353.77 385.503H1330.46V374.85H1353.77V385.503ZM1392.83 436.104V424.563H1403.49V436.104H1392.83ZM1456.52 485.817H1442.55V475.164H1456.52V485.817ZM1506.24 133.387L1506.24 436.104H1495.58L1495.58 133.387H1506.24ZM1456.52 475.164C1478.09 475.164 1495.58 457.676 1495.58 436.104H1506.24C1506.24 463.56 1483.98 485.817 1456.52 485.817V475.164ZM1403.49 436.104C1403.49 457.676 1420.97 475.164 1442.55 475.164V485.817C1415.09 485.817 1392.83 463.56 1392.83 436.104H1403.49ZM1128.55 296.73C1109.65 296.73 1094.33 312.054 1094.33 330.957H1083.67C1083.67 306.171 1103.77 286.077 1128.55 286.077V296.73ZM1173.43 251.849C1173.43 276.636 1153.34 296.73 1128.55 296.73V286.077C1147.46 286.077 1162.78 270.753 1162.78 251.849H1173.43ZM1149.47 182.212C1155.23 182.212 1161.05 184.205 1165.51 187.704C1170.02 191.234 1173.43 196.57 1173.43 203.138H1162.78C1162.78 200.529 1161.47 198.064 1158.94 196.089C1156.38 194.083 1152.88 192.865 1149.47 192.865V182.212ZM1353.77 374.85C1381.23 374.85 1403.49 397.108 1403.49 424.563H1392.83C1392.83 402.991 1375.34 385.503 1353.77 385.503V374.85ZM1226.54 185.763C1221.19 185.763 1216.53 183.136 1212.83 179.801C1209.1 176.44 1205.88 171.969 1203.26 167.262C1198.09 157.961 1194.61 146.525 1194.61 138.269H1205.26C1205.26 144.2 1207.99 153.848 1212.57 162.084C1214.83 166.145 1217.37 169.556 1219.96 171.885C1222.57 174.24 1224.79 175.11 1226.54 175.11V185.763ZM1280.75 424.563C1280.75 397.108 1303.01 374.85 1330.46 374.85V385.503C1308.89 385.503 1291.4 402.991 1291.4 424.563H1280.75ZM1403.49 136.05C1403.49 163.506 1381.23 185.763 1353.77 185.763V175.11C1375.34 175.11 1392.83 157.622 1392.83 136.05H1403.49ZM1241.69 510.674C1263.26 510.674 1280.75 493.186 1280.75 471.613H1291.4C1291.4 499.069 1269.15 521.326 1241.69 521.326L1241.69 510.674ZM1456.52 83.6736C1483.98 83.6736 1506.24 105.931 1506.24 133.387H1495.58C1495.58 111.814 1478.09 94.3264 1456.52 94.3264V83.6736ZM1094.33 471.613C1094.33 493.186 1111.81 510.674 1133.39 510.674L1133.39 521.326C1105.93 521.326 1083.67 499.069 1083.67 471.613H1094.33ZM1442.55 94.3264C1420.97 94.3264 1403.49 111.814 1403.49 133.387H1392.83C1392.83 105.931 1415.09 83.6736 1442.55 83.6736V94.3264Z" fill="#377DC9" mask="url(#path-10-inside-5_222_1172)"/>
</g>
<g filter="url(#filter5_f_222_1172)">
<mask id="path-12-inside-6_222_1172" fill="white">
<path fill-rule="evenodd" clip-rule="evenodd" d="M1503.57 133.387C1503.57 108.873 1483.7 89 1459.19 89H1445.21C1420.7 89 1400.82 108.873 1400.82 133.387V136.05C1400.82 160.564 1380.95 180.437 1356.44 180.437L1229.2 180.437C1215.01 180.437 1202.6 152.456 1202.6 138.269C1202.6 111.059 1180 89 1152.13 89C1124.26 89 1101.67 111.059 1101.67 138.269C1101.67 165.48 1124.26 187.538 1152.13 187.538C1161.31 187.538 1170.77 193.96 1170.77 203.138V251.849C1170.77 273.694 1153.06 291.403 1131.22 291.403C1109.37 291.403 1091.66 309.112 1091.66 330.958V471.613C1091.66 496.127 1111.54 516 1136.05 516H1244.35C1268.87 516 1288.74 496.127 1288.74 471.613V424.563C1288.74 400.049 1308.61 380.177 1333.13 380.177H1356.44C1380.95 380.177 1400.82 400.049 1400.82 424.563V436.104C1400.82 460.618 1420.7 480.491 1445.21 480.491H1459.19C1483.7 480.491 1503.57 460.618 1503.57 436.104L1503.57 133.387Z"/>
</mask>
<path d="M1445.21 84.5613H1459.19V93.4387H1445.21V84.5613ZM1396.38 136.05V133.387H1405.26V136.05H1396.38ZM1229.2 175.998L1356.44 175.998V184.875L1229.2 184.875V175.998ZM1198.16 138.269C1198.16 113.61 1177.65 93.4387 1152.13 93.4387V84.5613C1182.35 84.5613 1207.04 108.507 1207.04 138.269H1198.16ZM1152.13 93.4387C1126.61 93.4387 1106.1 113.61 1106.1 138.269L1097.23 138.269C1097.23 108.507 1121.91 84.5613 1152.13 84.5613V93.4387ZM1106.1 138.269C1106.1 162.929 1126.61 183.1 1152.13 183.1V191.977C1121.91 191.977 1097.23 168.031 1097.23 138.269L1106.1 138.269ZM1166.33 251.849V203.138H1175.21V251.849H1166.33ZM1087.22 471.613V330.958H1096.1V471.613H1087.22ZM1244.35 520.439H1136.05L1136.05 511.561H1244.35L1244.35 520.439ZM1293.18 424.563V471.613H1284.3V424.563H1293.18ZM1356.44 384.615H1333.13V375.738H1356.44V384.615ZM1396.38 436.104V424.563H1405.26V436.104H1396.38ZM1459.19 484.929H1445.21V476.052H1459.19V484.929ZM1508.01 133.387L1508.01 436.104H1499.13L1499.13 133.387H1508.01ZM1459.19 476.052C1481.25 476.052 1499.13 458.167 1499.13 436.104H1508.01C1508.01 463.069 1486.15 484.929 1459.19 484.929V476.052ZM1405.26 436.104C1405.26 458.167 1423.15 476.052 1445.21 476.052V484.929C1418.24 484.929 1396.38 463.069 1396.38 436.104H1405.26ZM1131.22 295.842C1111.82 295.842 1096.1 311.564 1096.1 330.958H1087.22C1087.22 306.661 1106.92 286.965 1131.22 286.965V295.842ZM1175.21 251.849C1175.21 276.146 1155.51 295.842 1131.22 295.842V286.965C1150.61 286.965 1166.33 271.243 1166.33 251.849H1175.21ZM1152.13 183.1C1157.7 183.1 1163.32 185.028 1167.63 188.403C1171.97 191.803 1175.21 196.9 1175.21 203.138H1166.33C1166.33 200.199 1164.84 197.495 1162.16 195.39C1159.44 193.26 1155.74 191.977 1152.13 191.977V183.1ZM1356.44 375.738C1383.4 375.738 1405.26 397.598 1405.26 424.563H1396.38C1396.38 402.501 1378.5 384.615 1356.44 384.615V375.738ZM1229.2 184.875C1224.15 184.875 1219.7 182.394 1216.09 179.141C1212.45 175.866 1209.29 171.484 1206.7 166.831C1201.58 157.618 1198.16 146.331 1198.16 138.269H1207.04C1207.04 144.394 1209.83 154.191 1214.46 162.515C1216.75 166.631 1219.35 170.13 1222.03 172.545C1224.73 174.981 1227.16 175.998 1229.2 175.998V184.875ZM1284.3 424.563C1284.3 397.598 1306.16 375.738 1333.13 375.738V384.615C1311.06 384.615 1293.18 402.501 1293.18 424.563H1284.3ZM1405.26 136.05C1405.26 163.015 1383.4 184.875 1356.44 184.875V175.998C1378.5 175.998 1396.38 158.113 1396.38 136.05H1405.26ZM1244.35 511.561C1266.42 511.561 1284.3 493.676 1284.3 471.613H1293.18C1293.18 498.579 1271.32 520.439 1244.35 520.439L1244.35 511.561ZM1459.19 84.5613C1486.15 84.5613 1508.01 106.421 1508.01 133.387H1499.13C1499.13 111.324 1481.25 93.4387 1459.19 93.4387V84.5613ZM1096.1 471.613C1096.1 493.676 1113.99 511.561 1136.05 511.561L1136.05 520.439C1109.08 520.439 1087.22 498.579 1087.22 471.613H1096.1ZM1445.21 93.4387C1423.15 93.4387 1405.26 111.324 1405.26 133.387H1396.38C1396.38 106.421 1418.24 84.5613 1445.21 84.5613V93.4387Z" fill="#377DC9" mask="url(#path-12-inside-6_222_1172)"/>
</g>
<g filter="url(#filter6_f_222_1172)">
<mask id="path-14-inside-7_222_1172" fill="white">
<path fill-rule="evenodd" clip-rule="evenodd" d="M867.049 1026.95C884.533 1001.77 918.744 995.28 943.463 1012.45C954.85 1020.35 974.169 1022.45 982.076 1011.06L1000.15 985.042C1008.05 973.655 999.34 956.285 987.953 948.378C963.235 931.213 957.369 896.888 974.853 871.711C992.336 846.534 1026.55 840.04 1051.27 857.206C1075.99 874.371 1081.85 908.696 1064.37 933.873C1055.61 946.491 1052.71 968.996 1065.32 977.758L1098.2 1000.58C1115.06 1012.3 1138.23 1008.12 1149.94 991.253L1200.17 918.929C1208.59 906.806 1198.07 887.321 1185.95 878.902C1161.68 862.046 1155.92 828.339 1173.08 803.616C1187.1 783.427 1212.08 775.472 1233.98 782.412L1235.32 780.485L1248.12 789.372L1320 839.286L1315.44 845.857C1338.12 861.608 1343.74 892.764 1327.99 915.446L1180.25 1128.18C1164.5 1150.86 1133.35 1156.48 1110.67 1140.73L1067.6 1110.83C1067.38 1110.67 1067.07 1110.73 1066.91 1110.95C1066.75 1111.18 1066.44 1111.24 1066.21 1111.08L1006.16 1069.38C992.535 1059.91 966.028 1075.48 956.564 1089.11C939.081 1114.29 904.869 1120.78 880.15 1103.62C855.431 1086.45 849.566 1052.13 867.049 1026.95Z"/>
</mask>
<path d="M1149.94 991.253L1145.01 987.83L1149.94 991.253ZM1200.17 918.929L1205.1 922.351L1200.17 918.929ZM1233.98 782.412L1232.17 788.132L1236.39 789.468L1238.91 785.835L1233.98 782.412ZM1235.32 780.485L1238.74 775.556L1233.82 772.134L1230.39 777.062L1235.32 780.485ZM1248.12 789.372L1244.7 794.3L1248.12 789.372ZM1320 839.286L1324.93 842.709L1328.35 837.78L1323.42 834.358L1320 839.286ZM1315.44 845.857L1310.51 842.435L1307.09 847.363L1312.01 850.786L1315.44 845.857ZM946.886 1007.52C919.36 988.403 881.435 995.716 862.121 1023.53L871.977 1030.37C887.63 1007.83 918.129 1002.16 940.041 1017.37L946.886 1007.52ZM977.148 1007.64C974.73 1011.12 970.218 1013.06 964.148 1012.99C958.103 1012.92 951.593 1010.79 946.886 1007.52L940.041 1017.37C946.719 1022.01 955.562 1024.88 964 1024.99C972.414 1025.09 981.516 1022.39 987.004 1014.49L977.148 1007.64ZM995.218 981.619L977.148 1007.64L987.004 1014.49L1005.07 988.464L995.218 981.619ZM984.531 953.306C989.239 956.576 993.508 961.932 995.689 967.57C997.88 973.231 997.636 978.137 995.218 981.619L1005.07 988.464C1010.56 980.56 1009.92 971.087 1006.88 963.24C1003.84 955.37 998.054 948.088 991.376 943.45L984.531 953.306ZM969.924 868.289C950.61 896.101 957.006 934.192 984.531 953.306L991.376 943.45C969.464 928.233 964.128 897.674 979.781 875.133L969.924 868.289ZM1054.69 852.277C1027.16 833.163 989.238 840.476 969.924 868.289L979.781 875.133C995.434 852.593 1025.93 846.917 1047.84 862.134L1054.69 852.277ZM1069.3 937.295C1088.61 909.482 1082.21 871.392 1054.69 852.277L1047.84 862.134C1069.76 877.35 1075.09 907.91 1059.44 930.451L1069.3 937.295ZM1068.75 972.83C1064.78 970.071 1062.61 964.689 1062.83 957.437C1063.04 950.268 1065.6 942.622 1069.3 937.295L1059.44 930.451C1054.38 937.742 1051.11 947.657 1050.83 957.086C1050.56 966.431 1053.26 976.682 1061.9 982.686L1068.75 972.83ZM1101.62 995.656L1068.75 972.83L1061.9 982.686L1094.77 1005.51L1101.62 995.656ZM1145.01 987.83C1135.19 1001.97 1115.76 1005.48 1101.62 995.656L1094.77 1005.51C1114.36 1019.12 1141.27 1014.26 1154.87 994.675L1145.01 987.83ZM1195.24 915.506L1145.01 987.83L1154.87 994.675L1205.1 922.351L1195.24 915.506ZM1182.53 883.83C1187.62 887.365 1192.56 893.416 1195.22 899.829C1197.93 906.339 1197.79 911.829 1195.24 915.506L1205.1 922.351C1210.96 913.906 1209.78 903.592 1206.3 895.224C1202.78 886.758 1196.4 878.858 1189.37 873.974L1182.53 883.83ZM1168.16 800.194C1149.16 827.553 1155.45 865.025 1182.53 883.83L1189.37 873.974C1167.9 859.067 1162.67 829.125 1178.01 807.039L1168.16 800.194ZM1235.8 776.692C1211.39 768.962 1183.68 777.835 1168.16 800.194L1178.01 807.039C1190.52 789.02 1212.76 781.983 1232.17 788.132L1235.8 776.692ZM1238.91 785.835L1240.25 783.907L1230.39 777.062L1229.06 778.99L1238.91 785.835ZM1231.9 785.413L1244.7 794.3L1251.54 784.444L1238.74 775.556L1231.9 785.413ZM1244.7 794.3L1316.58 844.215L1323.42 834.358L1251.54 784.444L1244.7 794.3ZM1315.07 835.864L1310.51 842.435L1320.36 849.28L1324.93 842.709L1315.07 835.864ZM1332.91 918.868C1350.55 893.464 1344.26 858.57 1318.86 840.929L1312.01 850.786C1331.97 864.646 1336.92 892.063 1323.06 912.023L1332.91 918.868ZM1185.18 1131.6L1332.91 918.868L1323.06 912.023L1175.33 1124.76L1185.18 1131.6ZM1107.24 1145.66C1132.65 1163.3 1167.54 1157.01 1185.18 1131.6L1175.33 1124.76C1161.47 1144.72 1134.05 1149.66 1114.09 1135.8L1107.24 1145.66ZM1064.18 1115.76L1107.24 1145.66L1114.09 1135.8L1071.03 1105.9L1064.18 1115.76ZM1071.84 1114.38C1070.1 1116.87 1066.68 1117.49 1064.18 1115.76L1071.03 1105.9C1068.08 1103.85 1064.03 1104.58 1061.98 1107.53L1071.84 1114.38ZM1062.79 1116.01C1065.74 1118.05 1069.79 1117.32 1071.84 1114.38L1061.98 1107.53C1063.71 1105.04 1067.14 1104.42 1069.63 1106.15L1062.79 1116.01ZM1002.74 1074.31L1062.79 1116.01L1069.63 1106.15L1009.59 1064.45L1002.74 1074.31ZM961.492 1092.54C965.51 1086.75 973.595 1080.08 982.327 1076.03C991.44 1071.8 998.722 1071.52 1002.74 1074.31L1009.59 1064.45C999.976 1057.78 987.191 1060.54 977.277 1065.14C966.982 1069.92 957.082 1077.85 951.636 1085.69L961.492 1092.54ZM876.728 1108.55C904.253 1127.66 942.178 1120.35 961.492 1092.54L951.636 1085.69C935.983 1108.23 905.485 1113.91 883.572 1098.69L876.728 1108.55ZM862.121 1023.53C842.807 1051.34 849.202 1089.43 876.728 1108.55L883.572 1098.69C861.66 1083.47 856.325 1052.91 871.977 1030.37L862.121 1023.53Z" fill="#FDD05C" mask="url(#path-14-inside-7_222_1172)"/>
</g>
<g filter="url(#filter7_f_222_1172)">
<mask id="path-16-inside-8_222_1172" fill="white">
<path fill-rule="evenodd" clip-rule="evenodd" d="M859.657 1021.82C877.14 996.641 911.352 990.146 936.071 1007.31C947.457 1015.22 966.777 1017.32 974.684 1005.93L992.754 979.908C1000.66 968.522 991.947 951.152 980.561 943.245C955.842 926.079 949.977 891.754 967.46 866.577C984.943 841.401 1019.16 834.906 1043.87 852.072C1068.59 869.238 1074.46 903.563 1056.97 928.739C1048.21 941.357 1045.31 963.862 1057.93 972.624L1090.8 995.451C1107.67 1007.16 1130.84 1002.99 1142.55 986.119L1193.6 912.61C1198.45 905.623 1196.97 896.315 1192.48 888.31L1167.58 871.018L1170.87 866.278C1155.5 848.145 1153.71 820.991 1168.16 800.194C1185.32 775.471 1218.92 769.094 1243.19 785.95C1251.6 791.786 1257.78 799.643 1261.56 808.448L1264.44 810.443C1264.57 810.346 1264.7 810.223 1264.8 810.072C1265.27 809.398 1266.2 809.23 1266.87 809.699L1309.18 839.081C1331.87 854.832 1337.48 885.988 1321.73 908.669L1172.86 1123.05C1157.11 1145.73 1125.96 1151.35 1103.27 1135.6L1060.21 1105.69C1059.98 1105.54 1059.67 1105.59 1059.52 1105.82C1059.36 1106.05 1059.05 1106.1 1058.82 1105.94L998.771 1064.24C985.143 1054.78 958.635 1070.35 949.172 1083.98C931.688 1109.16 897.476 1115.65 872.758 1098.48C848.039 1081.32 842.173 1046.99 859.657 1021.82Z"/>
</mask>
<path d="M1192.48 888.31L1197.72 885.375L1197.04 884.17L1195.91 883.381L1192.48 888.31ZM1167.58 871.018L1162.65 867.596L1159.23 872.524L1164.16 875.947L1167.58 871.018ZM1170.87 866.278L1175.8 869.701L1178.43 865.914L1175.45 862.397L1170.87 866.278ZM1261.56 808.448L1256.05 810.816L1256.73 812.396L1258.14 813.376L1261.56 808.448ZM1264.44 810.443L1261.02 815.371L1264.47 817.771L1267.91 815.339L1264.44 810.443ZM939.493 1002.38C911.967 983.269 874.042 990.582 854.728 1018.4L864.585 1025.24C880.238 1002.7 910.736 997.024 932.648 1012.24L939.493 1002.38ZM969.755 1002.51C967.337 1005.99 962.826 1007.93 956.756 1007.86C950.711 1007.78 944.201 1005.65 939.493 1002.38L932.648 1012.24C939.327 1016.88 948.17 1019.75 956.608 1019.86C965.021 1019.96 974.123 1017.26 979.612 1009.35L969.755 1002.51ZM987.825 976.486L969.755 1002.51L979.612 1009.35L997.682 983.33L987.825 976.486ZM977.139 948.173C981.846 951.442 986.115 956.798 988.297 962.437C990.487 968.098 990.244 973.004 987.825 976.486L997.682 983.33C1003.17 975.426 1002.52 965.954 999.488 958.107C996.443 950.236 990.662 942.954 983.983 938.316L977.139 948.173ZM962.532 863.155C943.218 890.968 949.613 929.058 977.139 948.173L983.983 938.316C962.071 923.1 956.735 892.54 972.388 870L962.532 863.155ZM1047.3 847.144C1019.77 828.029 981.846 835.342 962.532 863.155L972.388 870C988.041 847.459 1018.54 841.784 1040.45 857L1047.3 847.144ZM1061.9 932.162C1081.22 904.349 1074.82 866.258 1047.3 847.144L1040.45 857C1062.36 872.217 1067.7 902.777 1052.05 925.317L1061.9 932.162ZM1061.35 967.696C1057.38 964.938 1055.22 959.556 1055.43 952.303C1055.64 945.135 1058.2 937.488 1061.9 932.162L1052.05 925.317C1046.98 932.608 1043.71 942.523 1043.44 951.952C1043.17 961.297 1045.86 971.549 1054.51 977.553L1061.35 967.696ZM1094.23 990.523L1061.35 967.696L1054.51 977.553L1087.38 1000.38L1094.23 990.523ZM1137.62 982.697C1127.8 996.841 1108.37 1000.35 1094.23 990.523L1087.38 1000.38C1106.97 1013.98 1133.88 1009.13 1147.48 989.542L1137.62 982.697ZM1188.67 909.188L1137.62 982.697L1147.48 989.542L1198.53 916.033L1188.67 909.188ZM1187.25 891.244C1191.25 898.375 1191.61 904.956 1188.67 909.188L1198.53 916.033C1205.29 906.29 1202.7 894.256 1197.72 885.375L1187.25 891.244ZM1195.91 883.381L1171.01 866.09L1164.16 875.947L1189.06 893.238L1195.91 883.381ZM1172.51 874.441L1175.8 869.701L1165.95 862.856L1162.65 867.596L1172.51 874.441ZM1163.23 796.772C1147.23 819.802 1149.16 849.953 1166.3 870.159L1175.45 862.397C1161.83 846.337 1160.19 822.18 1173.08 803.616L1163.23 796.772ZM1246.61 781.022C1219.53 762.216 1182.23 769.412 1163.23 796.772L1173.08 803.616C1188.42 781.529 1218.3 775.971 1239.77 790.878L1246.61 781.022ZM1267.08 806.08C1262.87 796.278 1255.97 787.521 1246.61 781.022L1239.77 790.878C1247.22 796.052 1252.7 803.009 1256.05 810.816L1267.08 806.08ZM1258.14 813.376L1261.02 815.371L1267.86 805.515L1264.99 803.52L1258.14 813.376ZM1259.87 806.65C1260.17 806.229 1260.54 805.853 1260.97 805.546L1267.91 815.339C1268.61 814.839 1269.23 814.217 1269.73 813.495L1259.87 806.65ZM1270.3 804.771C1266.9 802.412 1262.23 803.253 1259.87 806.65L1269.73 813.495C1268.31 815.542 1265.5 816.049 1263.45 814.627L1270.3 804.771ZM1312.61 834.153L1270.3 804.771L1263.45 814.627L1305.76 844.009L1312.61 834.153ZM1326.66 912.092C1344.3 886.688 1338.01 851.794 1312.61 834.153L1305.76 844.009C1325.72 857.87 1330.67 885.287 1316.8 905.247L1326.66 912.092ZM1177.79 1126.47L1326.66 912.092L1316.8 905.247L1167.93 1119.63L1177.79 1126.47ZM1099.85 1140.53C1125.25 1158.17 1160.15 1151.87 1177.79 1126.47L1167.93 1119.63C1154.07 1139.59 1126.66 1144.53 1106.7 1130.67L1099.85 1140.53ZM1056.79 1110.62L1099.85 1140.53L1106.7 1130.67L1063.63 1100.77L1056.79 1110.62ZM1064.44 1109.24C1062.71 1111.74 1059.28 1112.35 1056.79 1110.62L1063.63 1100.77C1060.68 1098.72 1056.63 1099.45 1054.59 1102.4L1064.44 1109.24ZM1055.4 1110.87C1058.35 1112.92 1062.4 1112.19 1064.44 1109.24L1054.59 1102.4C1056.32 1099.9 1059.75 1099.28 1062.24 1101.02L1055.4 1110.87ZM995.348 1069.17L1055.4 1110.87L1062.24 1101.02L1002.19 1059.32L995.348 1069.17ZM954.1 1087.4C958.118 1081.62 966.203 1074.95 974.934 1070.9C984.048 1066.67 991.33 1066.38 995.348 1069.17L1002.19 1059.32C992.584 1052.64 979.798 1055.41 969.885 1060.01C959.59 1064.79 949.689 1072.71 944.243 1080.56L954.1 1087.4ZM869.335 1103.41C896.861 1122.53 934.786 1115.21 954.1 1087.4L944.243 1080.56C928.591 1103.1 898.092 1108.77 876.18 1093.56L869.335 1103.41ZM854.728 1018.4C835.414 1046.21 841.81 1084.3 869.335 1103.41L876.18 1093.56C854.268 1078.34 848.932 1047.78 864.585 1025.24L854.728 1018.4Z" fill="#FDD05C" mask="url(#path-16-inside-8_222_1172)"/>
</g>
<g filter="url(#filter8_f_222_1172)">
<mask id="path-18-inside-9_222_1172" fill="white">
<path fill-rule="evenodd" clip-rule="evenodd" d="M862.121 1023.53C879.604 998.352 913.816 991.858 938.535 1009.02C949.921 1016.93 969.241 1019.03 977.148 1007.64L995.218 981.619C1003.13 970.233 994.412 952.863 983.025 944.956C958.306 927.79 952.441 893.465 969.924 868.289C987.408 843.112 1021.62 836.618 1046.34 853.783C1071.06 870.949 1076.92 905.274 1059.44 930.45C1050.68 943.069 1047.78 965.573 1060.4 974.336L1093.27 997.162C1110.13 1008.87 1133.3 1004.7 1145.01 987.83L1195.78 914.728C1203.9 903.031 1194.36 884.743 1182.66 876.621C1178.56 873.772 1174.99 870.443 1171.97 866.757L1171.01 866.09L1171.2 865.805C1157.05 847.703 1155.78 821.523 1169.8 801.335C1183.82 781.146 1208.79 773.191 1230.7 780.131L1230.9 779.846L1231.86 780.512C1236.37 782.057 1240.73 784.242 1244.84 787.091C1248.94 789.939 1252.51 793.269 1255.53 796.955L1315.57 838.648L1313.84 841.144C1335.16 857.228 1340.14 887.428 1324.77 909.559L1175.33 1124.76C1159.58 1147.44 1128.42 1153.06 1105.74 1137.31L1062.68 1107.4C1062.45 1107.25 1062.14 1107.3 1061.98 1107.53C1061.82 1107.76 1061.51 1107.81 1061.28 1107.66L1001.24 1065.96C987.607 1056.49 961.1 1072.06 951.636 1085.69C934.153 1110.87 899.941 1117.36 875.222 1100.2C850.503 1083.03 844.638 1048.71 862.121 1023.53Z"/>
</mask>
<path d="M1060.4 974.336L1063.82 969.407L1060.4 974.336ZM1093.27 997.162L1089.85 1002.09L1093.27 997.162ZM1145.01 987.83L1149.94 991.253L1145.01 987.83ZM1195.78 914.728L1190.85 911.306L1195.78 914.728ZM1171.97 866.757L1176.6 862.952L1176.07 862.305L1175.39 861.828L1171.97 866.757ZM1171.01 866.09L1166.08 862.668L1162.65 867.596L1167.58 871.018L1171.01 866.09ZM1171.2 865.805L1176.13 869.228L1178.65 865.594L1175.93 862.109L1171.2 865.805ZM1230.7 780.131L1228.89 785.85L1233.1 787.186L1235.63 783.553L1230.7 780.131ZM1230.9 779.846L1234.32 774.917L1229.39 771.495L1225.97 776.423L1230.9 779.846ZM1231.86 780.512L1228.43 785.44L1229.12 785.917L1229.91 786.188L1231.86 780.512ZM1255.53 796.955L1250.89 800.76L1251.42 801.406L1252.11 801.883L1255.53 796.955ZM1315.57 838.648L1320.5 842.07L1323.92 837.142L1318.99 833.719L1315.57 838.648ZM1313.84 841.144L1308.91 837.722L1305.62 842.46L1310.23 845.934L1313.84 841.144ZM941.957 1004.09C914.432 984.98 876.507 992.293 857.193 1020.11L867.049 1026.95C882.702 1004.41 913.2 998.735 935.113 1013.95L941.957 1004.09ZM972.22 1004.22C969.802 1007.7 965.29 1009.64 959.22 1009.57C953.175 1009.49 946.665 1007.36 941.957 1004.09L935.113 1013.95C941.791 1018.59 950.634 1021.46 959.072 1021.57C967.486 1021.67 976.587 1018.97 982.076 1011.06L972.22 1004.22ZM990.29 978.197L972.22 1004.22L982.076 1011.06L1000.15 985.042L990.29 978.197ZM979.603 949.884C984.311 953.153 988.579 958.51 990.761 964.148C992.951 969.809 992.708 974.715 990.29 978.197L1000.15 985.042C1005.64 977.138 1004.99 967.665 1001.95 959.818C998.907 951.948 993.126 944.665 986.448 940.028L979.603 949.884ZM964.996 864.866C945.682 892.679 952.077 930.77 979.603 949.884L986.448 940.028C964.535 924.811 959.2 894.251 974.853 871.711L964.996 864.866ZM1049.76 848.855C1022.24 829.74 984.31 837.053 964.996 864.866L974.853 871.711C990.505 849.17 1021 843.495 1042.92 858.711L1049.76 848.855ZM1064.37 933.873C1083.68 906.06 1077.29 867.97 1049.76 848.855L1042.92 858.711C1064.83 873.928 1070.16 904.488 1054.51 927.028L1064.37 933.873ZM1063.82 969.407C1059.85 966.649 1057.69 961.267 1057.9 954.014C1058.11 946.846 1060.67 939.2 1064.37 933.873L1054.51 927.028C1049.45 934.319 1046.18 944.234 1045.9 953.664C1045.63 963.008 1048.33 973.26 1056.97 979.264L1063.82 969.407ZM1096.69 992.234L1063.82 969.407L1056.97 979.264L1089.85 1002.09L1096.69 992.234ZM1140.09 984.408C1130.26 998.553 1110.83 1002.06 1096.69 992.234L1089.85 1002.09C1109.43 1015.69 1136.34 1010.84 1149.94 991.253L1140.09 984.408ZM1190.85 911.306L1140.09 984.408L1149.94 991.253L1200.71 918.151L1190.85 911.306ZM1179.24 881.549C1184.11 884.932 1188.68 890.593 1191.09 896.571C1193.51 902.606 1193.32 907.755 1190.85 911.306L1200.71 918.151C1206.36 910.005 1205.46 900.162 1202.22 892.097C1198.96 883.976 1192.91 876.432 1186.09 871.692L1179.24 881.549ZM1167.33 870.562C1170.7 874.672 1174.68 878.381 1179.24 881.549L1186.09 871.692C1182.44 869.164 1179.28 866.214 1176.6 862.952L1167.33 870.562ZM1175.39 861.828L1174.43 861.162L1167.58 871.018L1168.54 871.685L1175.39 861.828ZM1175.93 869.512L1176.13 869.228L1166.28 862.383L1166.08 862.668L1175.93 869.512ZM1164.87 797.912C1149.34 820.271 1150.71 849.336 1166.48 869.501L1175.93 862.109C1163.39 846.07 1162.21 822.776 1174.73 804.757L1164.87 797.912ZM1232.51 774.411C1208.11 766.68 1180.4 775.554 1164.87 797.912L1174.73 804.757C1187.24 786.738 1209.48 779.701 1228.89 785.85L1232.51 774.411ZM1235.63 783.553L1235.82 783.268L1225.97 776.423L1225.77 776.708L1235.63 783.553ZM1227.47 784.774L1228.43 785.44L1235.28 775.584L1234.32 774.917L1227.47 784.774ZM1248.26 782.162C1243.7 778.994 1238.83 776.559 1233.8 774.836L1229.91 786.188C1233.9 787.556 1237.77 789.49 1241.41 792.019L1248.26 782.162ZM1260.17 793.15C1256.8 789.039 1252.82 785.331 1248.26 782.162L1241.41 792.019C1245.05 794.547 1248.22 797.498 1250.89 800.76L1260.17 793.15ZM1252.11 801.883L1312.15 843.576L1318.99 833.719L1258.96 792.026L1252.11 801.883ZM1310.64 835.225L1308.91 837.722L1318.77 844.566L1320.5 842.07L1310.64 835.225ZM1329.7 912.981C1346.91 888.193 1341.34 854.371 1317.45 836.354L1310.23 845.934C1328.98 860.085 1333.36 886.662 1319.84 906.137L1329.7 912.981ZM1180.25 1128.18L1329.7 912.981L1319.84 906.137L1170.4 1121.34L1180.25 1128.18ZM1102.32 1142.24C1127.72 1159.88 1162.61 1153.59 1180.25 1128.18L1170.4 1121.34C1156.54 1141.3 1129.12 1146.24 1109.16 1132.38L1102.32 1142.24ZM1059.25 1112.33L1102.32 1142.24L1109.16 1132.38L1066.1 1102.48L1059.25 1112.33ZM1066.91 1110.95C1065.18 1113.45 1061.75 1114.07 1059.25 1112.33L1066.1 1102.48C1063.15 1100.43 1059.1 1101.16 1057.05 1104.11L1066.91 1110.95ZM1057.86 1112.58C1060.81 1114.63 1064.86 1113.9 1066.91 1110.95L1057.05 1104.11C1058.78 1101.61 1062.21 1101 1064.71 1102.73L1057.86 1112.58ZM997.813 1070.88L1057.86 1112.58L1064.71 1102.73L1004.66 1061.03L997.813 1070.88ZM956.564 1089.11C960.582 1083.33 968.667 1076.66 977.399 1072.61C986.512 1068.38 993.794 1068.09 997.813 1070.88L1004.66 1061.03C995.048 1054.35 982.262 1057.12 972.349 1061.72C962.054 1066.5 952.154 1074.43 946.708 1082.27L956.564 1089.11ZM871.8 1105.12C899.325 1124.24 937.25 1116.93 956.564 1089.11L946.708 1082.27C931.055 1104.81 900.556 1110.48 878.644 1095.27L871.8 1105.12ZM857.193 1020.11C837.879 1047.92 844.274 1086.01 871.8 1105.12L878.644 1095.27C856.732 1080.05 851.396 1049.49 867.049 1026.95L857.193 1020.11Z" fill="#FDD05C" mask="url(#path-18-inside-9_222_1172)"/>
</g>
<g filter="url(#filter9_f_222_1172)">
<mask id="path-20-inside-10_222_1172" fill="white">
<path fill-rule="evenodd" clip-rule="evenodd" d="M141 738C141 710.386 163.386 688 191 688H306.244C333.858 688 356.244 710.386 356.244 738V742.335C356.244 769.33 378.127 791.213 405.122 791.213C432.117 791.213 454 813.097 454 840.091V844.426C454 872.041 431.614 894.426 404 894.426H288.756C261.142 894.426 238.756 872.041 238.756 844.426V840.091C238.756 813.097 216.873 791.213 189.878 791.213C162.884 791.213 141 769.33 141 742.335V738Z"/>
</mask>
<path d="M306.244 694H191V682H306.244V694ZM350.244 742.335V738H362.244V742.335H350.244ZM448 844.426V840.091H460V844.426H448ZM288.756 888.426H404V900.426H288.756V888.426ZM244.756 840.091V844.426H232.756V840.091H244.756ZM147 738V742.335H135V738H147ZM189.878 797.213C159.57 797.213 135 772.643 135 742.335H147C147 766.016 166.197 785.213 189.878 785.213V797.213ZM232.756 840.091C232.756 816.41 213.559 797.213 189.878 797.213V785.213C220.187 785.213 244.756 809.783 244.756 840.091H232.756ZM288.756 900.426C257.829 900.426 232.756 875.354 232.756 844.426H244.756C244.756 868.727 264.456 888.426 288.756 888.426V900.426ZM460 844.426C460 875.354 434.928 900.426 404 900.426V888.426C428.301 888.426 448 868.727 448 844.426H460ZM405.122 785.213C435.43 785.213 460 809.783 460 840.091H448C448 816.41 428.803 797.213 405.122 797.213V785.213ZM362.244 742.335C362.244 766.016 381.441 785.213 405.122 785.213V797.213C374.814 797.213 350.244 772.643 350.244 742.335H362.244ZM191 694C166.7 694 147 713.699 147 738H135C135 707.072 160.072 682 191 682V694ZM306.244 682C337.172 682 362.244 707.072 362.244 738H350.244C350.244 713.699 330.544 694 306.244 694V682Z" fill="#417336" mask="url(#path-20-inside-10_222_1172)"/>
</g>
<g filter="url(#filter10_f_222_1172)">
<mask id="path-22-inside-11_222_1172" fill="white">
<path fill-rule="evenodd" clip-rule="evenodd" d="M132 738C132 710.386 154.386 688 182 688H297.244C324.858 688 347.244 710.386 347.244 738V742.335C347.244 769.33 369.127 791.213 396.122 791.213C423.117 791.213 445 813.097 445 840.091V844.426C445 872.041 422.614 894.426 395 894.426H279.756C252.142 894.426 229.756 872.041 229.756 844.426V840.091C229.756 813.097 207.873 791.213 180.878 791.213C153.884 791.213 132 769.33 132 742.335V738Z"/>
</mask>
<path d="M297.244 694H182V682H297.244V694ZM341.244 742.335V738H353.244V742.335H341.244ZM439 844.426V840.091H451V844.426H439ZM279.756 888.426H395V900.426H279.756V888.426ZM235.756 840.091V844.426H223.756V840.091H235.756ZM138 738V742.335H126V738H138ZM180.878 797.213C150.57 797.213 126 772.643 126 742.335H138C138 766.016 157.197 785.213 180.878 785.213V797.213ZM223.756 840.091C223.756 816.41 204.559 797.213 180.878 797.213V785.213C211.187 785.213 235.756 809.783 235.756 840.091H223.756ZM279.756 900.426C248.829 900.426 223.756 875.354 223.756 844.426H235.756C235.756 868.727 255.456 888.426 279.756 888.426V900.426ZM451 844.426C451 875.354 425.928 900.426 395 900.426V888.426C419.301 888.426 439 868.727 439 844.426H451ZM396.122 785.213C426.43 785.213 451 809.783 451 840.091H439C439 816.41 419.803 797.213 396.122 797.213V785.213ZM353.244 742.335C353.244 766.016 372.441 785.213 396.122 785.213V797.213C365.814 797.213 341.244 772.643 341.244 742.335H353.244ZM182 694C157.7 694 138 713.699 138 738H126C126 707.072 151.072 682 182 682V694ZM297.244 682C328.172 682 353.244 707.072 353.244 738H341.244C341.244 713.699 321.544 694 297.244 694V682Z" fill="#417336" mask="url(#path-22-inside-11_222_1172)"/>
</g>
<g filter="url(#filter11_f_222_1172)">
<mask id="path-24-inside-12_222_1172" fill="white">
<path fill-rule="evenodd" clip-rule="evenodd" d="M135 738C135 710.386 157.386 688 185 688H300.244C327.858 688 350.244 710.386 350.244 738V742.335C350.244 769.33 372.127 791.213 399.122 791.213C426.117 791.213 448 813.097 448 840.091V844.426C448 872.041 425.614 894.426 398 894.426H282.756C255.142 894.426 232.756 872.041 232.756 844.426V840.091C232.756 813.097 210.873 791.213 183.878 791.213C156.884 791.213 135 769.33 135 742.335V738Z"/>
</mask>
<path d="M300.244 693H185V683H300.244V693ZM345.244 742.335V738H355.244V742.335H345.244ZM443 844.426V840.091H453V844.426H443ZM282.756 889.426H398V899.426H282.756V889.426ZM237.756 840.091V844.426H227.756V840.091H237.756ZM140 738V742.335H130V738H140ZM183.878 796.213C154.122 796.213 130 772.091 130 742.335H140C140 766.568 159.645 786.213 183.878 786.213V796.213ZM227.756 840.091C227.756 815.858 208.112 796.213 183.878 796.213V786.213C213.634 786.213 237.756 810.335 237.756 840.091H227.756ZM282.756 899.426C252.381 899.426 227.756 874.802 227.756 844.426H237.756C237.756 869.279 257.904 889.426 282.756 889.426V899.426ZM453 844.426C453 874.802 428.376 899.426 398 899.426V889.426C422.853 889.426 443 869.279 443 844.426H453ZM399.122 786.213C428.878 786.213 453 810.335 453 840.091H443C443 815.858 423.355 796.213 399.122 796.213V786.213ZM355.244 742.335C355.244 766.568 374.889 786.213 399.122 786.213V796.213C369.366 796.213 345.244 772.091 345.244 742.335H355.244ZM185 693C160.147 693 140 713.147 140 738H130C130 707.624 154.625 683 185 683V693ZM300.244 683C330.619 683 355.244 707.624 355.244 738H345.244C345.244 713.147 325.097 693 300.244 693V683Z" fill="#417336" mask="url(#path-24-inside-12_222_1172)"/>
</g>
<g filter="url(#filter12_f_222_1172)">
<mask id="path-26-inside-13_222_1172" fill="white">
<path fill-rule="evenodd" clip-rule="evenodd" d="M135 738C135 710.386 157.386 688 185 688H300.244C327.858 688 350.244 710.386 350.244 738V742.335C350.244 769.33 372.127 791.213 399.122 791.213C426.117 791.213 448 813.097 448 840.091V844.426C448 872.041 425.614 894.426 398 894.426H282.756C255.142 894.426 232.756 872.041 232.756 844.426V840.091C232.756 813.097 210.873 791.213 183.878 791.213C156.884 791.213 135 769.33 135 742.335V738Z"/>
</mask>
<path d="M300.244 693H185V683H300.244V693ZM345.244 742.335V738H355.244V742.335H345.244ZM443 844.426V840.091H453V844.426H443ZM282.756 889.426H398V899.426H282.756V889.426ZM237.756 840.091V844.426H227.756V840.091H237.756ZM140 738V742.335H130V738H140ZM183.878 796.213C154.122 796.213 130 772.091 130 742.335H140C140 766.568 159.645 786.213 183.878 786.213V796.213ZM227.756 840.091C227.756 815.858 208.112 796.213 183.878 796.213V786.213C213.634 786.213 237.756 810.335 237.756 840.091H227.756ZM282.756 899.426C252.381 899.426 227.756 874.802 227.756 844.426H237.756C237.756 869.279 257.904 889.426 282.756 889.426V899.426ZM453 844.426C453 874.802 428.376 899.426 398 899.426V889.426C422.853 889.426 443 869.279 443 844.426H453ZM399.122 786.213C428.878 786.213 453 810.335 453 840.091H443C443 815.858 423.355 796.213 399.122 796.213V786.213ZM355.244 742.335C355.244 766.568 374.889 786.213 399.122 786.213V796.213C369.366 796.213 345.244 772.091 345.244 742.335H355.244ZM185 693C160.147 693 140 713.147 140 738H130C130 707.624 154.625 683 185 683V693ZM300.244 683C330.619 683 355.244 707.624 355.244 738H345.244C345.244 713.147 325.097 693 300.244 693V683Z" fill="#417336" mask="url(#path-26-inside-13_222_1172)"/>
</g>
<g filter="url(#filter13_df_222_1172)">
<rect x="258" y="248" width="948" height="550.043" rx="48.9164" fill="url(#paint0_linear_222_1172)" fill-opacity="0.95" shape-rendering="crispEdges"/>
</g>
</g>
<defs>
<filter id="filter0_f_222_1172" x="-206.416" y="161.427" width="591.811" height="283.893" filterUnits="userSpaceOnUse" color-interpolation-filters="sRGB">
<feFlood flood-opacity="0" result="BackgroundImageFix"/>
<feBlend mode="normal" in="SourceGraphic" in2="BackgroundImageFix" result="shape"/>
<feGaussianBlur stdDeviation="5.208" result="effect1_foregroundBlur_222_1172"/>
</filter>
<filter id="filter1_f_222_1172" x="-206.385" y="154.584" width="591.811" height="283.893" filterUnits="userSpaceOnUse" color-interpolation-filters="sRGB">
<feFlood flood-opacity="0" result="BackgroundImageFix"/>
<feBlend mode="normal" in="SourceGraphic" in2="BackgroundImageFix" result="shape"/>
<feGaussianBlur stdDeviation="5.208" result="effect1_foregroundBlur_222_1172"/>
</filter>
<filter id="filter2_f_222_1172" x="-199.02" y="164.24" width="577.061" height="269.143" filterUnits="userSpaceOnUse" color-interpolation-filters="sRGB">
<feFlood flood-opacity="0" result="BackgroundImageFix"/>
<feBlend mode="normal" in="SourceGraphic" in2="BackgroundImageFix" result="shape"/>
<feGaussianBlur stdDeviation="1.52058" result="effect1_foregroundBlur_222_1172"/>
</filter>
<filter id="filter3_f_222_1172" x="1084.83" y="76.838" width="436.232" height="451.324" filterUnits="userSpaceOnUse" color-interpolation-filters="sRGB">
<feFlood flood-opacity="0" result="BackgroundImageFix"/>
<feBlend mode="normal" in="SourceGraphic" in2="BackgroundImageFix" result="shape"/>
<feGaussianBlur stdDeviation="6.08098" result="effect1_foregroundBlur_222_1172"/>
</filter>
<filter id="filter4_f_222_1172" x="1076.84" y="76.838" width="436.233" height="451.324" filterUnits="userSpaceOnUse" color-interpolation-filters="sRGB">
<feFlood flood-opacity="0" result="BackgroundImageFix"/>
<feBlend mode="normal" in="SourceGraphic" in2="BackgroundImageFix" result="shape"/>
<feGaussianBlur stdDeviation="6.08098" result="effect1_foregroundBlur_222_1172"/>
</filter>
<filter id="filter5_f_222_1172" x="1088.11" y="85.4491" width="419.011" height="434.102" filterUnits="userSpaceOnUse" color-interpolation-filters="sRGB">
<feFlood flood-opacity="0" result="BackgroundImageFix"/>
<feBlend mode="normal" in="SourceGraphic" in2="BackgroundImageFix" result="shape"/>
<feGaussianBlur stdDeviation="1.77547" result="effect1_foregroundBlur_222_1172"/>
</filter>
<filter id="filter6_f_222_1172" x="843.281" y="766.252" width="507.34" height="397.114" filterUnits="userSpaceOnUse" color-interpolation-filters="sRGB">
<feFlood flood-opacity="0" result="BackgroundImageFix"/>
<feBlend mode="normal" in="SourceGraphic" in2="BackgroundImageFix" result="shape"/>
<feGaussianBlur stdDeviation="6.85" result="effect1_foregroundBlur_222_1172"/>
</filter>
<filter id="filter7_f_222_1172" x="835.888" y="762.83" width="508.481" height="395.403" filterUnits="userSpaceOnUse" color-interpolation-filters="sRGB">
<feFlood flood-opacity="0" result="BackgroundImageFix"/>
<feBlend mode="normal" in="SourceGraphic" in2="BackgroundImageFix" result="shape"/>
<feGaussianBlur stdDeviation="6.85" result="effect1_foregroundBlur_222_1172"/>
</filter>
<filter id="filter8_f_222_1172" x="848.053" y="773.671" width="489.651" height="376.574" filterUnits="userSpaceOnUse" color-interpolation-filters="sRGB">
<feFlood flood-opacity="0" result="BackgroundImageFix"/>
<feBlend mode="normal" in="SourceGraphic" in2="BackgroundImageFix" result="shape"/>
<feGaussianBlur stdDeviation="2" result="effect1_foregroundBlur_222_1172"/>
</filter>
<filter id="filter9_f_222_1172" x="127.3" y="674.3" width="340.4" height="233.826" filterUnits="userSpaceOnUse" color-interpolation-filters="sRGB">
<feFlood flood-opacity="0" result="BackgroundImageFix"/>
<feBlend mode="normal" in="SourceGraphic" in2="BackgroundImageFix" result="shape"/>
<feGaussianBlur stdDeviation="6.85" result="effect1_foregroundBlur_222_1172"/>
</filter>
<filter id="filter10_f_222_1172" x="118.3" y="674.3" width="340.4" height="233.826" filterUnits="userSpaceOnUse" color-interpolation-filters="sRGB">
<feFlood flood-opacity="0" result="BackgroundImageFix"/>
<feBlend mode="normal" in="SourceGraphic" in2="BackgroundImageFix" result="shape"/>
<feGaussianBlur stdDeviation="6.85" result="effect1_foregroundBlur_222_1172"/>
</filter>
<filter id="filter11_f_222_1172" x="131" y="684" width="321" height="214.426" filterUnits="userSpaceOnUse" color-interpolation-filters="sRGB">
<feFlood flood-opacity="0" result="BackgroundImageFix"/>
<feBlend mode="normal" in="SourceGraphic" in2="BackgroundImageFix" result="shape"/>
<feGaussianBlur stdDeviation="2" result="effect1_foregroundBlur_222_1172"/>
</filter>
<filter id="filter12_f_222_1172" x="131" y="684" width="321" height="214.426" filterUnits="userSpaceOnUse" color-interpolation-filters="sRGB">
<feFlood flood-opacity="0" result="BackgroundImageFix"/>
<feBlend mode="normal" in="SourceGraphic" in2="BackgroundImageFix" result="shape"/>
<feGaussianBlur stdDeviation="2" result="effect1_foregroundBlur_222_1172"/>
</filter>
<filter id="filter13_df_222_1172" x="78.6724" y="68.6724" width="1306.66" height="908.698" filterUnits="userSpaceOnUse" color-interpolation-filters="sRGB">
<feFlood flood-opacity="0" result="BackgroundImageFix"/>
<feColorMatrix in="SourceAlpha" type="matrix" values="0 0 0 0 0 0 0 0 0 0 0 0 0 0 0 0 0 0 127 0" result="hardAlpha"/>
<feOffset dy="3.91331"/>
<feGaussianBlur stdDeviation="1.95666"/>
<feComposite in2="hardAlpha" operator="out"/>
<feColorMatrix type="matrix" values="0 0 0 0 0 0 0 0 0 0 0 0 0 0 0 0 0 0 0.25 0"/>
<feBlend mode="normal" in2="BackgroundImageFix" result="effect1_dropShadow_222_1172"/>
<feBlend mode="normal" in="SourceGraphic" in2="effect1_dropShadow_222_1172" result="shape"/>
<feGaussianBlur stdDeviation="89.6638" result="effect2_foregroundBlur_222_1172"/>
</filter>
<linearGradient id="paint0_linear_222_1172" x1="732" y1="248" x2="732" y2="798.043" gradientUnits="userSpaceOnUse">
<stop stop-color="#7A9BF2"/>
<stop offset="0.515" stop-color="#8A2BF2"/>
<stop offset="1" stop-color="#E4BB91"/>
</linearGradient>
<clipPath id="clip0_222_1172">
<rect width="1440" height="1024" rx="20" fill="white"/>
</clipPath>
</defs>
</svg>
