<svg width="1920" height="1080" viewBox="0 0 1920 1080" fill="none" xmlns="http://www.w3.org/2000/svg">
<g clip-path="url(#clip0_743_1166)">
<rect width="1920" height="1080" rx="20" fill="#F4F2EE"/>
<g filter="url(#filter0_d_743_1166)">
<rect x="1920" y="1080" width="1932" height="1080" transform="rotate(180 1920 1080)" fill="url(#paint0_linear_743_1166)" fill-opacity="0.2" shape-rendering="crispEdges"/>
</g>
<g filter="url(#filter1_f_743_1166)">
<circle cx="934" cy="630" r="393" fill="#8A2BF2" fill-opacity="0.7"/>
</g>
<g filter="url(#filter2_f_743_1166)">
<circle cx="925.5" cy="1184.5" r="257.5" fill="#5071F4" fill-opacity="0.92"/>
</g>
<g filter="url(#filter3_f_743_1166)">
<mask id="path-5-inside-1_743_1166" fill="white">
<path fill-rule="evenodd" clip-rule="evenodd" d="M253.292 299.767C253.292 299.79 253.31 299.809 253.333 299.81C271.914 301.138 286.598 317.572 286.598 337.65C286.598 358.596 270.616 375.576 250.901 375.576C236.721 375.576 224.471 366.791 218.711 354.064C217.031 350.351 213.573 347.53 209.498 347.53H159.764C154.847 347.53 150.86 351.516 150.86 356.433L150.86 433.127C150.86 439.593 157.756 444.027 164.22 443.916C164.415 443.912 164.612 443.911 164.808 443.911C184.523 443.911 200.505 460.891 200.505 481.836C200.505 502.782 184.523 519.762 164.808 519.762C145.093 519.762 129.111 502.782 129.111 481.836C129.111 479.79 129.263 477.781 129.557 475.823C130.595 468.9 125.987 460.824 118.987 460.824L-98.1776 460.824C-118.9 460.824 -135.699 444.025 -135.699 423.303V416.027C-135.699 411.11 -139.685 407.124 -144.602 407.124H-182.097C-187.014 407.124 -191 403.138 -191 398.22L-191 308.627C-191 303.71 -187.014 299.724 -182.097 299.724L79.9147 299.724C79.9147 299.724 79.9148 299.724 79.9148 299.724C79.9148 299.724 79.9148 299.724 79.9149 299.724H139.548C139.549 299.724 139.549 299.724 139.549 299.724C139.549 299.724 139.549 299.724 139.549 299.724L250.901 299.724L253.249 299.724C253.273 299.724 253.292 299.743 253.292 299.767Z"/>
</mask>
<path d="M250.901 299.724L250.901 303.54H250.901V299.724ZM253.249 299.724L253.249 303.54L253.249 299.724ZM139.549 299.724V295.908V299.724ZM218.711 354.064L222.188 352.491L218.711 354.064ZM129.557 475.823L133.331 476.388L129.557 475.823ZM164.22 443.916L164.154 440.1L164.22 443.916ZM253.333 299.81L253.061 303.616L253.333 299.81ZM253.605 296.004C274.361 297.488 290.414 315.754 290.414 337.65H282.783C282.783 319.39 269.467 304.789 253.061 303.616L253.605 296.004ZM290.414 337.65C290.414 360.482 272.938 379.391 250.901 379.391V371.76C268.294 371.76 282.783 356.709 282.783 337.65H290.414ZM250.901 379.391C235.071 379.391 221.548 369.586 215.235 355.637L222.188 352.491C227.394 363.996 238.37 371.76 250.901 371.76V379.391ZM159.764 343.714H209.498V351.346H159.764V343.714ZM147.045 433.127L147.045 356.433H154.676L154.676 433.127H147.045ZM164.808 447.726C164.633 447.726 164.459 447.728 164.285 447.731L164.154 440.1C164.372 440.097 164.59 440.095 164.808 440.095V447.726ZM196.689 481.836C196.689 462.777 182.201 447.726 164.808 447.726V440.095C186.845 440.095 204.321 459.004 204.321 481.836H196.689ZM164.808 515.947C182.201 515.947 196.689 500.896 196.689 481.836H204.321C204.321 504.669 186.845 523.578 164.808 523.578V515.947ZM132.926 481.836C132.926 500.896 147.415 515.947 164.808 515.947V523.578C142.771 523.578 125.295 504.669 125.295 481.836H132.926ZM133.331 476.388C133.065 478.16 132.926 479.98 132.926 481.836H125.295C125.295 479.6 125.462 477.402 125.784 475.257L133.331 476.388ZM-98.1776 457.008L118.987 457.008V464.639L-98.1776 464.639V457.008ZM-131.883 423.303C-131.883 441.918 -116.793 457.008 -98.1776 457.008V464.639C-121.007 464.639 -139.514 446.132 -139.514 423.303H-131.883ZM-131.883 416.027V423.303H-139.514V416.027H-131.883ZM-182.097 403.308H-144.602V410.939H-182.097V403.308ZM-187.184 308.627L-187.184 398.22H-194.816L-194.816 308.627H-187.184ZM79.9147 303.54L-182.097 303.54V295.908L79.9147 295.908V303.54ZM139.548 303.54H79.9149V295.908H139.548V303.54ZM250.901 303.54L139.549 303.54V295.908L250.901 295.908V303.54ZM253.249 303.54L250.901 303.54L250.901 295.908L253.249 295.908L253.249 303.54ZM253.249 295.908C255.38 295.908 257.108 297.636 257.108 299.767H249.477C249.477 301.851 251.166 303.54 253.249 303.54L253.249 295.908ZM135.733 299.724C135.733 297.598 137.46 295.908 139.549 295.908V303.54C141.637 303.54 143.364 301.85 143.364 299.724H135.733ZM139.548 295.908C137.441 295.908 135.733 297.617 135.733 299.724H143.364C143.364 301.831 141.656 303.54 139.548 303.54V295.908ZM83.7305 299.724C83.7305 297.6 82.0051 295.908 79.9149 295.908V303.54C77.8246 303.54 76.0991 301.848 76.0991 299.724H83.7305ZM-139.514 416.027C-139.514 413.217 -141.792 410.939 -144.602 410.939V403.308C-137.577 403.308 -131.883 409.002 -131.883 416.027H-139.514ZM-194.816 308.627C-194.816 301.603 -189.121 295.908 -182.097 295.908V303.54C-184.906 303.54 -187.184 305.817 -187.184 308.627H-194.816ZM159.764 351.346C156.954 351.346 154.676 353.623 154.676 356.433H147.045C147.045 349.409 152.739 343.714 159.764 343.714V351.346ZM-182.097 410.939C-189.121 410.939 -194.816 405.245 -194.816 398.22H-187.184C-187.184 401.03 -184.906 403.308 -182.097 403.308V410.939ZM215.235 355.637C214.008 352.925 211.712 351.346 209.498 351.346V343.714C215.435 343.714 220.055 347.777 222.188 352.491L215.235 355.637ZM125.784 475.257C126.157 472.768 125.504 469.96 124.099 467.824C122.709 465.712 120.881 464.639 118.987 464.639V457.008C124.094 457.008 128.069 459.974 130.474 463.63C132.864 467.262 133.995 471.954 133.331 476.388L125.784 475.257ZM79.9147 295.908C82.0221 295.908 83.7305 297.616 83.7305 299.724H76.0991C76.0991 301.831 77.8074 303.54 79.9147 303.54V295.908ZM154.676 433.127C154.676 434.885 155.592 436.572 157.408 437.937C159.253 439.323 161.761 440.142 164.154 440.1L164.285 447.731C160.215 447.801 156.043 446.457 152.824 444.038C149.577 441.598 147.045 437.835 147.045 433.127H154.676ZM253.061 303.616C251.065 303.474 249.477 301.815 249.477 299.767H257.108C257.108 297.765 255.556 296.144 253.605 296.004L253.061 303.616Z" fill="#F22828" mask="url(#path-5-inside-1_743_1166)"/>
</g>
<g filter="url(#filter4_f_743_1166)">
<mask id="path-7-inside-2_743_1166" fill="white">
<path fill-rule="evenodd" clip-rule="evenodd" d="M253.318 294.044C253.318 294.067 253.336 294.086 253.359 294.087C271.94 295.415 286.625 311.849 286.625 331.927C286.625 352.873 270.643 369.853 250.928 369.853C236.747 369.853 224.497 361.067 218.737 348.34C217.057 344.628 213.599 341.806 209.524 341.806H159.79C154.872 341.806 150.886 345.792 150.886 350.709L150.886 427.404C150.886 433.869 157.781 438.303 164.246 438.192C164.441 438.189 164.637 438.187 164.834 438.187C184.549 438.187 200.531 455.167 200.531 476.113C200.531 497.059 184.549 514.039 164.834 514.039C145.119 514.039 129.137 497.059 129.137 476.113C129.137 474.067 129.289 472.058 129.583 470.099C130.621 463.176 126.014 455.1 119.013 455.1L-98.1519 455.1C-118.874 455.1 -135.673 438.301 -135.673 417.579V410.303C-135.673 405.386 -139.659 401.4 -144.576 401.4H-182.071C-186.988 401.4 -190.974 397.414 -190.974 392.497L-190.974 302.904C-190.974 297.986 -186.988 294 -182.071 294H-135.673C-135.673 294 -135.673 294 -135.673 294C-135.673 294 -135.673 294 -135.673 294L150.886 294C150.886 294 150.886 294 150.886 294C150.886 294 150.886 294 150.886 294H253.275C253.299 294 253.318 294.02 253.318 294.044Z"/>
</mask>
<path d="M218.737 348.34L222.214 346.767L218.737 348.34ZM129.583 470.099L133.357 470.665L129.583 470.099ZM164.246 438.192L164.311 442.008L164.246 438.192ZM253.359 294.087L253.087 297.893L253.359 294.087ZM253.631 290.281C274.387 291.765 290.44 310.031 290.44 331.927H282.809C282.809 313.667 269.493 299.066 253.087 297.893L253.631 290.281ZM290.44 331.927C290.44 354.759 272.964 373.668 250.928 373.668V366.037C268.321 366.037 282.809 350.986 282.809 331.927H290.44ZM250.928 373.668C235.097 373.668 221.574 363.863 215.261 349.914L222.214 346.767C227.42 358.272 238.396 366.037 250.928 366.037V373.668ZM159.79 337.99H209.524V345.622H159.79V337.99ZM147.071 427.404L147.071 350.709H154.702L154.702 427.404H147.071ZM164.834 442.003C164.659 442.003 164.485 442.005 164.311 442.008L164.18 434.377C164.398 434.374 164.616 434.372 164.834 434.372V442.003ZM196.715 476.113C196.715 457.054 182.227 442.003 164.834 442.003V434.372C186.871 434.372 204.347 453.281 204.347 476.113H196.715ZM164.834 510.224C182.227 510.224 196.715 495.173 196.715 476.113H204.347C204.347 498.946 186.871 517.855 164.834 517.855V510.224ZM132.952 476.113C132.952 495.173 147.441 510.224 164.834 510.224V517.855C142.797 517.855 125.321 498.946 125.321 476.113H132.952ZM133.357 470.665C133.091 472.437 132.952 474.256 132.952 476.113H125.321C125.321 473.877 125.488 471.679 125.81 469.533L133.357 470.665ZM-98.1519 451.284L119.013 451.284V458.915L-98.1519 458.915V451.284ZM-131.857 417.579C-131.857 436.194 -116.767 451.284 -98.1519 451.284V458.915C-120.982 458.915 -139.489 440.408 -139.489 417.579H-131.857ZM-131.857 410.303V417.579H-139.489V410.303H-131.857ZM-182.071 397.584H-144.576V405.216H-182.071V397.584ZM-187.159 302.904L-187.159 392.497H-194.79L-194.79 302.904H-187.159ZM-135.673 297.816H-182.071V290.185H-135.673V297.816ZM150.886 297.816L-135.673 297.816V290.184L150.886 290.184V297.816ZM253.275 297.816H150.886V290.184H253.275V297.816ZM253.275 290.184C255.406 290.184 257.134 291.912 257.134 294.044H249.503C249.503 296.127 251.191 297.816 253.275 297.816V290.184ZM154.702 294C154.702 292.098 153.194 290.184 150.886 290.184V297.816C148.579 297.816 147.071 295.902 147.071 294H154.702ZM150.886 290.184C152.994 290.184 154.702 291.893 154.702 294H147.071C147.071 296.107 148.779 297.816 150.886 297.816V290.184ZM-139.489 294C-139.489 292.35 -138.21 290.184 -135.673 290.184V297.816C-134.57 297.816 -133.532 297.339 -132.814 296.527C-132.131 295.754 -131.857 294.825 -131.857 294H-139.489ZM-139.489 410.303C-139.489 407.494 -141.766 405.216 -144.576 405.216V397.584C-137.552 397.584 -131.857 403.279 -131.857 410.303H-139.489ZM-194.79 302.904C-194.79 295.879 -189.095 290.185 -182.071 290.185V297.816C-184.881 297.816 -187.159 300.094 -187.159 302.904H-194.79ZM159.79 345.622C156.98 345.622 154.702 347.9 154.702 350.709H147.071C147.071 343.685 152.765 337.99 159.79 337.99V345.622ZM-182.071 405.216C-189.095 405.216 -194.79 399.521 -194.79 392.497H-187.159C-187.159 395.307 -184.881 397.584 -182.071 397.584V405.216ZM215.261 349.914C214.034 347.201 211.738 345.622 209.524 345.622V337.99C215.461 337.99 220.081 342.054 222.214 346.767L215.261 349.914ZM125.81 469.533C126.183 467.044 125.53 464.237 124.125 462.1C122.735 459.988 120.907 458.915 119.013 458.915V451.284C124.12 451.284 128.095 454.25 130.501 457.906C132.89 461.539 134.022 466.231 133.357 470.665L125.81 469.533ZM-135.673 290.185C-137.78 290.185 -139.489 291.893 -139.489 294H-131.857C-131.857 296.108 -133.566 297.816 -135.673 297.816V290.185ZM154.702 427.404C154.702 429.162 155.618 430.849 157.434 432.214C159.278 433.6 161.786 434.418 164.18 434.377L164.311 442.008C160.241 442.077 156.069 440.734 152.849 438.315C149.602 435.874 147.071 432.112 147.071 427.404H154.702ZM253.087 297.893C251.091 297.751 249.503 296.092 249.503 294.044H257.134C257.134 292.042 255.582 290.421 253.631 290.281L253.087 297.893Z" fill="#F22828" mask="url(#path-7-inside-2_743_1166)"/>
</g>
<g filter="url(#filter5_f_743_1166)">
<mask id="path-9-inside-3_743_1166" fill="white">
<path fill-rule="evenodd" clip-rule="evenodd" d="M253.31 295.952C253.31 295.975 253.327 295.993 253.35 295.995C271.931 297.323 286.616 313.757 286.616 333.834C286.616 354.78 270.633 371.76 250.918 371.76C236.738 371.76 224.488 362.975 218.729 350.249C217.048 346.536 213.59 343.715 209.515 343.715H159.78C154.863 343.715 150.877 347.701 150.877 352.618L150.877 429.312C150.877 435.777 157.772 440.211 164.237 440.1C164.433 440.097 164.629 440.095 164.825 440.095C184.54 440.095 200.522 457.075 200.522 478.021C200.522 498.967 184.54 515.947 164.825 515.947C145.11 515.947 129.128 498.967 129.128 478.021C129.128 475.975 129.281 473.966 129.574 472.007C130.613 465.084 126.005 457.008 119.005 457.008L-98.1609 457.008C-118.883 457.008 -135.682 440.209 -135.682 419.487V412.212C-135.682 407.295 -139.668 403.308 -144.585 403.308H-182.079C-186.997 403.308 -190.983 399.322 -190.983 394.405L-190.983 304.812C-190.983 299.895 -186.997 295.908 -182.079 295.908L-135.682 295.908L150.877 295.908C150.877 295.908 150.877 295.908 150.877 295.908C150.877 295.908 150.877 295.908 150.877 295.908L250.918 295.909L253.266 295.908C253.29 295.908 253.31 295.928 253.31 295.952Z"/>
</mask>
<path d="M-135.682 295.908V292.729V295.908ZM250.918 295.909L250.918 299.088H250.918L250.918 295.909ZM253.266 295.908L253.266 299.088L253.266 295.908ZM150.877 295.908V292.729V295.908ZM-182.079 295.908V299.088V295.908ZM218.729 350.249L221.625 348.938L218.729 350.249ZM129.574 472.007L126.43 471.535L129.574 472.007ZM253.35 295.995L253.577 292.823L253.35 295.995ZM253.577 292.823C273.97 294.281 289.795 312.242 289.795 333.834H283.436C283.436 315.272 269.892 300.365 253.123 299.167L253.577 292.823ZM289.795 333.834C289.795 356.352 272.568 374.94 250.918 374.94V368.581C268.699 368.581 283.436 353.208 283.436 333.834H289.795ZM250.918 374.94C235.363 374.94 222.052 365.305 215.832 351.56L221.625 348.938C226.924 360.646 238.113 368.581 250.918 368.581V374.94ZM159.78 340.535H209.515V346.894H159.78V340.535ZM147.697 429.312L147.697 352.618H154.057L154.057 429.312H147.697ZM164.825 443.275C164.647 443.275 164.469 443.276 164.291 443.28L164.182 436.921C164.396 436.917 164.611 436.915 164.825 436.915V443.275ZM197.343 478.021C197.343 458.647 182.606 443.275 164.825 443.275V436.915C186.475 436.915 203.702 455.503 203.702 478.021H197.343ZM164.825 512.767C182.606 512.767 197.343 497.395 197.343 478.021H203.702C203.702 500.539 186.475 519.127 164.825 519.127V512.767ZM132.308 478.021C132.308 497.395 147.045 512.767 164.825 512.767V519.127C143.176 519.127 125.948 500.539 125.948 478.021H132.308ZM132.719 472.479C132.449 474.282 132.308 476.133 132.308 478.021H125.948C125.948 475.816 126.113 473.65 126.43 471.535L132.719 472.479ZM-98.1609 453.828L119.005 453.828V460.188L-98.1609 460.188V453.828ZM-132.502 419.487C-132.502 438.453 -117.127 453.828 -98.1609 453.828V460.188C-120.639 460.188 -138.862 441.965 -138.862 419.487H-132.502ZM-132.502 412.212V419.487H-138.862V412.212H-132.502ZM-182.079 400.129H-144.585V406.488H-182.079V400.129ZM-187.803 304.812L-187.803 394.405H-194.163L-194.163 304.812H-187.803ZM-135.682 299.088L-182.079 299.088L-182.08 292.729L-135.682 292.729V299.088ZM150.877 299.088L-135.682 299.088V292.729L150.877 292.729V299.088ZM250.918 299.088L150.877 299.088V292.729L250.918 292.729L250.918 299.088ZM253.266 299.088L250.918 299.088L250.918 292.729L253.266 292.729L253.266 299.088ZM253.266 292.729C255.046 292.729 256.489 294.172 256.489 295.952H250.13C250.13 297.684 251.534 299.088 253.266 299.088L253.266 292.729ZM154.057 295.908C154.057 294.087 152.567 292.729 150.877 292.729V299.088C149.187 299.088 147.697 297.73 147.697 295.908H154.057ZM150.877 292.729C152.633 292.729 154.057 294.152 154.057 295.908H147.697C147.697 297.665 149.121 299.088 150.877 299.088V292.729ZM-138.862 412.212C-138.862 409.051 -141.424 406.488 -144.585 406.488V400.129C-137.912 400.129 -132.502 405.538 -132.502 412.212H-138.862ZM-194.163 304.812C-194.163 298.139 -188.753 292.729 -182.08 292.729L-182.079 299.088C-185.241 299.088 -187.803 301.651 -187.803 304.812H-194.163ZM159.78 346.894C156.619 346.894 154.057 349.457 154.057 352.618H147.697C147.697 345.945 153.107 340.535 159.78 340.535V346.894ZM-182.079 406.488C-188.753 406.488 -194.163 401.078 -194.163 394.405H-187.803C-187.803 397.566 -185.241 400.129 -182.079 400.129V406.488ZM215.832 351.56C214.529 348.681 212.039 346.894 209.515 346.894V340.535C215.142 340.535 219.568 344.391 221.625 348.938L215.832 351.56ZM126.43 471.535C126.827 468.885 126.135 465.92 124.647 463.659C123.174 461.418 121.166 460.188 119.005 460.188V453.828C123.844 453.828 127.64 456.636 129.961 460.164C132.268 463.672 133.36 468.207 132.719 472.479L126.43 471.535ZM154.057 429.312C154.057 431.316 155.107 433.176 157.043 434.63C159.002 436.103 161.649 436.964 164.182 436.921L164.291 443.28C160.361 443.347 156.327 442.048 153.222 439.714C150.095 437.364 147.697 433.774 147.697 429.312H154.057ZM253.123 299.167C251.456 299.048 250.13 297.662 250.13 295.952H256.489C256.489 294.287 255.199 292.939 253.577 292.823L253.123 299.167Z" fill="#F22828" mask="url(#path-9-inside-3_743_1166)"/>
</g>
<g filter="url(#filter6_f_743_1166)">
<mask id="path-11-inside-4_743_1166" fill="white">
<path fill-rule="evenodd" clip-rule="evenodd" d="M1614.66 449.701C1629.29 428.641 1657.9 423.209 1678.58 437.567C1688.1 444.181 1704.26 445.935 1710.88 436.411L1725.99 414.645C1732.61 405.121 1725.32 390.592 1715.79 383.978C1695.12 369.62 1690.21 340.909 1704.84 319.849C1719.46 298.79 1748.08 293.358 1768.75 307.716C1789.43 322.075 1794.34 350.786 1779.71 371.845C1772.38 382.4 1769.96 401.223 1780.51 408.553L1808.01 427.646C1822.12 437.443 1841.49 433.949 1851.29 419.841L1893.3 359.344C1900.34 349.204 1891.55 332.906 1881.41 325.864C1861.11 311.765 1856.29 283.571 1870.65 262.891C1882.38 246.004 1903.26 239.35 1921.59 245.155L1922.71 243.542L1933.37 250.947C1933.38 250.956 1933.4 250.966 1933.41 250.976C1933.43 250.986 1933.44 250.996 1933.46 251.006L1993.54 292.727L1989.72 298.224C2008.69 311.399 2013.39 337.459 2000.22 356.431L1876.65 534.376C1863.47 553.348 1837.41 558.048 1818.44 544.873L1782.42 519.859C1782.23 519.727 1781.97 519.774 1781.84 519.964C1781.7 520.154 1781.44 520.201 1781.25 520.069L1731.03 485.189C1719.63 477.273 1697.45 490.297 1689.54 501.696C1674.91 522.755 1646.3 528.188 1625.62 513.829C1604.95 499.471 1600.04 470.76 1614.66 449.701Z"/>
</mask>
<path d="M1710.88 436.411L1706.76 433.549L1710.88 436.411ZM1725.99 414.645L1730.12 417.508L1725.99 414.645ZM1921.59 245.155L1920.07 249.939L1923.6 251.056L1925.71 248.017L1921.59 245.155ZM1922.71 243.542L1925.57 239.42L1921.45 236.557L1918.59 240.68L1922.71 243.542ZM1933.46 251.006L1936.32 246.884L1933.46 251.006ZM1993.54 292.727L1997.66 295.59L2000.52 291.468L1996.4 288.605L1993.54 292.727ZM1989.72 298.224L1985.6 295.361L1982.73 299.483L1986.86 302.346L1989.72 298.224ZM1818.44 544.873L1821.3 540.75L1818.44 544.873ZM1782.42 519.859L1779.56 523.981L1782.42 519.859ZM1681.44 433.445C1658.42 417.457 1626.7 423.574 1610.54 446.838L1618.79 452.563C1631.88 433.709 1657.39 428.962 1675.72 441.69L1681.44 433.445ZM1706.76 433.549C1704.73 436.461 1700.96 438.085 1695.88 438.023C1690.83 437.96 1685.38 436.18 1681.44 433.445L1675.72 441.69C1681.3 445.569 1688.7 447.972 1695.76 448.059C1702.8 448.146 1710.41 445.885 1715 439.274L1706.76 433.549ZM1721.87 411.783L1706.76 433.549L1715 439.274L1730.12 417.508L1721.87 411.783ZM1712.93 388.101C1716.87 390.835 1720.44 395.315 1722.26 400.031C1724.1 404.767 1723.89 408.87 1721.87 411.783L1730.12 417.508C1734.71 410.897 1734.17 402.973 1731.63 396.409C1729.08 389.826 1724.24 383.735 1718.66 379.856L1712.93 388.101ZM1700.71 316.987C1684.56 340.251 1689.91 372.112 1712.93 388.101L1718.66 379.856C1700.33 367.128 1695.87 341.566 1708.96 322.712L1700.71 316.987ZM1771.62 303.594C1748.59 287.606 1716.87 293.723 1700.71 316.987L1708.96 322.712C1722.05 303.858 1747.56 299.111 1765.89 311.839L1771.62 303.594ZM1783.83 374.708C1799.99 351.444 1794.64 319.583 1771.62 303.594L1765.89 311.839C1784.22 324.567 1788.68 350.128 1775.59 368.983L1783.83 374.708ZM1783.38 404.43C1780.05 402.123 1778.24 397.622 1778.42 391.555C1778.6 385.559 1780.74 379.163 1783.83 374.708L1775.59 368.983C1771.35 375.081 1768.62 383.375 1768.39 391.262C1768.16 399.078 1770.42 407.653 1777.65 412.675L1783.38 404.43ZM1810.87 423.524L1783.38 404.43L1777.65 412.675L1805.15 431.769L1810.87 423.524ZM1847.17 416.978C1838.95 428.809 1822.7 431.74 1810.87 423.524L1805.15 431.769C1821.53 443.147 1844.04 439.088 1855.41 422.703L1847.17 416.978ZM1889.18 356.482L1847.17 416.978L1855.41 422.703L1897.42 362.207L1889.18 356.482ZM1878.55 329.986C1882.8 332.943 1886.94 338.005 1889.16 343.368C1891.43 348.814 1891.32 353.406 1889.18 356.482L1897.42 362.207C1902.33 355.143 1901.34 346.516 1898.43 339.516C1895.49 332.435 1890.15 325.827 1884.27 321.742L1878.55 329.986ZM1866.53 260.028C1850.63 282.913 1855.9 314.257 1878.55 329.986L1884.27 321.742C1866.32 309.273 1861.94 284.228 1874.77 265.753L1866.53 260.028ZM1923.1 240.37C1902.69 233.904 1879.51 241.326 1866.53 260.028L1874.77 265.753C1885.24 250.682 1903.84 244.796 1920.07 249.939L1923.1 240.37ZM1925.71 248.017L1926.83 246.405L1918.59 240.68L1917.47 242.292L1925.71 248.017ZM1919.85 247.665L1930.51 255.069L1936.23 246.824L1925.57 239.42L1919.85 247.665ZM1936.28 246.854C1936.27 246.848 1936.26 246.841 1936.25 246.837C1936.24 246.831 1936.24 246.828 1936.23 246.824L1930.51 255.069C1930.52 255.075 1930.53 255.081 1930.53 255.086C1930.54 255.091 1930.55 255.095 1930.55 255.099L1936.28 246.854ZM1936.32 246.884C1936.31 246.88 1936.31 246.877 1936.3 246.872C1936.29 246.867 1936.29 246.861 1936.28 246.854L1930.55 255.099C1930.56 255.102 1930.56 255.106 1930.57 255.111C1930.58 255.116 1930.58 255.122 1930.59 255.129L1936.32 246.884ZM1930.59 255.129L1990.67 296.85L1996.4 288.605L1936.32 246.884L1930.59 255.129ZM1989.41 289.865L1985.6 295.361L1993.84 301.087L1997.66 295.59L1989.41 289.865ZM2004.34 359.294C2019.09 338.045 2013.83 308.857 1992.58 294.102L1986.86 302.346C2003.55 313.94 2007.69 336.873 1996.09 353.569L2004.34 359.294ZM1880.77 537.238L2004.34 359.294L1996.09 353.569L1872.52 531.513L1880.77 537.238ZM1815.58 548.995C1836.82 563.751 1866.01 558.487 1880.77 537.238L1872.52 531.513C1860.93 548.209 1838 552.344 1821.3 540.75L1815.58 548.995ZM1779.56 523.981L1815.58 548.995L1821.3 540.75L1785.28 515.737L1779.56 523.981ZM1785.96 522.827C1784.51 524.914 1781.64 525.431 1779.56 523.981L1785.28 515.737C1782.81 514.024 1779.43 514.635 1777.71 517.102L1785.96 522.827ZM1778.39 524.191C1780.86 525.904 1784.25 525.293 1785.96 522.827L1777.71 517.102C1779.16 515.015 1782.03 514.498 1784.12 515.947L1778.39 524.191ZM1728.16 489.311L1778.39 524.191L1784.12 515.947L1733.89 481.067L1728.16 489.311ZM1693.66 504.559C1697.02 499.719 1703.78 494.14 1711.09 490.752C1718.71 487.216 1724.8 486.977 1728.16 489.311L1733.89 481.067C1725.85 475.485 1715.16 477.8 1706.86 481.647C1698.25 485.641 1689.97 492.274 1685.42 498.834L1693.66 504.559ZM1622.76 517.952C1645.78 533.94 1677.51 527.823 1693.66 504.559L1685.42 498.834C1672.32 517.688 1646.81 522.435 1628.48 509.707L1622.76 517.952ZM1610.54 446.838C1594.39 470.102 1599.74 501.963 1622.76 517.952L1628.48 509.707C1610.16 496.979 1605.69 471.417 1618.79 452.563L1610.54 446.838Z" fill="#FDD05C" mask="url(#path-11-inside-4_743_1166)"/>
</g>
<g filter="url(#filter7_f_743_1166)">
<mask id="path-13-inside-5_743_1166" fill="white">
<path fill-rule="evenodd" clip-rule="evenodd" d="M1608.48 445.407C1623.1 424.347 1651.72 418.915 1672.4 433.273C1681.92 439.887 1698.08 441.641 1704.69 432.117L1719.81 410.352C1726.42 400.827 1719.13 386.298 1709.61 379.684C1688.93 365.326 1684.03 336.615 1698.65 315.556C1713.28 294.496 1741.89 289.064 1762.57 303.422C1783.25 317.781 1788.15 346.492 1773.53 367.551C1766.2 378.106 1763.77 396.93 1774.33 404.259L1801.82 423.352C1815.93 433.149 1835.31 429.655 1845.11 415.547L1887.81 354.059C1891.86 348.215 1890.63 340.43 1886.87 333.733L1866.05 319.27L1868.8 315.305C1855.94 300.137 1854.45 277.424 1866.53 260.028C1880.89 239.349 1908.99 234.014 1929.29 248.114C1936.32 252.996 1941.49 259.568 1944.66 266.933L1947.06 268.601C1947.18 268.52 1947.28 268.417 1947.37 268.291C1947.76 267.727 1948.53 267.587 1949.1 267.979L1984.49 292.556C2003.46 305.731 2008.16 331.791 1994.99 350.763L1870.46 530.082C1857.29 549.054 1831.23 553.754 1812.25 540.579L1776.23 515.566C1776.04 515.434 1775.78 515.481 1775.65 515.671C1775.52 515.86 1775.26 515.907 1775.07 515.776L1724.84 480.895C1713.44 472.979 1691.27 486.003 1683.35 497.402C1668.73 518.461 1640.11 523.894 1619.44 509.535C1598.76 495.177 1593.86 466.466 1608.48 445.407Z"/>
</mask>
<path d="M1774.33 404.259L1777.19 400.137L1774.33 404.259ZM1801.82 423.352L1798.96 427.475L1801.82 423.352ZM1886.87 333.733L1891.25 331.279L1890.69 330.27L1889.74 329.611L1886.87 333.733ZM1866.05 319.27L1861.92 316.407L1859.06 320.529L1863.18 323.392L1866.05 319.27ZM1868.8 315.305L1872.92 318.167L1875.12 315L1872.63 312.059L1868.8 315.305ZM1944.66 266.933L1940.05 268.913L1940.61 270.235L1941.8 271.055L1944.66 266.933ZM1947.06 268.601L1944.2 272.723L1947.09 274.731L1949.96 272.696L1947.06 268.601ZM1949.1 267.979L1946.23 272.101L1949.1 267.979ZM1984.49 292.556L1987.35 288.434L1984.49 292.556ZM1812.25 540.579L1815.12 536.456L1812.25 540.579ZM1776.23 515.566L1773.37 519.688L1776.23 515.566ZM1775.07 515.776L1772.21 519.898L1775.07 515.776ZM1724.84 480.895L1727.7 476.773L1724.84 480.895ZM1675.26 429.151C1652.24 413.163 1620.51 419.28 1604.36 442.544L1612.6 448.269C1625.69 429.415 1651.21 424.668 1669.53 437.396L1675.26 429.151ZM1700.57 429.255C1698.55 432.167 1694.78 433.791 1689.7 433.729C1684.64 433.666 1679.2 431.886 1675.26 429.151L1669.53 437.396C1675.12 441.275 1682.52 443.678 1689.57 443.765C1696.61 443.852 1704.23 441.591 1708.82 434.98L1700.57 429.255ZM1715.69 407.489L1700.57 429.255L1708.82 434.98L1723.93 413.214L1715.69 407.489ZM1706.75 383.807C1710.69 386.541 1714.26 391.021 1716.08 395.738C1717.91 400.473 1717.71 404.576 1715.69 407.489L1723.93 413.214C1728.52 406.603 1727.98 398.679 1725.44 392.116C1722.9 385.533 1718.06 379.441 1712.47 375.562L1706.75 383.807ZM1694.53 312.693C1678.37 335.957 1683.72 367.818 1706.75 383.807L1712.47 375.562C1694.14 362.834 1689.68 337.272 1702.77 318.418L1694.53 312.693ZM1765.43 299.3C1742.41 283.312 1710.69 289.429 1694.53 312.693L1702.77 318.418C1715.87 299.564 1741.38 294.817 1759.71 307.545L1765.43 299.3ZM1777.65 370.414C1793.81 347.15 1788.46 315.289 1765.43 299.3L1759.71 307.545C1778.04 320.273 1782.5 345.834 1769.41 364.689L1777.65 370.414ZM1777.19 400.137C1773.87 397.829 1772.06 393.328 1772.24 387.261C1772.41 381.265 1774.56 374.869 1777.65 370.414L1769.41 364.689C1765.17 370.787 1762.44 379.081 1762.21 386.968C1761.98 394.784 1764.23 403.359 1771.47 408.381L1777.19 400.137ZM1804.69 419.23L1777.19 400.137L1771.47 408.381L1798.96 427.475L1804.69 419.23ZM1840.99 412.684C1832.77 424.515 1816.52 427.446 1804.69 419.23L1798.96 427.475C1815.35 438.853 1837.85 434.794 1849.23 418.409L1840.99 412.684ZM1883.68 351.197L1840.99 412.684L1849.23 418.409L1891.93 356.922L1883.68 351.197ZM1882.5 336.188C1885.84 342.152 1886.14 347.657 1883.68 351.197L1891.93 356.922C1897.59 348.773 1895.42 338.707 1891.25 331.279L1882.5 336.188ZM1889.74 329.611L1868.91 315.147L1863.18 323.392L1884.01 337.856L1889.74 329.611ZM1870.17 322.132L1872.92 318.167L1864.68 312.442L1861.92 316.407L1870.17 322.132ZM1862.4 257.166C1849.03 276.43 1850.64 301.649 1864.97 318.551L1872.63 312.059C1861.23 298.625 1859.87 278.419 1870.65 262.891L1862.4 257.166ZM1932.15 243.992C1909.5 228.262 1878.3 234.281 1862.4 257.166L1870.65 262.891C1883.48 244.416 1908.47 239.767 1926.43 252.236L1932.15 243.992ZM1949.27 264.952C1945.75 256.753 1939.98 249.428 1932.15 243.992L1926.43 252.236C1932.66 256.564 1937.24 262.383 1940.05 268.913L1949.27 264.952ZM1941.8 271.055L1944.2 272.723L1949.92 264.479L1947.52 262.81L1941.8 271.055ZM1943.24 265.428C1943.49 265.076 1943.8 264.762 1944.16 264.505L1949.96 272.696C1950.55 272.278 1951.07 271.758 1951.49 271.154L1943.24 265.428ZM1951.96 263.857C1949.12 261.884 1945.22 262.588 1943.24 265.428L1951.49 271.154C1950.3 272.866 1947.95 273.29 1946.23 272.101L1951.96 263.857ZM1987.35 288.434L1951.96 263.857L1946.23 272.101L1981.63 296.678L1987.35 288.434ZM1999.11 353.626C2013.86 332.377 2008.6 303.189 1987.35 288.434L1981.63 296.678C1998.32 308.272 2002.46 331.205 1990.86 347.901L1999.11 353.626ZM1874.58 532.944L1999.11 353.626L1990.86 347.901L1866.34 527.219L1874.58 532.944ZM1809.39 544.701C1830.64 559.457 1859.83 554.193 1874.58 532.944L1866.34 527.219C1854.75 543.915 1831.81 548.05 1815.12 536.456L1809.39 544.701ZM1773.37 519.688L1809.39 544.701L1815.12 536.456L1779.1 511.443L1773.37 519.688ZM1779.77 518.533C1778.33 520.62 1775.46 521.137 1773.37 519.688L1779.1 511.443C1776.63 509.731 1773.24 510.342 1771.53 512.808L1779.77 518.533ZM1772.21 519.898C1774.67 521.611 1778.06 521 1779.77 518.533L1771.53 512.808C1772.98 510.721 1775.85 510.204 1777.93 511.653L1772.21 519.898ZM1721.98 485.018L1772.21 519.898L1777.93 511.653L1727.7 476.773L1721.98 485.018ZM1687.48 500.265C1690.84 495.425 1697.6 489.846 1704.9 486.458C1712.53 482.922 1718.62 482.683 1721.98 485.018L1727.7 476.773C1719.67 471.191 1708.97 473.506 1700.68 477.353C1692.07 481.347 1683.79 487.98 1679.23 494.54L1687.48 500.265ZM1616.58 513.658C1639.6 529.646 1671.32 523.529 1687.48 500.265L1679.23 494.54C1666.14 513.394 1640.63 518.141 1622.3 505.413L1616.58 513.658ZM1604.36 442.544C1588.2 465.808 1593.55 497.669 1616.58 513.658L1622.3 505.413C1603.97 492.685 1599.51 467.123 1612.6 448.269L1604.36 442.544Z" fill="#FDD05C" mask="url(#path-13-inside-5_743_1166)"/>
</g>
<g filter="url(#filter8_f_743_1166)">
<mask id="path-15-inside-6_743_1166" fill="white">
<path fill-rule="evenodd" clip-rule="evenodd" d="M1610.54 446.838C1625.17 425.779 1653.78 420.347 1674.46 434.705C1683.98 441.319 1700.14 443.073 1706.76 433.549L1721.87 411.783C1728.49 402.258 1721.2 387.729 1711.67 381.115C1691 366.757 1686.09 338.046 1700.71 316.986C1715.34 295.927 1743.95 290.495 1764.63 304.853C1785.31 319.211 1790.21 347.923 1775.59 368.982C1768.26 379.537 1765.84 398.361 1776.39 405.69L1803.89 424.784C1817.99 434.581 1837.37 431.086 1847.17 416.978L1889.63 355.831C1896.43 346.047 1888.45 330.75 1878.66 323.956C1875.23 321.573 1872.24 318.788 1869.71 315.705L1868.91 315.148L1869.08 314.909C1857.24 299.767 1856.17 277.869 1867.9 260.982C1879.63 244.095 1900.52 237.441 1918.84 243.246L1919.01 243.008L1919.81 243.565C1923.58 244.858 1927.23 246.685 1930.67 249.068C1934.1 251.451 1937.09 254.236 1939.61 257.319L1989.83 292.193L1988.38 294.281C2006.22 307.735 2010.38 332.996 1997.53 351.508L1872.52 531.513C1859.35 550.485 1833.29 555.185 1814.32 542.01L1778.3 516.997C1778.11 516.865 1777.85 516.912 1777.71 517.102C1777.58 517.291 1777.32 517.338 1777.13 517.207L1726.9 482.327C1715.51 474.411 1693.33 487.434 1685.42 498.834C1670.79 519.893 1642.18 525.325 1621.5 510.967C1600.82 496.609 1595.92 467.897 1610.54 446.838Z"/>
</mask>
<path d="M1776.39 405.69L1773.53 409.812L1776.39 405.69ZM1803.89 424.784L1806.75 420.661L1803.89 424.784ZM1847.17 416.978L1851.29 419.841L1847.17 416.978ZM1889.63 355.831L1885.51 352.969L1889.63 355.831ZM1869.71 315.705L1873.59 312.523L1873.15 311.982L1872.58 311.583L1869.71 315.705ZM1868.91 315.148L1864.79 312.285L1861.93 316.407L1866.05 319.27L1868.91 315.148ZM1869.08 314.909L1873.2 317.772L1875.31 314.733L1873.03 311.818L1869.08 314.909ZM1918.84 243.246L1917.32 248.031L1920.85 249.148L1922.96 246.109L1918.84 243.246ZM1919.01 243.008L1921.87 238.886L1917.75 236.023L1914.88 240.145L1919.01 243.008ZM1919.81 243.565L1916.95 247.687L1917.52 248.086L1918.18 248.313L1919.81 243.565ZM1939.61 257.319L1935.73 260.502L1936.18 261.042L1936.75 261.441L1939.61 257.319ZM1989.83 292.193L1993.96 295.056L1996.82 290.933L1992.7 288.071L1989.83 292.193ZM1988.38 294.281L1984.26 291.419L1981.51 295.382L1985.36 298.288L1988.38 294.281ZM1997.53 351.508L2001.65 354.37L1997.53 351.508ZM1872.52 531.513L1868.4 528.651L1872.52 531.513ZM1814.32 542.01L1817.18 537.888L1814.32 542.01ZM1778.3 516.997L1775.43 521.119L1778.3 516.997ZM1777.13 517.207L1779.99 513.084L1777.13 517.207ZM1726.9 482.327L1724.04 486.449L1726.9 482.327ZM1677.32 430.583C1654.3 414.594 1622.57 420.711 1606.42 443.975L1614.66 449.701C1627.76 430.846 1653.27 426.099 1671.6 438.827L1677.32 430.583ZM1702.63 430.686C1700.61 433.599 1696.84 435.223 1691.76 435.16C1686.7 435.098 1681.26 433.317 1677.32 430.583L1671.6 438.827C1677.18 442.706 1684.58 445.11 1691.64 445.197C1698.67 445.284 1706.29 443.022 1710.88 436.411L1702.63 430.686ZM1717.75 408.92L1702.63 430.686L1710.88 436.411L1725.99 414.645L1717.75 408.92ZM1708.81 385.237C1712.75 387.972 1716.32 392.452 1718.14 397.168C1719.98 401.904 1719.77 406.007 1717.75 408.92L1725.99 414.645C1730.58 408.034 1730.04 400.11 1727.5 393.546C1724.96 386.963 1720.12 380.872 1714.54 376.993L1708.81 385.237ZM1696.59 314.124C1680.44 337.388 1685.79 369.249 1708.81 385.237L1714.54 376.993C1696.21 364.265 1691.74 338.703 1704.84 319.849L1696.59 314.124ZM1767.49 300.731C1744.47 284.743 1712.75 290.86 1696.59 314.124L1704.84 319.849C1717.93 300.995 1743.44 296.248 1761.77 308.976L1767.49 300.731ZM1779.71 371.845C1795.87 348.581 1790.52 316.719 1767.49 300.731L1761.77 308.976C1780.1 321.703 1784.56 347.265 1771.47 366.119L1779.71 371.845ZM1779.25 401.568C1775.93 399.26 1774.12 394.759 1774.3 388.692C1774.48 382.696 1776.62 376.3 1779.71 371.845L1771.47 366.119C1767.23 372.218 1764.5 380.512 1764.27 388.399C1764.04 396.215 1766.3 404.79 1773.53 409.812L1779.25 401.568ZM1806.75 420.661L1779.25 401.568L1773.53 409.812L1801.02 428.906L1806.75 420.661ZM1843.05 414.115C1834.83 425.947 1818.58 428.878 1806.75 420.661L1801.02 428.906C1817.41 440.284 1839.91 436.225 1851.29 419.841L1843.05 414.115ZM1885.51 352.969L1843.05 414.115L1851.29 419.841L1893.75 358.694L1885.51 352.969ZM1875.8 328.078C1879.87 330.908 1883.7 335.643 1885.71 340.643C1887.73 345.691 1887.57 349.998 1885.51 352.969L1893.75 358.694C1898.49 351.88 1897.73 343.647 1895.02 336.901C1892.29 330.108 1887.23 323.798 1881.52 319.833L1875.8 328.078ZM1865.83 318.888C1868.65 322.326 1871.98 325.428 1875.8 328.078L1881.52 319.833C1878.48 317.719 1875.83 315.251 1873.59 312.523L1865.83 318.888ZM1872.58 311.583L1871.77 311.025L1866.05 319.27L1866.85 319.828L1872.58 311.583ZM1873.03 318.01L1873.2 317.772L1864.95 312.046L1864.79 312.285L1873.03 318.01ZM1863.78 258.12C1850.79 276.822 1851.93 301.133 1865.12 318.001L1873.03 311.818C1862.54 298.401 1861.56 278.917 1872.02 263.845L1863.78 258.12ZM1920.36 238.462C1899.94 231.995 1876.77 239.418 1863.78 258.12L1872.02 263.845C1882.49 248.773 1901.09 242.887 1917.32 248.031L1920.36 238.462ZM1922.96 246.109L1923.13 245.871L1914.88 240.145L1914.72 240.383L1922.96 246.109ZM1916.14 247.13L1916.95 247.687L1922.67 239.443L1921.87 238.886L1916.14 247.13ZM1933.53 244.946C1929.71 242.295 1925.64 240.258 1921.43 238.817L1918.18 248.313C1921.52 249.457 1924.76 251.075 1927.8 253.19L1933.53 244.946ZM1943.49 254.136C1940.68 250.698 1937.34 247.596 1933.53 244.946L1927.8 253.19C1930.85 255.305 1933.5 257.773 1935.73 260.502L1943.49 254.136ZM1936.75 261.441L1986.97 296.315L1992.7 288.071L1942.48 253.197L1936.75 261.441ZM1985.71 289.33L1984.26 291.419L1992.51 297.144L1993.96 295.056L1985.71 289.33ZM2001.65 354.37C2016.05 333.636 2011.38 305.345 1991.41 290.275L1985.36 298.288C2001.05 310.125 2004.72 332.355 1993.4 348.645L2001.65 354.37ZM1876.65 534.376L2001.65 354.37L1993.4 348.645L1868.4 528.651L1876.65 534.376ZM1811.45 546.132C1832.7 560.888 1861.89 555.625 1876.65 534.376L1868.4 528.651C1856.81 545.346 1833.87 549.482 1817.18 537.888L1811.45 546.132ZM1775.43 521.119L1811.45 546.132L1817.18 537.888L1781.16 512.874L1775.43 521.119ZM1781.84 519.964C1780.39 522.051 1777.52 522.568 1775.43 521.119L1781.16 512.874C1778.69 511.162 1775.3 511.773 1773.59 514.239L1781.84 519.964ZM1774.27 521.329C1776.74 523.042 1780.12 522.431 1781.84 519.964L1773.59 514.239C1775.04 512.152 1777.91 511.635 1779.99 513.084L1774.27 521.329ZM1724.04 486.449L1774.27 521.329L1779.99 513.084L1729.77 478.205L1724.04 486.449ZM1689.54 501.696C1692.9 496.857 1699.66 491.278 1706.97 487.89C1714.59 484.354 1720.68 484.115 1724.04 486.449L1729.77 478.205C1721.73 472.623 1711.03 474.938 1702.74 478.784C1694.13 482.779 1685.85 489.411 1681.29 495.971L1689.54 501.696ZM1618.64 515.089C1641.66 531.077 1673.38 524.96 1689.54 501.696L1681.29 495.971C1668.2 514.825 1642.69 519.572 1624.36 506.844L1618.64 515.089ZM1606.42 443.975C1590.26 467.239 1595.61 499.101 1618.64 515.089L1624.36 506.844C1606.03 494.117 1601.57 468.555 1614.66 449.701L1606.42 443.975Z" fill="#FDD05C" mask="url(#path-15-inside-6_743_1166)"/>
</g>
<g filter="url(#filter9_f_743_1166)">
<mask id="path-17-inside-7_743_1166" fill="white">
<path fill-rule="evenodd" clip-rule="evenodd" d="M1536.48 929.862C1513.89 929.862 1495.58 911.984 1495.58 889.931C1495.58 867.878 1513.89 850 1536.48 850C1559.07 850 1577.38 867.878 1577.38 889.931C1577.38 901.429 1587.45 924.107 1598.94 924.107L1702.06 924.107C1721.93 924.107 1738.04 908.001 1738.04 888.133V885.974C1738.04 866.107 1754.14 850 1774.01 850H1785.34C1805.21 850 1821.31 866.107 1821.31 885.974V1131.32C1821.31 1151.18 1805.21 1167.29 1785.34 1167.29H1774.01C1754.14 1167.29 1738.04 1151.18 1738.04 1131.32V1121.96C1738.04 1102.1 1721.93 1085.99 1702.06 1085.99H1683.17C1663.31 1085.99 1647.2 1102.1 1647.2 1121.96V1160.1C1647.2 1179.96 1631.09 1196.07 1611.23 1196.07H1523.45C1503.58 1196.07 1487.48 1179.96 1487.48 1160.1V1046.1C1487.48 1028.39 1501.83 1014.04 1519.53 1014.04C1537.24 1014.04 1551.59 999.689 1551.59 981.984V942.505C1551.59 935.067 1543.92 929.862 1536.48 929.862Z"/>
</mask>
<path d="M1487.48 1046.1H1483.16H1487.48ZM1487.48 1160.1H1483.16H1487.48ZM1647.2 1160.1H1651.52H1647.2ZM1738.04 1121.96H1742.36H1738.04ZM1499.9 889.931C1499.9 909.503 1516.18 925.545 1536.48 925.545V934.179C1511.61 934.179 1491.27 914.466 1491.27 889.931H1499.9ZM1536.48 854.317C1516.18 854.317 1499.9 870.359 1499.9 889.931H1491.27C1491.27 865.397 1511.61 845.683 1536.48 845.683V854.317ZM1573.07 889.931C1573.07 870.359 1556.79 854.317 1536.48 854.317V845.683C1561.36 845.683 1581.7 865.397 1581.7 889.931H1573.07ZM1598.94 919.79L1702.06 919.79V928.424L1598.94 928.424V919.79ZM1733.72 888.133V885.974H1742.36V888.133H1733.72ZM1774.01 845.684H1785.34V854.317H1774.01V845.684ZM1825.63 885.974V1131.32H1817V885.974H1825.63ZM1785.34 1171.61H1774.01V1162.97H1785.34V1171.61ZM1733.72 1131.32V1121.96H1742.36V1131.32H1733.72ZM1702.06 1090.31H1683.17V1081.67H1702.06V1090.31ZM1651.52 1121.96V1160.1H1642.88V1121.96H1651.52ZM1611.23 1200.39H1523.45V1191.75H1611.23V1200.39ZM1483.16 1160.1V1046.1H1491.79V1160.1H1483.16ZM1547.27 981.984V942.505H1555.91V981.984H1547.27ZM1547.27 942.505C1547.27 940.39 1546.21 938.393 1544.16 936.792C1542.09 935.166 1539.25 934.179 1536.48 934.179V925.545C1541.15 925.545 1545.87 927.161 1549.49 929.996C1553.14 932.857 1555.91 937.182 1555.91 942.505H1547.27ZM1519.53 1009.72C1534.85 1009.72 1547.27 997.305 1547.27 981.984H1555.91C1555.91 1002.07 1539.62 1018.36 1519.53 1018.36V1009.72ZM1483.16 1046.1C1483.16 1026.01 1499.44 1009.72 1519.53 1009.72V1018.36C1504.21 1018.36 1491.79 1030.78 1491.79 1046.1H1483.16ZM1523.45 1200.39C1501.2 1200.39 1483.16 1182.35 1483.16 1160.1H1491.79C1491.79 1177.58 1505.97 1191.75 1523.45 1191.75V1200.39ZM1651.52 1160.1C1651.52 1182.35 1633.48 1200.39 1611.23 1200.39V1191.75C1628.71 1191.75 1642.88 1177.58 1642.88 1160.1H1651.52ZM1683.17 1090.31C1665.69 1090.31 1651.52 1104.48 1651.52 1121.96H1642.88C1642.88 1099.71 1660.92 1081.67 1683.17 1081.67V1090.31ZM1733.72 1121.96C1733.72 1104.48 1719.55 1090.31 1702.06 1090.31V1081.67C1724.32 1081.67 1742.36 1099.71 1742.36 1121.96H1733.72ZM1774.01 1171.61C1751.76 1171.61 1733.72 1153.57 1733.72 1131.32H1742.36C1742.36 1148.8 1756.53 1162.97 1774.01 1162.97V1171.61ZM1825.63 1131.32C1825.63 1153.57 1807.59 1171.61 1785.34 1171.61V1162.97C1802.82 1162.97 1817 1148.8 1817 1131.32H1825.63ZM1785.34 845.684C1807.59 845.684 1825.63 863.722 1825.63 885.974H1817C1817 868.491 1802.82 854.317 1785.34 854.317V845.684ZM1733.72 885.974C1733.72 863.722 1751.76 845.684 1774.01 845.684V854.317C1756.53 854.317 1742.36 868.491 1742.36 885.974H1733.72ZM1702.06 919.79C1719.55 919.79 1733.72 905.616 1733.72 888.133H1742.36C1742.36 910.385 1724.32 928.424 1702.06 928.424V919.79ZM1581.7 889.931C1581.7 894.738 1583.91 902.557 1587.62 909.232C1589.46 912.524 1591.52 915.289 1593.61 917.176C1595.73 919.085 1597.53 919.79 1598.94 919.79V928.424C1594.61 928.424 1590.84 926.294 1587.84 923.591C1584.81 920.867 1582.2 917.244 1580.08 913.429C1575.89 905.891 1573.07 896.622 1573.07 889.931H1581.7Z" fill="#377DC9" mask="url(#path-17-inside-7_743_1166)"/>
</g>
<g filter="url(#filter10_f_743_1166)">
<mask id="path-19-inside-8_743_1166" fill="white">
<path fill-rule="evenodd" clip-rule="evenodd" d="M1530.01 929.862C1507.42 929.862 1489.11 911.984 1489.11 889.931C1489.11 867.878 1507.42 850 1530.01 850C1552.6 850 1570.91 867.878 1570.91 889.931C1570.91 901.429 1580.97 924.107 1592.47 924.107L1695.59 924.107C1715.46 924.107 1731.56 908.001 1731.56 888.133V885.974C1731.56 866.106 1747.67 850 1767.54 850H1778.86C1798.73 850 1814.84 866.106 1814.84 885.974V1131.32C1814.84 1151.18 1798.73 1167.29 1778.86 1167.29H1767.54C1747.67 1167.29 1731.56 1151.18 1731.56 1131.32V1121.96C1731.56 1102.1 1715.46 1085.99 1695.59 1085.99H1676.7C1656.83 1085.99 1640.72 1102.1 1640.72 1121.96V1160.1C1640.72 1179.96 1624.62 1196.07 1604.75 1196.07H1516.97C1497.11 1196.07 1481 1179.96 1481 1160.1V1046.1C1481 1028.39 1495.35 1014.04 1513.06 1014.04C1530.76 1014.04 1545.12 999.689 1545.12 981.984V942.505C1545.12 935.067 1537.45 929.862 1530.01 929.862Z"/>
</mask>
<path d="M1481 1046.1H1476.68H1481ZM1481 1160.1H1476.68H1481ZM1640.72 1160.1H1645.04H1640.72ZM1731.56 1121.96H1735.88H1731.56ZM1493.42 889.931C1493.42 909.503 1509.7 925.545 1530.01 925.545V934.179C1505.13 934.179 1484.79 914.466 1484.79 889.931H1493.42ZM1530.01 854.317C1509.7 854.317 1493.42 870.359 1493.42 889.931H1484.79C1484.79 865.397 1505.13 845.683 1530.01 845.683V854.317ZM1566.59 889.931C1566.59 870.359 1550.31 854.317 1530.01 854.317V845.683C1554.88 845.683 1575.22 865.397 1575.22 889.931H1566.59ZM1592.47 919.79L1695.59 919.79V928.424L1592.47 928.424V919.79ZM1727.25 888.133V885.974H1735.88V888.133H1727.25ZM1767.54 845.683H1778.86V854.317H1767.54V845.683ZM1819.15 885.974V1131.32H1810.52V885.974H1819.15ZM1778.86 1171.61H1767.54V1162.97H1778.86V1171.61ZM1727.25 1131.32V1121.96H1735.88V1131.32H1727.25ZM1695.59 1090.31H1676.7V1081.67H1695.59V1090.31ZM1645.04 1121.96V1160.1H1636.41V1121.96H1645.04ZM1604.75 1200.39H1516.97V1191.75H1604.75V1200.39ZM1476.68 1160.1V1046.1H1485.32V1160.1H1476.68ZM1540.8 981.984V942.505H1549.43V981.984H1540.8ZM1540.8 942.505C1540.8 940.391 1539.73 938.393 1537.69 936.792C1535.61 935.166 1532.78 934.179 1530.01 934.179V925.545C1534.68 925.545 1539.39 927.161 1543.01 929.996C1546.66 932.858 1549.43 937.182 1549.43 942.505H1540.8ZM1513.06 1009.72C1528.38 1009.72 1540.8 997.305 1540.8 981.984H1549.43C1549.43 1002.07 1533.15 1018.36 1513.06 1018.36V1009.72ZM1476.68 1046.1C1476.68 1026.01 1492.97 1009.72 1513.06 1009.72V1018.36C1497.74 1018.36 1485.32 1030.78 1485.32 1046.1H1476.68ZM1516.97 1200.39C1494.72 1200.39 1476.68 1182.35 1476.68 1160.1H1485.32C1485.32 1177.58 1499.49 1191.75 1516.97 1191.75V1200.39ZM1645.04 1160.1C1645.04 1182.35 1627 1200.39 1604.75 1200.39V1191.75C1622.23 1191.75 1636.41 1177.58 1636.41 1160.1H1645.04ZM1676.7 1090.31C1659.21 1090.31 1645.04 1104.48 1645.04 1121.96H1636.41C1636.41 1099.71 1654.45 1081.67 1676.7 1081.67V1090.31ZM1727.25 1121.96C1727.25 1104.48 1713.07 1090.31 1695.59 1090.31V1081.67C1717.84 1081.67 1735.88 1099.71 1735.88 1121.96H1727.25ZM1767.54 1171.61C1745.28 1171.61 1727.25 1153.57 1727.25 1131.32H1735.88C1735.88 1148.8 1750.05 1162.97 1767.54 1162.97V1171.61ZM1819.15 1131.32C1819.15 1153.57 1801.12 1171.61 1778.86 1171.61V1162.97C1796.35 1162.97 1810.52 1148.8 1810.52 1131.32H1819.15ZM1778.86 845.683C1801.12 845.683 1819.15 863.722 1819.15 885.974H1810.52C1810.52 868.49 1796.35 854.317 1778.86 854.317V845.683ZM1727.25 885.974C1727.25 863.722 1745.28 845.683 1767.54 845.683V854.317C1750.05 854.317 1735.88 868.49 1735.88 885.974H1727.25ZM1695.59 919.79C1713.07 919.79 1727.25 905.616 1727.25 888.133H1735.88C1735.88 910.385 1717.84 928.424 1695.59 928.424V919.79ZM1575.22 889.931C1575.22 894.738 1577.44 902.557 1581.15 909.232C1582.98 912.524 1585.04 915.289 1587.14 917.176C1589.26 919.085 1591.06 919.79 1592.47 919.79V928.424C1588.13 928.424 1584.36 926.294 1581.36 923.591C1578.34 920.867 1575.73 917.244 1573.6 913.429C1569.41 905.891 1566.59 896.622 1566.59 889.931H1575.22Z" fill="#377DC9" mask="url(#path-19-inside-8_743_1166)"/>
</g>
<g filter="url(#filter11_f_743_1166)">
<mask id="path-21-inside-9_743_1166" fill="white">
<path fill-rule="evenodd" clip-rule="evenodd" d="M1532.17 929.862C1509.58 929.862 1491.27 911.984 1491.27 889.931C1491.27 867.878 1509.58 850 1532.17 850C1554.75 850 1573.07 867.878 1573.07 889.931C1573.07 901.429 1583.13 924.107 1594.63 924.107L1697.75 924.107C1717.62 924.107 1733.72 908.001 1733.72 888.133V885.974C1733.72 866.106 1749.83 850 1769.7 850H1781.02C1800.89 850 1817 866.106 1817 885.974V1131.32C1817 1151.18 1800.89 1167.29 1781.02 1167.29H1769.7C1749.83 1167.29 1733.72 1151.18 1733.72 1131.32V1121.96C1733.72 1102.1 1717.62 1085.99 1697.75 1085.99H1678.86C1658.99 1085.99 1642.88 1102.1 1642.88 1121.96V1160.1C1642.88 1179.96 1626.78 1196.07 1606.91 1196.07H1519.13C1499.26 1196.07 1483.16 1179.96 1483.16 1160.1V1046.1C1483.16 1028.39 1497.51 1014.04 1515.22 1014.04C1532.92 1014.04 1547.27 999.689 1547.27 981.984V942.505C1547.27 935.067 1539.6 929.862 1532.17 929.862Z"/>
</mask>
<path d="M1483.16 1046.1H1479.56H1483.16ZM1483.16 1160.1H1479.56H1483.16ZM1642.88 1160.1H1646.48H1642.88ZM1733.72 1121.96H1737.32H1733.72ZM1494.86 889.931C1494.86 909.917 1511.48 926.265 1532.17 926.265V933.46C1507.67 933.46 1487.67 914.052 1487.67 889.931H1494.86ZM1532.17 853.597C1511.48 853.597 1494.86 869.945 1494.86 889.931H1487.67C1487.67 865.81 1507.67 846.403 1532.17 846.403V853.597ZM1569.47 889.931C1569.47 869.945 1552.85 853.597 1532.17 853.597V846.403C1556.66 846.403 1576.66 865.81 1576.66 889.931H1569.47ZM1594.63 920.509L1697.75 920.509V927.704L1594.63 927.704V920.509ZM1730.12 888.133V885.974H1737.32V888.133H1730.12ZM1769.7 846.403H1781.02V853.597H1769.7V846.403ZM1820.59 885.974V1131.32H1813.4V885.974H1820.59ZM1781.02 1170.89H1769.7V1163.69H1781.02V1170.89ZM1730.12 1131.32V1121.96H1737.32V1131.32H1730.12ZM1697.75 1089.59H1678.86V1082.39H1697.75V1089.59ZM1646.48 1121.96V1160.1H1639.29V1121.96H1646.48ZM1606.91 1199.67H1519.13V1192.47H1606.91V1199.67ZM1479.56 1160.1V1046.1H1486.76L1486.76 1160.1H1479.56ZM1543.68 981.984V942.505H1550.87V981.984H1543.68ZM1543.68 942.505C1543.68 940.123 1542.47 937.932 1540.29 936.226C1538.09 934.499 1535.09 933.46 1532.17 933.46V926.265C1536.68 926.265 1541.24 927.828 1544.73 930.563C1548.25 933.319 1550.87 937.449 1550.87 942.505H1543.68ZM1515.22 1010.44C1530.93 1010.44 1543.68 997.702 1543.68 981.984H1550.87C1550.87 1001.68 1534.91 1017.64 1515.22 1017.64V1010.44ZM1479.56 1046.1C1479.56 1026.41 1495.52 1010.44 1515.22 1010.44V1017.64C1499.5 1017.64 1486.76 1030.38 1486.76 1046.1H1479.56ZM1519.13 1199.67C1497.28 1199.67 1479.56 1181.95 1479.56 1160.1H1486.76C1486.76 1177.98 1501.25 1192.47 1519.13 1192.47V1199.67ZM1646.48 1160.1C1646.48 1181.95 1628.76 1199.67 1606.91 1199.67V1192.47C1624.79 1192.47 1639.29 1177.98 1639.29 1160.1H1646.48ZM1678.86 1089.59C1660.98 1089.59 1646.48 1104.08 1646.48 1121.96H1639.29C1639.29 1100.11 1657 1082.39 1678.86 1082.39V1089.59ZM1730.12 1121.96C1730.12 1104.08 1715.63 1089.59 1697.75 1089.59V1082.39C1719.6 1082.39 1737.32 1100.11 1737.32 1121.96H1730.12ZM1769.7 1170.89C1747.84 1170.89 1730.12 1153.17 1730.12 1131.32H1737.32C1737.32 1149.2 1751.81 1163.69 1769.7 1163.69V1170.89ZM1820.59 1131.32C1820.59 1153.17 1802.88 1170.89 1781.02 1170.89V1163.69C1798.9 1163.69 1813.4 1149.2 1813.4 1131.32H1820.59ZM1781.02 846.403C1802.88 846.403 1820.59 864.119 1820.59 885.974H1813.4C1813.4 868.093 1798.9 853.597 1781.02 853.597V846.403ZM1730.12 885.974C1730.12 864.119 1747.84 846.403 1769.7 846.403V853.597C1751.81 853.597 1737.32 868.093 1737.32 885.974H1730.12ZM1697.75 920.509C1715.63 920.509 1730.12 906.014 1730.12 888.133H1737.32C1737.32 909.987 1719.6 927.704 1697.75 927.704V920.509ZM1576.66 889.931C1576.66 894.895 1578.93 902.835 1582.68 909.582C1584.53 912.917 1586.64 915.753 1588.82 917.71C1591.01 919.685 1592.97 920.509 1594.63 920.509V927.704C1590.54 927.704 1586.93 925.693 1584 923.057C1581.05 920.402 1578.49 916.851 1576.39 913.079C1572.24 905.613 1569.47 896.465 1569.47 889.931H1576.66Z" fill="#377DC9" mask="url(#path-21-inside-9_743_1166)"/>
</g>
<g filter="url(#filter12_f_743_1166)">
<mask id="path-23-inside-10_743_1166" fill="white">
<path fill-rule="evenodd" clip-rule="evenodd" d="M80.2942 890.523C80.2942 868.143 98.4372 850 120.818 850H214.219C236.599 850 254.742 868.143 254.742 890.523V894.037C254.742 915.915 272.478 933.651 294.356 933.651C316.234 933.651 333.97 951.386 333.97 973.265V976.778C333.97 999.159 315.827 1017.3 293.447 1017.3H200.046C177.665 1017.3 159.522 999.159 159.522 976.778V973.265C159.522 951.387 141.786 933.651 119.908 933.651C98.03 933.651 80.2942 915.915 80.2942 894.037V890.523Z"/>
</mask>
<path d="M214.219 854.863H120.818V845.137H214.219V854.863ZM249.879 894.037V890.523H259.605V894.037H249.879ZM329.107 976.778V973.265H338.833V976.778H329.107ZM200.046 1012.44H293.447V1022.16H200.046V1012.44ZM164.385 973.265V976.778H154.659V973.265H164.385ZM85.157 890.523V894.037H75.4314V890.523H85.157ZM119.908 938.514C95.3443 938.514 75.4314 918.601 75.4314 894.037H85.157C85.157 913.229 100.716 928.788 119.908 928.788V938.514ZM154.659 973.265C154.659 954.072 139.101 938.514 119.908 938.514V928.788C144.472 928.788 164.385 948.701 164.385 973.265H154.659ZM200.046 1022.16C174.979 1022.16 154.659 1001.84 154.659 976.778H164.385C164.385 996.473 180.351 1012.44 200.046 1012.44V1022.16ZM338.833 976.778C338.833 1001.84 318.513 1022.16 293.447 1022.16V1012.44C313.141 1012.44 329.107 996.473 329.107 976.778H338.833ZM294.356 928.788C318.92 928.788 338.833 948.701 338.833 973.265H329.107C329.107 954.072 313.549 938.513 294.356 938.513V928.788ZM259.605 894.037C259.605 913.229 275.164 928.788 294.356 928.788V938.513C269.792 938.513 249.879 918.601 249.879 894.037H259.605ZM120.818 854.863C101.123 854.863 85.157 870.829 85.157 890.523H75.4314C75.4314 865.457 95.7515 845.137 120.818 845.137V854.863ZM214.219 845.137C239.285 845.137 259.605 865.457 259.605 890.523H249.879C249.879 870.829 233.914 854.863 214.219 854.863V845.137Z" fill="#417336" mask="url(#path-23-inside-10_743_1166)"/>
</g>
<g filter="url(#filter13_f_743_1166)">
<mask id="path-25-inside-11_743_1166" fill="white">
<path fill-rule="evenodd" clip-rule="evenodd" d="M73 890.523C73 868.143 91.143 850 113.523 850H206.925C229.305 850 247.448 868.143 247.448 890.523V894.037C247.448 915.915 265.184 933.651 287.062 933.651C308.94 933.651 326.676 951.386 326.676 973.265V976.778C326.676 999.159 308.533 1017.3 286.152 1017.3H192.751C170.371 1017.3 152.228 999.159 152.228 976.778V973.265C152.228 951.387 134.492 933.651 112.614 933.651C90.7358 933.651 73 915.915 73 894.037V890.523Z"/>
</mask>
<path d="M206.925 854.863H113.523V845.137H206.925V854.863ZM242.585 894.037V890.523H252.311V894.037H242.585ZM321.813 976.778V973.265H331.539V976.778H321.813ZM192.751 1012.44H286.152V1022.16H192.751V1012.44ZM157.091 973.265V976.778H147.365V973.265H157.091ZM77.8628 890.523V894.037H68.1372V890.523H77.8628ZM112.614 938.514C88.0501 938.514 68.1372 918.601 68.1372 894.037H77.8628C77.8628 913.229 93.4214 928.788 112.614 928.788V938.514ZM147.365 973.265C147.365 954.072 131.806 938.514 112.614 938.514V928.788C137.178 928.788 157.091 948.701 157.091 973.265H147.365ZM192.751 1022.16C167.685 1022.16 147.365 1001.84 147.365 976.778H157.091C157.091 996.473 173.056 1012.44 192.751 1012.44V1022.16ZM331.539 976.778C331.539 1001.84 311.218 1022.16 286.152 1022.16V1012.44C305.847 1012.44 321.813 996.473 321.813 976.778H331.539ZM287.062 928.788C311.626 928.788 331.539 948.701 331.539 973.265H321.813C321.813 954.072 306.254 938.513 287.062 938.513V928.788ZM252.311 894.037C252.311 913.229 267.869 928.788 287.062 928.788V938.513C262.498 938.513 242.585 918.601 242.585 894.037H252.311ZM113.523 854.863C93.8286 854.863 77.8628 870.829 77.8628 890.523H68.1372C68.1372 865.457 88.4573 845.137 113.523 845.137V854.863ZM206.925 845.137C231.991 845.137 252.311 865.457 252.311 890.523H242.585C242.585 870.829 226.619 854.863 206.925 854.863V845.137Z" fill="#417336" mask="url(#path-25-inside-11_743_1166)"/>
</g>
<g filter="url(#filter14_f_743_1166)">
<mask id="path-27-inside-12_743_1166" fill="white">
<path fill-rule="evenodd" clip-rule="evenodd" d="M75.4318 890.523C75.4318 868.143 93.5748 850 115.955 850H209.356C231.737 850 249.88 868.143 249.88 890.523V894.037C249.88 915.915 267.616 933.651 289.494 933.651C311.372 933.651 329.108 951.387 329.108 973.265V976.778C329.108 999.159 310.965 1017.3 288.584 1017.3H195.183C172.803 1017.3 154.66 999.159 154.66 976.778V973.265C154.66 951.387 136.924 933.651 115.046 933.651C93.1676 933.651 75.4318 915.915 75.4318 894.037V890.523Z"/>
</mask>
<path d="M209.356 854.052H115.955V845.948H209.356V854.052ZM245.827 894.037V890.523H253.932V894.037H245.827ZM325.055 976.778V973.265H333.16V976.778H325.055ZM195.183 1013.25H288.584V1021.35H195.183V1013.25ZM158.712 973.265V976.778H150.608V973.265H158.712ZM79.4842 890.523V894.037H71.3795V890.523H79.4842ZM115.046 937.703C90.9296 937.703 71.3795 918.153 71.3795 894.037H79.4842C79.4842 913.677 95.4057 929.599 115.046 929.599V937.703ZM150.608 973.265C150.608 953.625 134.686 937.703 115.046 937.703V929.599C139.162 929.599 158.712 949.149 158.712 973.265H150.608ZM195.183 1021.35C170.565 1021.35 150.608 1001.4 150.608 976.778H158.712C158.712 996.921 175.041 1013.25 195.183 1013.25V1021.35ZM333.16 976.778C333.16 1001.4 313.203 1021.35 288.584 1021.35V1013.25C308.727 1013.25 325.055 996.921 325.055 976.778H333.16ZM289.494 929.598C313.61 929.598 333.16 949.148 333.16 973.265H325.055C325.055 953.625 309.134 937.703 289.494 937.703V929.598ZM253.932 894.037C253.932 913.677 269.854 929.598 289.494 929.598V937.703C265.377 937.703 245.827 918.153 245.827 894.037H253.932ZM115.955 854.052C95.8128 854.052 79.4842 870.381 79.4842 890.523H71.3795C71.3795 865.905 91.3367 845.948 115.955 845.948V854.052ZM209.356 845.948C233.975 845.948 253.932 865.905 253.932 890.523H245.827C245.827 870.381 229.499 854.052 209.356 854.052V845.948Z" fill="#417336" mask="url(#path-27-inside-12_743_1166)"/>
</g>
<g filter="url(#filter15_f_743_1166)">
<mask id="path-29-inside-13_743_1166" fill="white">
<path fill-rule="evenodd" clip-rule="evenodd" d="M75.4318 890.523C75.4318 868.143 93.5748 850 115.955 850H209.356C231.737 850 249.88 868.143 249.88 890.523V894.037C249.88 915.915 267.616 933.651 289.494 933.651C311.372 933.651 329.108 951.387 329.108 973.265V976.778C329.108 999.159 310.965 1017.3 288.584 1017.3H195.183C172.803 1017.3 154.66 999.159 154.66 976.778V973.265C154.66 951.387 136.924 933.651 115.046 933.651C93.1676 933.651 75.4318 915.915 75.4318 894.037V890.523Z"/>
</mask>
<path d="M209.356 854.052H115.955V845.948H209.356V854.052ZM245.827 894.037V890.523H253.932V894.037H245.827ZM325.055 976.778V973.265H333.16V976.778H325.055ZM195.183 1013.25H288.584V1021.35H195.183V1013.25ZM158.712 973.265V976.778H150.608V973.265H158.712ZM79.4842 890.523V894.037H71.3795V890.523H79.4842ZM115.046 937.703C90.9296 937.703 71.3795 918.153 71.3795 894.037H79.4842C79.4842 913.677 95.4057 929.599 115.046 929.599V937.703ZM150.608 973.265C150.608 953.625 134.686 937.703 115.046 937.703V929.599C139.162 929.599 158.712 949.149 158.712 973.265H150.608ZM195.183 1021.35C170.565 1021.35 150.608 1001.4 150.608 976.778H158.712C158.712 996.921 175.041 1013.25 195.183 1013.25V1021.35ZM333.16 976.778C333.16 1001.4 313.203 1021.35 288.584 1021.35V1013.25C308.727 1013.25 325.055 996.921 325.055 976.778H333.16ZM289.494 929.598C313.61 929.598 333.16 949.148 333.16 973.265H325.055C325.055 953.625 309.134 937.703 289.494 937.703V929.598ZM253.932 894.037C253.932 913.677 269.854 929.598 289.494 929.598V937.703C265.377 937.703 245.827 918.153 245.827 894.037H253.932ZM115.955 854.052C95.8128 854.052 79.4842 870.381 79.4842 890.523H71.3795C71.3795 865.905 91.3367 845.948 115.955 845.948V854.052ZM209.356 845.948C233.975 845.948 253.932 865.905 253.932 890.523H245.827C245.827 870.381 229.499 854.052 209.356 854.052V845.948Z" fill="#417336" mask="url(#path-29-inside-13_743_1166)"/>
</g>
</g>
<defs>
<filter id="filter0_d_743_1166" x="-26.1956" y="0" width="1960.39" height="1108.39" filterUnits="userSpaceOnUse" color-interpolation-filters="sRGB">
<feFlood flood-opacity="0" result="BackgroundImageFix"/>
<feColorMatrix in="SourceAlpha" type="matrix" values="0 0 0 0 0 0 0 0 0 0 0 0 0 0 0 0 0 0 127 0" result="hardAlpha"/>
<feOffset dy="14.1956"/>
<feGaussianBlur stdDeviation="7.0978"/>
<feComposite in2="hardAlpha" operator="out"/>
<feColorMatrix type="matrix" values="0 0 0 0 0 0 0 0 0 0 0 0 0 0 0 0 0 0 0.25 0"/>
<feBlend mode="normal" in2="BackgroundImageFix" result="effect1_dropShadow_743_1166"/>
<feBlend mode="normal" in="SourceGraphic" in2="effect1_dropShadow_743_1166" result="shape"/>
</filter>
<filter id="filter1_f_743_1166" x="65.6708" y="-238.329" width="1736.66" height="1736.66" filterUnits="userSpaceOnUse" color-interpolation-filters="sRGB">
<feFlood flood-opacity="0" result="BackgroundImageFix"/>
<feBlend mode="normal" in="SourceGraphic" in2="BackgroundImageFix" result="shape"/>
<feGaussianBlur stdDeviation="237.665" result="effect1_foregroundBlur_743_1166"/>
</filter>
<filter id="filter2_f_743_1166" x="356.557" y="615.557" width="1137.89" height="1137.89" filterUnits="userSpaceOnUse" color-interpolation-filters="sRGB">
<feFlood flood-opacity="0" result="BackgroundImageFix"/>
<feBlend mode="normal" in="SourceGraphic" in2="BackgroundImageFix" result="shape"/>
<feGaussianBlur stdDeviation="155.722" result="effect1_foregroundBlur_743_1166"/>
</filter>
<filter id="filter3_f_743_1166" x="-199.713" y="291.011" width="495.023" height="237.464" filterUnits="userSpaceOnUse" color-interpolation-filters="sRGB">
<feFlood flood-opacity="0" result="BackgroundImageFix"/>
<feBlend mode="normal" in="SourceGraphic" in2="BackgroundImageFix" result="shape"/>
<feGaussianBlur stdDeviation="4.35626" result="effect1_foregroundBlur_743_1166"/>
</filter>
<filter id="filter4_f_743_1166" x="-199.687" y="285.287" width="495.024" height="237.464" filterUnits="userSpaceOnUse" color-interpolation-filters="sRGB">
<feFlood flood-opacity="0" result="BackgroundImageFix"/>
<feBlend mode="normal" in="SourceGraphic" in2="BackgroundImageFix" result="shape"/>
<feGaussianBlur stdDeviation="4.35626" result="effect1_foregroundBlur_743_1166"/>
</filter>
<filter id="filter5_f_743_1166" x="-193.527" y="293.365" width="482.686" height="225.126" filterUnits="userSpaceOnUse" color-interpolation-filters="sRGB">
<feFlood flood-opacity="0" result="BackgroundImageFix"/>
<feBlend mode="normal" in="SourceGraphic" in2="BackgroundImageFix" result="shape"/>
<feGaussianBlur stdDeviation="1.2719" result="effect1_foregroundBlur_743_1166"/>
</filter>
<filter id="filter6_f_743_1166" x="1594.78" y="231.638" width="424.368" height="332.169" filterUnits="userSpaceOnUse" color-interpolation-filters="sRGB">
<feFlood flood-opacity="0" result="BackgroundImageFix"/>
<feBlend mode="normal" in="SourceGraphic" in2="BackgroundImageFix" result="shape"/>
<feGaussianBlur stdDeviation="5.72972" result="effect1_foregroundBlur_743_1166"/>
</filter>
<filter id="filter7_f_743_1166" x="1588.6" y="228.775" width="425.321" height="330.737" filterUnits="userSpaceOnUse" color-interpolation-filters="sRGB">
<feFlood flood-opacity="0" result="BackgroundImageFix"/>
<feBlend mode="normal" in="SourceGraphic" in2="BackgroundImageFix" result="shape"/>
<feGaussianBlur stdDeviation="5.72972" result="effect1_foregroundBlur_743_1166"/>
</filter>
<filter id="filter8_f_743_1166" x="1598.77" y="237.843" width="409.571" height="314.987" filterUnits="userSpaceOnUse" color-interpolation-filters="sRGB">
<feFlood flood-opacity="0" result="BackgroundImageFix"/>
<feBlend mode="normal" in="SourceGraphic" in2="BackgroundImageFix" result="shape"/>
<feGaussianBlur stdDeviation="1.67291" result="effect1_foregroundBlur_743_1166"/>
</filter>
<filter id="filter9_f_743_1166" x="1477.62" y="840.143" width="353.552" height="365.784" filterUnits="userSpaceOnUse" color-interpolation-filters="sRGB">
<feFlood flood-opacity="0" result="BackgroundImageFix"/>
<feBlend mode="normal" in="SourceGraphic" in2="BackgroundImageFix" result="shape"/>
<feGaussianBlur stdDeviation="4.92843" result="effect1_foregroundBlur_743_1166"/>
</filter>
<filter id="filter10_f_743_1166" x="1471.14" y="840.143" width="353.552" height="365.784" filterUnits="userSpaceOnUse" color-interpolation-filters="sRGB">
<feFlood flood-opacity="0" result="BackgroundImageFix"/>
<feBlend mode="normal" in="SourceGraphic" in2="BackgroundImageFix" result="shape"/>
<feGaussianBlur stdDeviation="4.92843" result="effect1_foregroundBlur_743_1166"/>
</filter>
<filter id="filter11_f_743_1166" x="1480.28" y="847.122" width="339.594" height="351.826" filterUnits="userSpaceOnUse" color-interpolation-filters="sRGB">
<feFlood flood-opacity="0" result="BackgroundImageFix"/>
<feBlend mode="normal" in="SourceGraphic" in2="BackgroundImageFix" result="shape"/>
<feGaussianBlur stdDeviation="1.43896" result="effect1_foregroundBlur_743_1166"/>
</filter>
<filter id="filter12_f_743_1166" x="69.1908" y="838.897" width="275.883" height="189.508" filterUnits="userSpaceOnUse" color-interpolation-filters="sRGB">
<feFlood flood-opacity="0" result="BackgroundImageFix"/>
<feBlend mode="normal" in="SourceGraphic" in2="BackgroundImageFix" result="shape"/>
<feGaussianBlur stdDeviation="5.5517" result="effect1_foregroundBlur_743_1166"/>
</filter>
<filter id="filter13_f_743_1166" x="61.8966" y="838.897" width="275.883" height="189.508" filterUnits="userSpaceOnUse" color-interpolation-filters="sRGB">
<feFlood flood-opacity="0" result="BackgroundImageFix"/>
<feBlend mode="normal" in="SourceGraphic" in2="BackgroundImageFix" result="shape"/>
<feGaussianBlur stdDeviation="5.5517" result="effect1_foregroundBlur_743_1166"/>
</filter>
<filter id="filter14_f_743_1166" x="72.19" y="846.758" width="260.16" height="173.785" filterUnits="userSpaceOnUse" color-interpolation-filters="sRGB">
<feFlood flood-opacity="0" result="BackgroundImageFix"/>
<feBlend mode="normal" in="SourceGraphic" in2="BackgroundImageFix" result="shape"/>
<feGaussianBlur stdDeviation="1.62093" result="effect1_foregroundBlur_743_1166"/>
</filter>
<filter id="filter15_f_743_1166" x="72.19" y="846.758" width="260.16" height="173.785" filterUnits="userSpaceOnUse" color-interpolation-filters="sRGB">
<feFlood flood-opacity="0" result="BackgroundImageFix"/>
<feBlend mode="normal" in="SourceGraphic" in2="BackgroundImageFix" result="shape"/>
<feGaussianBlur stdDeviation="1.62093" result="effect1_foregroundBlur_743_1166"/>
</filter>
<linearGradient id="paint0_linear_743_1166" x1="2886" y1="1080" x2="2886" y2="2160" gradientUnits="userSpaceOnUse">
<stop stop-color="#2960F0"/>
<stop offset="0.515" stop-color="#8A2BF2"/>
<stop offset="1" stop-color="#E4BB91"/>
</linearGradient>
<clipPath id="clip0_743_1166">
<rect width="1920" height="1080" rx="20" fill="white"/>
</clipPath>
</defs>
</svg>
