<svg width="1920" height="1080" viewBox="0 0 1920 1080" fill="none" xmlns="http://www.w3.org/2000/svg">
<g clip-path="url(#clip0_1237_1036)">
<rect width="1920" height="1080" rx="20" fill="#F4F2EE"/>
<g filter="url(#filter0_f_1237_1036)">
<circle cx="938" cy="1021" r="497" fill="#417336" fill-opacity="0.32"/>
</g>
<g filter="url(#filter1_f_1237_1036)">
<mask id="path-3-inside-1_1237_1036" fill="white">
<path fill-rule="evenodd" clip-rule="evenodd" d="M-46.5016 845.333C-43.8192 829.064 -28.4565 818.051 -12.1882 820.733L55.7053 831.927C71.9736 834.61 82.9872 849.973 80.3049 866.241L79.8838 868.795C77.2616 884.698 88.0281 899.716 103.931 902.338V902.338C119.835 904.96 130.601 919.978 127.979 935.882L127.558 938.436C124.876 954.704 109.513 965.718 93.2447 963.035L25.3513 951.841C9.08292 949.158 -1.93069 933.796 0.751699 917.527L1.17276 914.974C3.79497 899.07 -6.97155 884.052 -22.8749 881.43V881.43C-38.7783 878.808 -49.5449 863.79 -46.9227 847.886L-46.5016 845.333Z"/>
</mask>
<path d="M25.3513 951.841L25.9341 948.306L25.3513 951.841ZM55.1224 835.462L-12.771 824.268L-11.6053 817.198L56.2881 828.393L55.1224 835.462ZM76.349 868.212L76.7701 865.658L83.8396 866.824L83.4186 869.377L76.349 868.212ZM124.023 937.853L124.444 935.299L131.514 936.465L131.093 939.018L124.023 937.853ZM25.9341 948.306L93.8275 959.5L92.6619 966.57L24.7685 955.375L25.9341 948.306ZM4.70754 915.556L4.28648 918.11L-2.78308 916.944L-2.36202 914.391L4.70754 915.556ZM-42.9668 845.915L-43.3879 848.469L-50.4574 847.304L-50.0364 844.75L-42.9668 845.915ZM-23.4578 884.965C-41.3134 882.021 -53.4015 865.159 -50.4574 847.304L-43.3879 848.469C-45.6882 862.42 -36.2433 875.595 -22.2921 877.895L-23.4578 884.965ZM-2.36202 914.391C-0.0616929 900.44 -9.50659 887.265 -23.4578 884.965L-22.2921 877.895C-4.43652 880.839 7.65164 897.701 4.70754 915.556L-2.36202 914.391ZM24.7685 955.375C6.54788 952.371 -5.78736 935.165 -2.78308 916.944L4.28648 918.11C1.92597 932.426 11.6179 945.945 25.9341 948.306L24.7685 955.375ZM131.093 939.018C128.089 957.239 110.882 969.574 92.6619 966.57L93.8275 959.5C108.144 961.861 121.663 952.169 124.023 937.853L131.093 939.018ZM104.514 898.803C122.37 901.747 134.458 918.609 131.514 936.465L124.444 935.299C126.745 921.348 117.3 908.173 103.349 905.873L104.514 898.803ZM83.4186 869.377C81.1182 883.329 90.5631 896.503 104.514 898.803L103.349 905.873C85.4931 902.929 73.4049 886.067 76.349 868.212L83.4186 869.377ZM-12.771 824.268C-27.0872 821.907 -40.6063 831.599 -42.9668 845.915L-50.0364 844.75C-47.0321 826.529 -29.8259 814.194 -11.6053 817.198L-12.771 824.268ZM56.2881 828.393C74.5087 831.397 86.8439 848.603 83.8396 866.824L76.7701 865.658C79.1306 851.342 69.4386 837.823 55.1224 835.462L56.2881 828.393Z" fill="#417336" mask="url(#path-3-inside-1_1237_1036)"/>
</g>
<g filter="url(#filter2_f_1237_1036)">
<mask id="path-5-inside-2_1237_1036" fill="white">
<path fill-rule="evenodd" clip-rule="evenodd" d="M-51.8048 844.457C-49.1224 828.188 -33.7598 817.175 -17.4914 819.857L50.402 831.052C66.6704 833.734 77.684 849.097 75.0016 865.365L74.5806 867.919C71.9584 883.822 82.7249 898.84 98.6283 901.462V901.462C114.532 904.084 125.298 919.102 122.676 935.006L122.255 937.56C119.573 953.828 104.21 964.842 87.9415 962.159L20.0481 950.965C3.77969 948.282 -7.23392 932.92 -4.55152 916.651L-4.13046 914.098C-1.50825 898.194 -12.2748 883.176 -28.1782 880.554V880.554C-44.0816 877.932 -54.8481 862.914 -52.2259 847.01L-51.8048 844.457Z"/>
</mask>
<path d="M49.8192 834.586L-18.0742 823.392L-16.9086 816.322L50.9849 827.517L49.8192 834.586ZM71.0458 867.336L71.4668 864.782L78.5364 865.948L78.1153 868.501L71.0458 867.336ZM118.72 936.977L119.141 934.423L126.211 935.589L125.79 938.142L118.72 936.977ZM20.6309 947.43L88.5243 958.624L87.3587 965.694L19.4652 954.499L20.6309 947.43ZM-0.595684 914.68L-1.01674 917.234L-8.0863 916.068L-7.66524 913.515L-0.595684 914.68ZM-48.27 845.039L-48.6911 847.593L-55.7607 846.428L-55.3396 843.874L-48.27 845.039ZM-28.761 884.089C-46.6166 881.145 -58.7048 864.283 -55.7607 846.428L-48.6911 847.593C-50.9914 861.544 -41.5465 874.719 -27.5953 877.019L-28.761 884.089ZM-7.66524 913.515C-5.36492 899.564 -14.8098 886.389 -28.761 884.089L-27.5953 877.019C-9.73975 879.963 2.34842 896.825 -0.595684 914.68L-7.66524 913.515ZM19.4652 954.499C1.24466 951.495 -11.0906 934.289 -8.0863 916.068L-1.01674 917.234C-3.37725 931.55 6.31473 945.069 20.6309 947.43L19.4652 954.499ZM125.79 938.142C122.785 956.363 105.579 968.698 87.3587 965.694L88.5243 958.624C102.84 960.985 116.36 951.293 118.72 936.977L125.79 938.142ZM99.2111 897.927C117.067 900.871 129.155 917.733 126.211 935.589L119.141 934.423C121.442 920.472 111.997 907.297 98.0454 904.997L99.2111 897.927ZM78.1153 868.501C75.815 882.453 85.2599 895.627 99.2111 897.927L98.0454 904.997C80.1899 902.053 68.1017 885.191 71.0458 867.336L78.1153 868.501ZM-18.0742 823.392C-32.3904 821.031 -45.9095 830.723 -48.27 845.039L-55.3396 843.874C-52.3353 825.653 -35.1291 813.318 -16.9086 816.322L-18.0742 823.392ZM50.9849 827.517C69.2054 830.521 81.5407 847.727 78.5364 865.948L71.4668 864.782C73.8274 850.466 64.1354 836.947 49.8192 834.586L50.9849 827.517Z" fill="#417336" mask="url(#path-5-inside-2_1237_1036)"/>
</g>
<g filter="url(#filter3_f_1237_1036)">
<mask id="path-7-inside-3_1237_1036" fill="white">
<path fill-rule="evenodd" clip-rule="evenodd" d="M-50.035 844.751C-47.3526 828.482 -31.9899 817.469 -15.7216 820.151L52.1719 831.345C68.4402 834.028 79.4539 849.39 76.7715 865.659L76.3504 868.213C73.7282 884.116 84.4947 899.134 100.398 901.756V901.756C116.302 904.378 127.068 919.396 124.446 935.3L124.025 937.854C121.342 954.122 105.98 965.136 89.7113 962.453L21.8179 951.259C5.54953 948.576 -5.46408 933.214 -2.78169 916.945L-2.36063 914.392C0.261588 898.488 -10.5049 883.47 -26.4083 880.848V880.848C-42.3117 878.226 -53.0783 863.208 -50.456 847.304L-50.035 844.751Z"/>
</mask>
<path d="M51.6862 834.291L-16.2072 823.097L-15.2359 817.205L52.6576 828.4L51.6862 834.291ZM73.4048 867.727L73.8258 865.173L79.7171 866.145L79.2961 868.698L73.4048 867.727ZM121.079 937.368L121.5 934.814L127.391 935.785L126.97 938.339L121.079 937.368ZM22.3036 948.313L90.197 959.507L89.2256 965.399L21.3322 954.204L22.3036 948.313ZM0.585022 914.877L0.163962 917.431L-5.72734 916.459L-5.30628 913.906L0.585022 914.877ZM-47.0893 845.236L-47.5104 847.79L-53.4017 846.819L-52.9806 844.265L-47.0893 845.236ZM-26.894 883.794C-44.4243 880.903 -56.2921 864.349 -53.4017 846.819L-47.5104 847.79C-49.8644 862.067 -40.1992 875.548 -25.9226 877.902L-26.894 883.794ZM-5.30628 913.906C-2.9523 899.629 -12.6175 886.148 -26.894 883.794L-25.9226 877.902C-8.39241 880.793 3.47548 897.347 0.585022 914.877L-5.30628 913.906ZM21.3322 954.204C3.437 951.254 -8.67797 934.355 -5.72734 916.459L0.163962 917.431C-2.25019 932.072 7.66206 945.899 22.3036 948.313L21.3322 954.204ZM126.97 938.339C124.02 956.234 107.121 968.349 89.2256 965.399L90.197 959.507C104.839 961.922 118.665 952.009 121.079 937.368L126.97 938.339ZM100.884 898.81C118.414 901.701 130.282 918.255 127.391 935.785L121.5 934.814C123.854 920.537 114.189 907.056 99.9124 904.702L100.884 898.81ZM79.2961 868.698C76.9421 882.975 86.6072 896.456 100.884 898.81L99.9124 904.702C82.3822 901.811 70.5143 885.257 73.4048 867.727L79.2961 868.698ZM-16.2072 823.097C-30.8488 820.682 -44.6752 830.595 -47.0893 845.236L-52.9806 844.265C-50.03 826.37 -33.1311 814.255 -15.2359 817.205L-16.2072 823.097ZM52.6576 828.4C70.5528 831.35 82.6677 848.249 79.7171 866.145L73.8258 865.173C76.24 850.532 66.3277 836.705 51.6862 834.291L52.6576 828.4Z" fill="#417336" mask="url(#path-7-inside-3_1237_1036)"/>
</g>
<g filter="url(#filter4_f_1237_1036)">
<mask id="path-9-inside-4_1237_1036" fill="white">
<path fill-rule="evenodd" clip-rule="evenodd" d="M-50.035 844.751C-47.3526 828.482 -31.9899 817.469 -15.7216 820.151L52.1719 831.345C68.4402 834.028 79.4539 849.39 76.7715 865.659L76.3504 868.213C73.7282 884.116 84.4947 899.134 100.398 901.756V901.756C116.302 904.378 127.068 919.396 124.446 935.3L124.025 937.854C121.342 954.122 105.98 965.136 89.7113 962.453L21.8179 951.259C5.54953 948.576 -5.46408 933.214 -2.78169 916.945L-2.36063 914.392C0.261588 898.488 -10.5049 883.47 -26.4083 880.848V880.848C-42.3117 878.226 -53.0783 863.208 -50.456 847.304L-50.035 844.751Z"/>
</mask>
<path d="M51.6862 834.291L-16.2072 823.097L-15.2359 817.205L52.6576 828.4L51.6862 834.291ZM73.4048 867.727L73.8258 865.173L79.7171 866.145L79.2961 868.698L73.4048 867.727ZM121.079 937.368L121.5 934.814L127.391 935.785L126.97 938.339L121.079 937.368ZM22.3036 948.313L90.197 959.507L89.2256 965.399L21.3322 954.204L22.3036 948.313ZM0.585022 914.877L0.163962 917.431L-5.72734 916.459L-5.30628 913.906L0.585022 914.877ZM-47.0893 845.236L-47.5104 847.79L-53.4017 846.819L-52.9806 844.265L-47.0893 845.236ZM-26.894 883.794C-44.4243 880.903 -56.2921 864.349 -53.4017 846.819L-47.5104 847.79C-49.8644 862.067 -40.1992 875.548 -25.9226 877.902L-26.894 883.794ZM-5.30628 913.906C-2.9523 899.629 -12.6175 886.148 -26.894 883.794L-25.9226 877.902C-8.39241 880.793 3.47548 897.347 0.585022 914.877L-5.30628 913.906ZM21.3322 954.204C3.437 951.254 -8.67797 934.355 -5.72734 916.459L0.163962 917.431C-2.25019 932.072 7.66206 945.899 22.3036 948.313L21.3322 954.204ZM126.97 938.339C124.02 956.234 107.121 968.349 89.2256 965.399L90.197 959.507C104.839 961.922 118.665 952.009 121.079 937.368L126.97 938.339ZM100.884 898.81C118.414 901.701 130.282 918.255 127.391 935.785L121.5 934.814C123.854 920.537 114.189 907.056 99.9124 904.702L100.884 898.81ZM79.2961 868.698C76.9421 882.975 86.6072 896.456 100.884 898.81L99.9124 904.702C82.3822 901.811 70.5143 885.257 73.4048 867.727L79.2961 868.698ZM-16.2072 823.097C-30.8488 820.682 -44.6752 830.595 -47.0893 845.236L-52.9806 844.265C-50.03 826.37 -33.1311 814.255 -15.2359 817.205L-16.2072 823.097ZM52.6576 828.4C70.5528 831.35 82.6677 848.249 79.7171 866.145L73.8258 865.173C76.24 850.532 66.3277 836.705 51.6862 834.291L52.6576 828.4Z" fill="#417336" mask="url(#path-9-inside-4_1237_1036)"/>
</g>
<g filter="url(#filter5_f_1237_1036)">
<mask id="path-11-inside-5_1237_1036" fill="white">
<path fill-rule="evenodd" clip-rule="evenodd" d="M459.448 671.827C475.763 674.212 487.055 689.371 484.671 705.685L474.718 773.772C472.333 790.087 457.175 801.379 440.86 798.994L438.299 798.62C422.35 796.289 407.531 807.328 405.2 823.276V823.276C402.869 839.225 388.05 850.264 372.101 847.933L369.54 847.558C353.226 845.174 341.933 830.015 344.318 813.7L354.271 745.613C356.655 729.299 371.814 718.006 388.129 720.391L390.69 720.766C406.639 723.097 421.457 712.058 423.789 696.109V696.109C426.12 680.16 440.939 669.121 456.887 671.453L459.448 671.827Z"/>
</mask>
<path d="M354.271 745.613L357.815 746.132L354.271 745.613ZM471.173 773.254L481.126 705.167L488.216 706.204L478.263 774.29L471.173 773.254ZM438.817 795.075L441.378 795.449L440.342 802.539L437.781 802.165L438.817 795.075ZM370.059 844.014L372.62 844.388L371.583 851.478L369.022 851.103L370.059 844.014ZM357.815 746.132L347.863 814.218L340.773 813.182L350.726 745.095L357.815 746.132ZM390.172 724.31L387.611 723.936L388.647 716.846L391.208 717.221L390.172 724.31ZM458.93 675.372L456.369 674.997L457.405 667.908L459.967 668.282L458.93 675.372ZM420.244 695.591C422.861 677.685 439.499 665.29 457.405 667.908L456.369 674.997C442.378 672.952 429.379 682.636 427.333 696.627L420.244 695.591ZM391.208 717.221C405.199 719.266 418.199 709.582 420.244 695.591L427.333 696.627C424.716 714.534 408.078 726.928 390.172 724.31L391.208 717.221ZM350.726 745.095C353.397 726.823 370.375 714.175 388.647 716.846L387.611 723.936C373.254 721.837 359.914 731.775 357.815 746.132L350.726 745.095ZM369.022 851.103C350.75 848.432 338.102 831.454 340.773 813.182L347.863 814.218C345.764 828.575 355.702 841.915 370.059 844.014L369.022 851.103ZM408.745 823.794C406.128 841.701 389.49 854.095 371.583 851.478L372.62 844.388C386.611 846.433 399.61 836.749 401.655 822.758L408.745 823.794ZM437.781 802.165C423.79 800.12 410.79 809.804 408.745 823.794L401.655 822.758C404.273 804.852 420.911 792.458 438.817 795.075L437.781 802.165ZM481.126 705.167C483.224 690.81 473.287 677.47 458.93 675.372L459.967 668.282C478.239 670.953 490.886 687.931 488.216 706.204L481.126 705.167ZM478.263 774.29C475.592 792.563 458.614 805.21 440.342 802.539L441.378 795.449C455.735 797.548 469.075 787.611 471.173 773.254L478.263 774.29Z" fill="#417336" mask="url(#path-11-inside-5_1237_1036)"/>
</g>
<g filter="url(#filter6_f_1237_1036)">
<mask id="path-13-inside-6_1237_1036" fill="white">
<path fill-rule="evenodd" clip-rule="evenodd" d="M460.227 666.509C476.542 668.893 487.835 684.052 485.45 700.367L475.497 768.454C473.112 784.768 457.954 796.061 441.639 793.676L439.078 793.302C423.129 790.97 408.311 802.009 405.979 817.958V817.958C403.648 833.907 388.829 844.946 372.881 842.614L370.319 842.24C354.005 839.855 342.712 824.696 345.097 808.382L355.05 740.295C357.434 723.98 372.593 712.688 388.908 715.073L391.469 715.447C407.418 717.778 422.236 706.739 424.568 690.791V690.791C426.899 674.842 441.718 663.803 457.666 666.134L460.227 666.509Z"/>
</mask>
<path d="M355.05 740.295L358.595 740.813L355.05 740.295ZM471.952 767.935L481.905 699.849L488.995 700.885L479.042 768.972L471.952 767.935ZM439.596 789.757L442.157 790.131L441.121 797.221L438.56 796.846L439.596 789.757ZM370.838 838.695L373.399 839.07L372.362 846.159L369.801 845.785L370.838 838.695ZM358.595 740.813L348.642 808.9L341.552 807.864L351.505 739.777L358.595 740.813ZM390.951 718.992L388.39 718.618L389.426 711.528L391.987 711.902L390.951 718.992ZM459.709 670.053L457.148 669.679L458.185 662.589L460.746 662.964L459.709 670.053ZM421.023 690.273C423.64 672.366 440.278 659.972 458.185 662.589L457.148 669.679C443.157 667.634 430.158 677.318 428.113 691.309L421.023 690.273ZM391.987 711.902C405.978 713.947 418.978 704.263 421.023 690.273L428.113 691.309C425.495 709.215 408.857 721.609 390.951 718.992L391.987 711.902ZM351.505 739.777C354.176 721.504 371.154 708.857 389.426 711.528L388.39 718.618C374.033 716.519 360.693 726.456 358.595 740.813L351.505 739.777ZM369.801 845.785C351.529 843.114 338.881 826.136 341.552 807.864L348.642 808.9C346.543 823.257 356.481 836.597 370.838 838.695L369.801 845.785ZM409.524 818.476C406.907 836.382 390.269 848.777 372.362 846.159L373.399 839.07C387.39 841.115 400.389 831.431 402.434 817.44L409.524 818.476ZM438.56 796.846C424.569 794.801 411.569 804.485 409.524 818.476L402.434 817.44C405.052 799.533 421.69 787.139 439.596 789.757L438.56 796.846ZM481.905 699.849C484.004 685.492 474.066 672.152 459.709 670.053L460.746 662.964C479.018 665.635 491.666 682.613 488.995 700.885L481.905 699.849ZM479.042 768.972C476.371 787.244 459.393 799.892 441.121 797.221L442.157 790.131C456.514 792.23 469.854 782.292 471.952 767.935L479.042 768.972Z" fill="#417336" mask="url(#path-13-inside-6_1237_1036)"/>
</g>
<g filter="url(#filter7_f_1237_1036)">
<mask id="path-15-inside-7_1237_1036" fill="white">
<path fill-rule="evenodd" clip-rule="evenodd" d="M459.966 668.284C476.281 670.669 487.573 685.828 485.189 702.142L475.236 770.229C472.851 786.544 457.692 797.836 441.378 795.451L438.817 795.077C422.868 792.746 408.049 803.785 405.718 819.733V819.733C403.387 835.682 388.568 846.721 372.619 844.39L370.058 844.015C353.744 841.631 342.451 826.472 344.836 810.157L354.788 742.07C357.173 725.756 372.332 714.463 388.647 716.848L391.208 717.223C407.156 719.554 421.975 708.515 424.306 692.566V692.566C426.638 676.617 441.457 665.578 457.405 667.91L459.966 668.284Z"/>
</mask>
<path d="M354.788 742.07L357.742 742.502L354.788 742.07ZM472.282 769.797L482.235 701.711L488.143 702.574L478.19 770.661L472.282 769.797ZM439.249 792.123L441.81 792.497L440.946 798.405L438.385 798.031L439.249 792.123ZM370.49 841.061L373.051 841.436L372.188 847.344L369.626 846.969L370.49 841.061ZM357.742 742.502L347.79 810.589L341.882 809.725L351.834 741.639L357.742 742.502ZM390.776 720.177L388.215 719.802L389.079 713.894L391.64 714.269L390.776 720.177ZM459.534 671.238L456.973 670.864L457.837 664.956L460.398 665.33L459.534 671.238ZM421.352 692.134C423.922 674.554 440.257 662.386 457.837 664.956L456.973 670.864C442.656 668.771 429.353 678.681 427.26 692.998L421.352 692.134ZM391.64 714.269C405.957 716.361 419.26 706.451 421.352 692.134L427.26 692.998C424.691 710.578 408.356 722.746 390.776 720.177L391.64 714.269ZM351.834 741.639C354.458 723.693 371.132 711.271 389.079 713.894L388.215 719.802C373.532 717.656 359.889 727.819 357.742 742.502L351.834 741.639ZM369.626 846.969C351.68 844.346 339.259 827.671 341.882 809.725L347.79 810.589C345.644 825.272 355.807 838.915 370.49 841.061L369.626 846.969ZM408.672 820.165C406.102 837.745 389.768 849.914 372.188 847.344L373.051 841.436C387.368 843.529 400.671 833.619 402.764 819.302L408.672 820.165ZM438.385 798.031C424.068 795.938 410.765 805.848 408.672 820.165L402.764 819.302C405.334 801.721 421.668 789.553 439.249 792.123L438.385 798.031ZM482.235 701.711C484.381 687.027 474.218 673.384 459.534 671.238L460.398 665.33C478.344 667.953 490.766 684.628 488.143 702.574L482.235 701.711ZM478.19 770.661C475.567 788.607 458.892 801.029 440.946 798.405L441.81 792.497C456.493 794.644 470.136 784.48 472.282 769.797L478.19 770.661Z" fill="#417336" mask="url(#path-15-inside-7_1237_1036)"/>
</g>
<g filter="url(#filter8_f_1237_1036)">
<mask id="path-17-inside-8_1237_1036" fill="white">
<path fill-rule="evenodd" clip-rule="evenodd" d="M459.966 668.284C476.281 670.669 487.573 685.828 485.189 702.142L475.236 770.229C472.851 786.544 457.692 797.836 441.378 795.451L438.817 795.077C422.868 792.746 408.049 803.785 405.718 819.733V819.733C403.387 835.682 388.568 846.721 372.619 844.39L370.058 844.015C353.744 841.631 342.451 826.472 344.836 810.157L354.788 742.07C357.173 725.756 372.332 714.463 388.647 716.848L391.208 717.223C407.156 719.554 421.975 708.515 424.306 692.566V692.566C426.638 676.617 441.457 665.578 457.405 667.91L459.966 668.284Z"/>
</mask>
<path d="M354.788 742.07L357.742 742.502L354.788 742.07ZM472.282 769.797L482.235 701.711L488.143 702.574L478.19 770.661L472.282 769.797ZM439.249 792.123L441.81 792.497L440.946 798.405L438.385 798.031L439.249 792.123ZM370.49 841.061L373.051 841.436L372.188 847.344L369.626 846.969L370.49 841.061ZM357.742 742.502L347.79 810.589L341.882 809.725L351.834 741.639L357.742 742.502ZM390.776 720.177L388.215 719.802L389.079 713.894L391.64 714.269L390.776 720.177ZM459.534 671.238L456.973 670.864L457.837 664.956L460.398 665.33L459.534 671.238ZM421.352 692.134C423.922 674.554 440.257 662.386 457.837 664.956L456.973 670.864C442.656 668.771 429.353 678.681 427.26 692.998L421.352 692.134ZM391.64 714.269C405.957 716.361 419.26 706.451 421.352 692.134L427.26 692.998C424.691 710.578 408.356 722.746 390.776 720.177L391.64 714.269ZM351.834 741.639C354.458 723.693 371.132 711.271 389.079 713.894L388.215 719.802C373.532 717.656 359.889 727.819 357.742 742.502L351.834 741.639ZM369.626 846.969C351.68 844.346 339.259 827.671 341.882 809.725L347.79 810.589C345.644 825.272 355.807 838.915 370.49 841.061L369.626 846.969ZM408.672 820.165C406.102 837.745 389.768 849.914 372.188 847.344L373.051 841.436C387.368 843.529 400.671 833.619 402.764 819.302L408.672 820.165ZM438.385 798.031C424.068 795.938 410.765 805.848 408.672 820.165L402.764 819.302C405.334 801.721 421.668 789.553 439.249 792.123L438.385 798.031ZM482.235 701.711C484.381 687.027 474.218 673.384 459.534 671.238L460.398 665.33C478.344 667.953 490.766 684.628 488.143 702.574L482.235 701.711ZM478.19 770.661C475.567 788.607 458.892 801.029 440.946 798.405L441.81 792.497C456.493 794.644 470.136 784.48 472.282 769.797L478.19 770.661Z" fill="#417336" mask="url(#path-17-inside-8_1237_1036)"/>
</g>
<g filter="url(#filter9_f_1237_1036)">
<mask id="path-19-inside-9_1237_1036" fill="white">
<path fill-rule="evenodd" clip-rule="evenodd" d="M1476.32 676.827C1460 679.212 1448.71 694.371 1451.1 710.685L1461.05 778.772C1463.43 795.087 1478.59 806.379 1494.91 803.994L1497.47 803.62C1513.42 801.289 1528.24 812.328 1530.57 828.276V828.276C1532.9 844.225 1547.72 855.264 1563.67 852.933L1566.23 852.558C1582.54 850.174 1593.83 835.015 1591.45 818.7L1581.5 750.613C1579.11 734.299 1563.95 723.006 1547.64 725.391L1545.08 725.766C1529.13 728.097 1514.31 717.058 1511.98 701.109V701.109C1509.65 685.16 1494.83 674.121 1478.88 676.453L1476.32 676.827Z"/>
</mask>
<path d="M1591.45 818.7L1587.9 819.218L1591.45 818.7ZM1464.59 778.254L1454.64 710.167L1447.55 711.204L1457.5 779.29L1464.59 778.254ZM1496.95 800.075L1494.39 800.449L1495.43 807.539L1497.99 807.165L1496.95 800.075ZM1565.71 849.014L1563.15 849.388L1564.18 856.478L1566.75 856.103L1565.71 849.014ZM1577.95 751.132L1587.9 819.218L1594.99 818.182L1585.04 750.095L1577.95 751.132ZM1545.6 729.31L1548.16 728.936L1547.12 721.846L1544.56 722.221L1545.6 729.31ZM1476.84 680.372L1479.4 679.997L1478.36 672.908L1475.8 673.282L1476.84 680.372ZM1515.52 700.591C1512.91 682.685 1496.27 670.29 1478.36 672.908L1479.4 679.997C1493.39 677.952 1506.39 687.636 1508.43 701.627L1515.52 700.591ZM1544.56 722.221C1530.57 724.266 1517.57 714.582 1515.52 700.591L1508.43 701.627C1511.05 719.534 1527.69 731.928 1545.6 729.31L1544.56 722.221ZM1585.04 750.095C1582.37 731.823 1565.39 719.175 1547.12 721.846L1548.16 728.936C1562.51 726.837 1575.85 736.775 1577.95 751.132L1585.04 750.095ZM1566.75 856.103C1585.02 853.432 1597.67 836.454 1594.99 818.182L1587.9 819.218C1590 833.575 1580.07 846.915 1565.71 849.014L1566.75 856.103ZM1527.02 828.794C1529.64 846.701 1546.28 859.095 1564.18 856.478L1563.15 849.388C1549.16 851.433 1536.16 841.749 1534.11 827.758L1527.02 828.794ZM1497.99 807.165C1511.98 805.12 1524.98 814.804 1527.02 828.794L1534.11 827.758C1531.49 809.852 1514.86 797.458 1496.95 800.075L1497.99 807.165ZM1454.64 710.167C1452.54 695.81 1462.48 682.47 1476.84 680.372L1475.8 673.282C1457.53 675.953 1444.88 692.931 1447.55 711.204L1454.64 710.167ZM1457.5 779.29C1460.18 797.563 1477.15 810.21 1495.43 807.539L1494.39 800.449C1480.03 802.548 1466.69 792.611 1464.59 778.254L1457.5 779.29Z" fill="#417336" mask="url(#path-19-inside-9_1237_1036)"/>
</g>
<g filter="url(#filter10_f_1237_1036)">
<mask id="path-21-inside-10_1237_1036" fill="white">
<path fill-rule="evenodd" clip-rule="evenodd" d="M1475.54 671.509C1459.23 673.893 1447.93 689.052 1450.32 705.367L1460.27 773.454C1462.66 789.768 1477.81 801.061 1494.13 798.676L1496.69 798.302C1512.64 795.97 1527.46 807.009 1529.79 822.958V822.958C1532.12 838.907 1546.94 849.946 1562.89 847.614L1565.45 847.24C1581.76 844.855 1593.06 829.696 1590.67 813.382L1580.72 745.295C1578.33 728.98 1563.17 717.688 1546.86 720.073L1544.3 720.447C1528.35 722.778 1513.53 711.739 1511.2 695.791V695.791C1508.87 679.842 1494.05 668.803 1478.1 671.134L1475.54 671.509Z"/>
</mask>
<path d="M1580.72 745.295L1577.17 745.813L1580.72 745.295ZM1494.13 798.676L1494.65 802.221L1494.13 798.676ZM1463.82 772.935L1453.86 704.849L1446.77 705.885L1456.73 773.972L1463.82 772.935ZM1496.17 794.757L1493.61 795.131L1494.65 802.221L1497.21 801.846L1496.17 794.757ZM1564.93 843.695L1562.37 844.07L1563.41 851.159L1565.97 850.785L1564.93 843.695ZM1577.17 745.813L1587.13 813.9L1594.22 812.864L1584.26 744.777L1577.17 745.813ZM1544.82 723.992L1547.38 723.618L1546.34 716.528L1543.78 716.902L1544.82 723.992ZM1476.06 675.053L1478.62 674.679L1477.58 667.589L1475.02 667.964L1476.06 675.053ZM1514.74 695.273C1512.13 677.366 1495.49 664.972 1477.58 667.589L1478.62 674.679C1492.61 672.634 1505.61 682.318 1507.66 696.309L1514.74 695.273ZM1543.78 716.902C1529.79 718.947 1516.79 709.263 1514.74 695.273L1507.66 696.309C1510.27 714.215 1526.91 726.609 1544.82 723.992L1543.78 716.902ZM1584.26 744.777C1581.59 726.504 1564.61 713.857 1546.34 716.528L1547.38 723.618C1561.73 721.519 1575.07 731.456 1577.17 745.813L1584.26 744.777ZM1565.97 850.785C1584.24 848.114 1596.89 831.136 1594.22 812.864L1587.13 813.9C1589.22 828.257 1579.29 841.597 1564.93 843.695L1565.97 850.785ZM1526.24 823.476C1528.86 841.382 1545.5 853.777 1563.41 851.159L1562.37 844.07C1548.38 846.115 1535.38 836.431 1533.33 822.44L1526.24 823.476ZM1497.21 801.846C1511.2 799.801 1524.2 809.485 1526.24 823.476L1533.33 822.44C1530.72 804.533 1514.08 792.139 1496.17 794.757L1497.21 801.846ZM1453.86 704.849C1451.76 690.492 1461.7 677.152 1476.06 675.053L1475.02 667.964C1456.75 670.635 1444.1 687.613 1446.77 705.885L1453.86 704.849ZM1456.73 773.972C1459.4 792.244 1476.37 804.892 1494.65 802.221L1493.61 795.131C1479.25 797.23 1465.91 787.292 1463.82 772.935L1456.73 773.972Z" fill="#417336" mask="url(#path-21-inside-10_1237_1036)"/>
</g>
<g filter="url(#filter11_f_1237_1036)">
<mask id="path-23-inside-11_1237_1036" fill="white">
<path fill-rule="evenodd" clip-rule="evenodd" d="M1475.8 673.284C1459.49 675.669 1448.19 690.828 1450.58 707.142L1460.53 775.229C1462.92 791.544 1478.08 802.836 1494.39 800.451L1496.95 800.077C1512.9 797.746 1527.72 808.785 1530.05 824.733V824.733C1532.38 840.682 1547.2 851.721 1563.15 849.39L1565.71 849.015C1582.02 846.631 1593.32 831.472 1590.93 815.157L1580.98 747.07C1578.59 730.756 1563.44 719.463 1547.12 721.848L1544.56 722.223C1528.61 724.554 1513.79 713.515 1511.46 697.566V697.566C1509.13 681.617 1494.31 670.578 1478.36 672.91L1475.8 673.284Z"/>
</mask>
<path d="M1494.39 800.451L1494.82 803.405L1494.39 800.451ZM1463.49 774.797L1453.53 706.711L1447.63 707.574L1457.58 775.661L1463.49 774.797ZM1496.52 797.123L1493.96 797.497L1494.82 803.405L1497.38 803.031L1496.52 797.123ZM1565.28 846.061L1562.72 846.436L1563.58 852.344L1566.14 851.969L1565.28 846.061ZM1578.03 747.502L1587.98 815.589L1593.89 814.725L1583.93 746.639L1578.03 747.502ZM1544.99 725.177L1547.55 724.802L1546.69 718.894L1544.13 719.269L1544.99 725.177ZM1476.23 676.238L1478.79 675.864L1477.93 669.956L1475.37 670.33L1476.23 676.238ZM1514.42 697.134C1511.85 679.554 1495.51 667.386 1477.93 669.956L1478.79 675.864C1493.11 673.771 1506.41 683.681 1508.51 697.998L1514.42 697.134ZM1544.13 719.269C1529.81 721.361 1516.51 711.451 1514.42 697.134L1508.51 697.998C1511.08 715.578 1527.41 727.746 1544.99 725.177L1544.13 719.269ZM1583.93 746.639C1581.31 728.693 1564.64 716.271 1546.69 718.894L1547.55 724.802C1562.24 722.656 1575.88 732.819 1578.03 747.502L1583.93 746.639ZM1566.14 851.969C1584.09 849.346 1596.51 832.671 1593.89 814.725L1587.98 815.589C1590.12 830.272 1579.96 843.915 1565.28 846.061L1566.14 851.969ZM1527.1 825.165C1529.67 842.745 1546 854.914 1563.58 852.344L1562.72 846.436C1548.4 848.529 1535.1 838.619 1533 824.302L1527.1 825.165ZM1497.38 803.031C1511.7 800.938 1525 810.848 1527.1 825.165L1533 824.302C1530.43 806.721 1514.1 794.553 1496.52 797.123L1497.38 803.031ZM1453.53 706.711C1451.39 692.027 1461.55 678.384 1476.23 676.238L1475.37 670.33C1457.42 672.953 1445 689.628 1447.63 707.574L1453.53 706.711ZM1457.58 775.661C1460.2 793.607 1476.88 806.029 1494.82 803.405L1493.96 797.497C1479.28 799.644 1465.63 789.48 1463.49 774.797L1457.58 775.661Z" fill="#417336" mask="url(#path-23-inside-11_1237_1036)"/>
</g>
<g filter="url(#filter12_f_1237_1036)">
<mask id="path-25-inside-12_1237_1036" fill="white">
<path fill-rule="evenodd" clip-rule="evenodd" d="M1475.8 673.284C1459.49 675.669 1448.19 690.828 1450.58 707.142L1460.53 775.229C1462.92 791.544 1478.08 802.836 1494.39 800.451L1496.95 800.077C1512.9 797.746 1527.72 808.785 1530.05 824.733V824.733C1532.38 840.682 1547.2 851.721 1563.15 849.39L1565.71 849.015C1582.02 846.631 1593.32 831.472 1590.93 815.157L1580.98 747.07C1578.59 730.756 1563.44 719.463 1547.12 721.848L1544.56 722.223C1528.61 724.554 1513.79 713.515 1511.46 697.566V697.566C1509.13 681.617 1494.31 670.578 1478.36 672.91L1475.8 673.284Z"/>
</mask>
<path d="M1494.39 800.451L1494.82 803.405L1494.39 800.451ZM1463.49 774.797L1453.53 706.711L1447.63 707.574L1457.58 775.661L1463.49 774.797ZM1496.52 797.123L1493.96 797.497L1494.82 803.405L1497.38 803.031L1496.52 797.123ZM1565.28 846.061L1562.72 846.436L1563.58 852.344L1566.14 851.969L1565.28 846.061ZM1578.03 747.502L1587.98 815.589L1593.89 814.725L1583.93 746.639L1578.03 747.502ZM1544.99 725.177L1547.55 724.802L1546.69 718.894L1544.13 719.269L1544.99 725.177ZM1476.23 676.238L1478.79 675.864L1477.93 669.956L1475.37 670.33L1476.23 676.238ZM1514.42 697.134C1511.85 679.554 1495.51 667.386 1477.93 669.956L1478.79 675.864C1493.11 673.771 1506.41 683.681 1508.51 697.998L1514.42 697.134ZM1544.13 719.269C1529.81 721.361 1516.51 711.451 1514.42 697.134L1508.51 697.998C1511.08 715.578 1527.41 727.746 1544.99 725.177L1544.13 719.269ZM1583.93 746.639C1581.31 728.693 1564.64 716.271 1546.69 718.894L1547.55 724.802C1562.24 722.656 1575.88 732.819 1578.03 747.502L1583.93 746.639ZM1566.14 851.969C1584.09 849.346 1596.51 832.671 1593.89 814.725L1587.98 815.589C1590.12 830.272 1579.96 843.915 1565.28 846.061L1566.14 851.969ZM1527.1 825.165C1529.67 842.745 1546 854.914 1563.58 852.344L1562.72 846.436C1548.4 848.529 1535.1 838.619 1533 824.302L1527.1 825.165ZM1497.38 803.031C1511.7 800.938 1525 810.848 1527.1 825.165L1533 824.302C1530.43 806.721 1514.1 794.553 1496.52 797.123L1497.38 803.031ZM1453.53 706.711C1451.39 692.027 1461.55 678.384 1476.23 676.238L1475.37 670.33C1457.42 672.953 1445 689.628 1447.63 707.574L1453.53 706.711ZM1457.58 775.661C1460.2 793.607 1476.88 806.029 1494.82 803.405L1493.96 797.497C1479.28 799.644 1465.63 789.48 1463.49 774.797L1457.58 775.661Z" fill="#417336" mask="url(#path-25-inside-12_1237_1036)"/>
</g>
<g filter="url(#filter13_f_1237_1036)">
<mask id="path-27-inside-13_1237_1036" fill="white">
<path fill-rule="evenodd" clip-rule="evenodd" d="M1982.27 850.333C1979.59 834.064 1964.22 823.051 1947.96 825.733L1880.06 836.927C1863.79 839.61 1852.78 854.973 1855.46 871.241L1855.88 873.795C1858.51 889.698 1847.74 904.716 1831.84 907.338V907.338C1815.93 909.96 1805.17 924.978 1807.79 940.882L1808.21 943.436C1810.89 959.704 1826.25 970.718 1842.52 968.035L1910.42 956.841C1926.69 954.158 1937.7 938.796 1935.02 922.527L1934.6 919.974C1931.97 904.07 1942.74 889.052 1958.64 886.43V886.43C1974.55 883.808 1985.31 868.79 1982.69 852.886L1982.27 850.333Z"/>
</mask>
<path d="M1910.42 956.841L1909.83 953.306L1910.42 956.841ZM1880.65 840.462L1948.54 829.268L1947.37 822.198L1879.48 833.393L1880.65 840.462ZM1859.42 873.212L1859 870.658L1851.93 871.824L1852.35 874.377L1859.42 873.212ZM1811.74 942.853L1811.32 940.299L1804.25 941.465L1804.68 944.018L1811.74 942.853ZM1909.83 953.306L1841.94 964.5L1843.11 971.57L1911 960.375L1909.83 953.306ZM1931.06 920.556L1931.48 923.11L1938.55 921.944L1938.13 919.391L1931.06 920.556ZM1978.73 850.915L1979.16 853.469L1986.23 852.304L1985.8 849.75L1978.73 850.915ZM1959.23 889.965C1977.08 887.021 1989.17 870.159 1986.23 852.304L1979.16 853.469C1981.46 867.42 1972.01 880.595 1958.06 882.895L1959.23 889.965ZM1938.13 919.391C1935.83 905.44 1945.27 892.265 1959.23 889.965L1958.06 882.895C1940.2 885.839 1928.12 902.701 1931.06 920.556L1938.13 919.391ZM1911 960.375C1929.22 957.371 1941.56 940.165 1938.55 921.944L1931.48 923.11C1933.84 937.426 1924.15 950.945 1909.83 953.306L1911 960.375ZM1804.68 944.018C1807.68 962.239 1824.89 974.574 1843.11 971.57L1841.94 964.5C1827.62 966.861 1814.11 957.169 1811.74 942.853L1804.68 944.018ZM1831.25 903.803C1813.4 906.747 1801.31 923.609 1804.25 941.465L1811.32 940.299C1809.02 926.348 1818.47 913.173 1832.42 910.873L1831.25 903.803ZM1852.35 874.377C1854.65 888.329 1845.2 901.503 1831.25 903.803L1832.42 910.873C1850.27 907.929 1862.36 891.067 1859.42 873.212L1852.35 874.377ZM1948.54 829.268C1962.86 826.907 1976.37 836.599 1978.73 850.915L1985.8 849.75C1982.8 831.529 1965.59 819.194 1947.37 822.198L1948.54 829.268ZM1879.48 833.393C1861.26 836.397 1848.92 853.603 1851.93 871.824L1859 870.658C1856.64 856.342 1866.33 842.823 1880.65 840.462L1879.48 833.393Z" fill="#417336" mask="url(#path-27-inside-13_1237_1036)"/>
</g>
<g filter="url(#filter14_f_1237_1036)">
<mask id="path-29-inside-14_1237_1036" fill="white">
<path fill-rule="evenodd" clip-rule="evenodd" d="M1987.57 849.457C1984.89 833.188 1969.53 822.175 1953.26 824.857L1885.37 836.052C1869.1 838.734 1858.08 854.097 1860.77 870.365L1861.19 872.919C1863.81 888.822 1853.04 903.84 1837.14 906.462V906.462C1821.24 909.084 1810.47 924.102 1813.09 940.006L1813.51 942.56C1816.2 958.828 1831.56 969.842 1847.83 967.159L1915.72 955.965C1931.99 953.282 1943 937.92 1940.32 921.651L1939.9 919.098C1937.28 903.194 1948.04 888.176 1963.95 885.554V885.554C1979.85 882.932 1990.62 867.914 1987.99 852.01L1987.57 849.457Z"/>
</mask>
<path d="M1885.95 839.586L1953.84 828.392L1952.68 821.322L1884.78 832.517L1885.95 839.586ZM1864.72 872.336L1864.3 869.782L1857.23 870.948L1857.65 873.501L1864.72 872.336ZM1817.05 941.977L1816.63 939.423L1809.56 940.589L1809.98 943.142L1817.05 941.977ZM1915.14 952.43L1847.24 963.624L1848.41 970.694L1916.3 959.499L1915.14 952.43ZM1936.36 919.68L1936.78 922.234L1943.85 921.068L1943.43 918.515L1936.36 919.68ZM1984.04 850.039L1984.46 852.593L1991.53 851.428L1991.11 848.874L1984.04 850.039ZM1964.53 889.089C1982.38 886.145 1994.47 869.283 1991.53 851.428L1984.46 852.593C1986.76 866.544 1977.31 879.719 1963.36 882.019L1964.53 889.089ZM1943.43 918.515C1941.13 904.564 1950.58 891.389 1964.53 889.089L1963.36 882.019C1945.51 884.963 1933.42 901.825 1936.36 919.68L1943.43 918.515ZM1916.3 959.499C1934.52 956.495 1946.86 939.289 1943.85 921.068L1936.78 922.234C1939.15 936.55 1929.45 950.069 1915.14 952.43L1916.3 959.499ZM1809.98 943.142C1812.98 961.363 1830.19 973.698 1848.41 970.694L1847.24 963.624C1832.93 965.985 1819.41 956.293 1817.05 941.977L1809.98 943.142ZM1836.56 902.927C1818.7 905.871 1806.61 922.733 1809.56 940.589L1816.63 939.423C1814.33 925.472 1823.77 912.297 1837.72 909.997L1836.56 902.927ZM1857.65 873.501C1859.95 887.453 1850.51 900.627 1836.56 902.927L1837.72 909.997C1855.58 907.053 1867.67 890.191 1864.72 872.336L1857.65 873.501ZM1953.84 828.392C1968.16 826.031 1981.68 835.723 1984.04 850.039L1991.11 848.874C1988.1 830.653 1970.9 818.318 1952.68 821.322L1953.84 828.392ZM1884.78 832.517C1866.56 835.521 1854.23 852.727 1857.23 870.948L1864.3 869.782C1861.94 855.466 1871.63 841.947 1885.95 839.586L1884.78 832.517Z" fill="#417336" mask="url(#path-29-inside-14_1237_1036)"/>
</g>
<g filter="url(#filter15_f_1237_1036)">
<mask id="path-31-inside-15_1237_1036" fill="white">
<path fill-rule="evenodd" clip-rule="evenodd" d="M1985.8 849.751C1983.12 833.482 1967.76 822.469 1951.49 825.151L1883.6 836.345C1867.33 839.028 1856.31 854.39 1859 870.659L1859.42 873.213C1862.04 889.116 1851.27 904.134 1835.37 906.756V906.756C1819.47 909.378 1808.7 924.396 1811.32 940.3L1811.74 942.854C1814.43 959.122 1829.79 970.136 1846.06 967.453L1913.95 956.259C1930.22 953.576 1941.23 938.214 1938.55 921.945L1938.13 919.392C1935.51 903.488 1946.27 888.47 1962.18 885.848V885.848C1978.08 883.226 1988.85 868.208 1986.22 852.304L1985.8 849.751Z"/>
</mask>
<path d="M1884.08 839.291L1951.98 828.097L1951 822.205L1883.11 833.4L1884.08 839.291ZM1862.36 872.727L1861.94 870.173L1856.05 871.145L1856.47 873.698L1862.36 872.727ZM1814.69 942.368L1814.27 939.814L1808.38 940.785L1808.8 943.339L1814.69 942.368ZM1913.46 953.313L1845.57 964.507L1846.54 970.399L1914.44 959.204L1913.46 953.313ZM1935.18 919.877L1935.6 922.431L1941.5 921.459L1941.07 918.906L1935.18 919.877ZM1982.86 850.236L1983.28 852.79L1989.17 851.819L1988.75 849.265L1982.86 850.236ZM1962.66 888.794C1980.19 885.903 1992.06 869.349 1989.17 851.819L1983.28 852.79C1985.63 867.067 1975.97 880.548 1961.69 882.902L1962.66 888.794ZM1941.07 918.906C1938.72 904.629 1948.39 891.148 1962.66 888.794L1961.69 882.902C1944.16 885.793 1932.29 902.347 1935.18 919.877L1941.07 918.906ZM1914.44 959.204C1932.33 956.254 1944.45 939.355 1941.5 921.459L1935.6 922.431C1938.02 937.072 1928.11 950.899 1913.46 953.313L1914.44 959.204ZM1808.8 943.339C1811.75 961.234 1828.65 973.349 1846.54 970.399L1845.57 964.507C1830.93 966.922 1817.1 957.009 1814.69 942.368L1808.8 943.339ZM1834.88 903.81C1817.35 906.701 1805.49 923.255 1808.38 940.785L1814.27 939.814C1811.91 925.537 1821.58 912.056 1835.86 909.702L1834.88 903.81ZM1856.47 873.698C1858.83 887.975 1849.16 901.456 1834.88 903.81L1835.86 909.702C1853.39 906.811 1865.25 890.257 1862.36 872.727L1856.47 873.698ZM1951.98 828.097C1966.62 825.682 1980.44 835.595 1982.86 850.236L1988.75 849.265C1985.8 831.37 1968.9 819.255 1951 822.205L1951.98 828.097ZM1883.11 833.4C1865.22 836.35 1853.1 853.249 1856.05 871.145L1861.94 870.173C1859.53 855.532 1869.44 841.705 1884.08 839.291L1883.11 833.4Z" fill="#417336" mask="url(#path-31-inside-15_1237_1036)"/>
</g>
<g filter="url(#filter16_f_1237_1036)">
<mask id="path-33-inside-16_1237_1036" fill="white">
<path fill-rule="evenodd" clip-rule="evenodd" d="M1985.8 849.751C1983.12 833.482 1967.76 822.469 1951.49 825.151L1883.6 836.345C1867.33 839.028 1856.31 854.39 1859 870.659L1859.42 873.213C1862.04 889.116 1851.27 904.134 1835.37 906.756V906.756C1819.47 909.378 1808.7 924.396 1811.32 940.3L1811.74 942.854C1814.43 959.122 1829.79 970.136 1846.06 967.453L1913.95 956.259C1930.22 953.576 1941.23 938.214 1938.55 921.945L1938.13 919.392C1935.51 903.488 1946.27 888.47 1962.18 885.848V885.848C1978.08 883.226 1988.85 868.208 1986.22 852.304L1985.8 849.751Z"/>
</mask>
<path d="M1884.08 839.291L1951.98 828.097L1951 822.205L1883.11 833.4L1884.08 839.291ZM1862.36 872.727L1861.94 870.173L1856.05 871.145L1856.47 873.698L1862.36 872.727ZM1814.69 942.368L1814.27 939.814L1808.38 940.785L1808.8 943.339L1814.69 942.368ZM1913.46 953.313L1845.57 964.507L1846.54 970.399L1914.44 959.204L1913.46 953.313ZM1935.18 919.877L1935.6 922.431L1941.5 921.459L1941.07 918.906L1935.18 919.877ZM1982.86 850.236L1983.28 852.79L1989.17 851.819L1988.75 849.265L1982.86 850.236ZM1962.66 888.794C1980.19 885.903 1992.06 869.349 1989.17 851.819L1983.28 852.79C1985.63 867.067 1975.97 880.548 1961.69 882.902L1962.66 888.794ZM1941.07 918.906C1938.72 904.629 1948.39 891.148 1962.66 888.794L1961.69 882.902C1944.16 885.793 1932.29 902.347 1935.18 919.877L1941.07 918.906ZM1914.44 959.204C1932.33 956.254 1944.45 939.355 1941.5 921.459L1935.6 922.431C1938.02 937.072 1928.11 950.899 1913.46 953.313L1914.44 959.204ZM1808.8 943.339C1811.75 961.234 1828.65 973.349 1846.54 970.399L1845.57 964.507C1830.93 966.922 1817.1 957.009 1814.69 942.368L1808.8 943.339ZM1834.88 903.81C1817.35 906.701 1805.49 923.255 1808.38 940.785L1814.27 939.814C1811.91 925.537 1821.58 912.056 1835.86 909.702L1834.88 903.81ZM1856.47 873.698C1858.83 887.975 1849.16 901.456 1834.88 903.81L1835.86 909.702C1853.39 906.811 1865.25 890.257 1862.36 872.727L1856.47 873.698ZM1951.98 828.097C1966.62 825.682 1980.44 835.595 1982.86 850.236L1988.75 849.265C1985.8 831.37 1968.9 819.255 1951 822.205L1951.98 828.097ZM1883.11 833.4C1865.22 836.35 1853.1 853.249 1856.05 871.145L1861.94 870.173C1859.53 855.532 1869.44 841.705 1884.08 839.291L1883.11 833.4Z" fill="#417336" mask="url(#path-33-inside-16_1237_1036)"/>
</g>
<g filter="url(#filter17_f_1237_1036)">
<mask id="path-35-inside-17_1237_1036" fill="white">
<path fill-rule="evenodd" clip-rule="evenodd" d="M1837.87 418.869C1847.64 405.593 1844.81 386.905 1831.53 377.127L1776.13 336.32C1762.85 326.542 1744.16 329.378 1734.39 342.654L1732.85 344.738C1723.29 357.716 1705.02 360.487 1692.05 350.929V350.929C1679.07 341.37 1660.8 344.142 1651.24 357.12L1649.7 359.204C1639.93 372.48 1642.76 391.169 1656.04 400.947L1711.44 441.753C1724.72 451.531 1743.41 448.696 1753.19 435.42L1754.72 433.336C1764.28 420.358 1782.55 417.586 1795.53 427.145V427.145C1808.5 436.703 1826.77 433.931 1836.33 420.953L1837.87 418.869Z"/>
</mask>
<path d="M1656.04 400.947L1658.16 398.062L1656.04 400.947ZM1774 339.205L1829.41 380.011L1833.66 374.242L1778.25 333.436L1774 339.205ZM1735.74 346.862L1737.27 344.778L1731.5 340.529L1729.97 342.613L1735.74 346.862ZM1652.59 361.329L1654.12 359.245L1648.36 354.996L1646.82 357.08L1652.59 361.329ZM1713.57 438.869L1658.16 398.062L1653.91 403.831L1709.32 444.638L1713.57 438.869ZM1751.84 431.212L1750.3 433.295L1756.07 437.545L1757.6 435.461L1751.84 431.212ZM1834.98 416.745L1833.45 418.829L1839.22 423.078L1840.75 420.994L1834.98 416.745ZM1793.4 430.029C1807.97 440.761 1828.48 437.649 1839.22 423.078L1833.45 418.829C1825.06 430.214 1809.04 432.645 1797.65 424.26L1793.4 430.029ZM1757.6 435.461C1765.99 424.076 1782.02 421.644 1793.4 430.029L1797.65 424.26C1783.08 413.528 1762.57 416.64 1751.84 431.212L1757.6 435.461ZM1709.32 444.638C1724.19 455.589 1745.12 452.413 1756.07 437.545L1750.3 433.295C1741.7 444.978 1725.25 447.474 1713.57 438.869L1709.32 444.638ZM1646.82 357.08C1635.87 371.949 1639.04 392.88 1653.91 403.831L1658.16 398.062C1646.48 389.458 1643.98 373.012 1652.59 361.329L1646.82 357.08ZM1694.17 348.044C1679.6 337.312 1659.09 340.425 1648.36 354.996L1654.12 359.245C1662.51 347.86 1678.54 345.428 1689.92 353.813L1694.17 348.044ZM1729.97 342.613C1721.58 353.998 1705.56 356.43 1694.17 348.044L1689.92 353.813C1704.49 364.545 1725 361.433 1735.74 346.862L1729.97 342.613ZM1829.41 380.011C1841.09 388.616 1843.59 405.062 1834.98 416.745L1840.75 420.994C1851.7 406.125 1848.53 385.193 1833.66 374.242L1829.41 380.011ZM1778.25 333.436C1763.38 322.484 1742.45 325.66 1731.5 340.529L1737.27 344.778C1745.88 333.095 1762.32 330.6 1774 339.205L1778.25 333.436Z" fill="#417336" mask="url(#path-35-inside-17_1237_1036)"/>
</g>
<g filter="url(#filter18_f_1237_1036)">
<mask id="path-37-inside-18_1237_1036" fill="white">
<path fill-rule="evenodd" clip-rule="evenodd" d="M1842.2 422.056C1851.97 408.78 1849.14 390.091 1835.86 380.313L1780.46 339.507C1767.18 329.729 1748.49 332.564 1738.72 345.84L1737.18 347.924C1727.62 360.902 1709.35 363.674 1696.37 354.115V354.115C1683.4 344.557 1665.13 347.329 1655.57 360.307L1654.03 362.391C1644.26 375.667 1647.09 394.355 1660.37 404.133L1715.77 444.94C1729.05 454.718 1747.74 451.882 1757.51 438.607L1759.05 436.523C1768.61 423.545 1786.88 420.773 1799.85 430.331V430.331C1812.83 439.89 1831.1 437.118 1840.66 424.14L1842.2 422.056Z"/>
</mask>
<path d="M1715.77 444.94L1713.65 447.825L1715.77 444.94ZM1778.33 342.391L1833.74 383.198L1837.99 377.429L1782.58 336.622L1778.33 342.391ZM1740.07 350.049L1741.6 347.965L1735.83 343.716L1734.3 345.8L1740.07 350.049ZM1656.92 364.515L1658.45 362.431L1652.68 358.182L1651.15 360.266L1656.92 364.515ZM1717.9 442.055L1662.49 401.249L1658.24 407.018L1713.65 447.825L1717.9 442.055ZM1756.16 434.398L1754.63 436.482L1760.4 440.731L1761.93 438.647L1756.16 434.398ZM1839.31 419.931L1837.78 422.015L1843.55 426.264L1845.08 424.18L1839.31 419.931ZM1797.73 433.216C1812.3 443.948 1832.81 440.835 1843.55 426.264L1837.78 422.015C1829.39 433.4 1813.36 435.832 1801.98 427.447L1797.73 433.216ZM1761.93 438.647C1770.32 427.262 1786.35 424.831 1797.73 433.216L1801.98 427.447C1787.41 416.715 1766.9 419.827 1756.16 434.398L1761.93 438.647ZM1713.65 447.825C1728.52 458.776 1749.45 455.6 1760.4 440.731L1754.63 436.482C1746.02 448.165 1729.58 450.66 1717.9 442.055L1713.65 447.825ZM1651.15 360.266C1640.2 375.135 1643.37 396.067 1658.24 407.018L1662.49 401.249C1650.81 392.644 1648.31 376.198 1656.92 364.515L1651.15 360.266ZM1698.5 351.231C1683.93 340.499 1663.42 343.611 1652.68 358.182L1658.45 362.431C1666.84 351.046 1682.87 348.615 1694.25 357L1698.5 351.231ZM1734.3 345.8C1725.91 357.184 1709.88 359.616 1698.5 351.231L1694.25 357C1708.82 367.732 1729.33 364.62 1740.07 350.049L1734.3 345.8ZM1833.74 383.198C1845.42 391.802 1847.92 408.249 1839.31 419.931L1845.08 424.18C1856.03 409.311 1852.86 388.38 1837.99 377.429L1833.74 383.198ZM1782.58 336.622C1767.71 325.671 1746.78 328.847 1735.83 343.716L1741.6 347.965C1750.2 336.282 1766.65 333.787 1778.33 342.391L1782.58 336.622Z" fill="#417336" mask="url(#path-37-inside-18_1237_1036)"/>
</g>
<g filter="url(#filter19_f_1237_1036)">
<mask id="path-39-inside-19_1237_1036" fill="white">
<path fill-rule="evenodd" clip-rule="evenodd" d="M1840.75 420.993C1850.53 407.717 1847.69 389.029 1834.42 379.251L1779.01 338.444C1765.74 328.666 1747.05 331.502 1737.27 344.778L1735.74 346.862C1726.18 359.84 1707.91 362.612 1694.93 353.053V353.053C1681.95 343.494 1663.68 346.266 1654.12 359.244L1652.59 361.328C1642.81 374.604 1645.65 393.293 1658.92 403.071L1714.33 443.878C1727.6 453.655 1746.29 450.82 1756.07 437.544L1757.6 435.46C1767.16 422.482 1785.43 419.71 1798.41 429.269V429.269C1811.39 438.827 1829.66 436.055 1839.22 423.077L1840.75 420.993Z"/>
</mask>
<path d="M1714.33 443.878L1712.56 446.281L1714.33 443.878ZM1777.24 340.848L1832.65 381.655L1836.19 376.847L1780.78 336.04L1777.24 340.848ZM1738.14 348.632L1739.67 346.548L1734.87 343.007L1733.33 345.091L1738.14 348.632ZM1654.99 363.099L1656.53 361.015L1651.72 357.474L1650.18 359.558L1654.99 363.099ZM1716.1 441.474L1660.69 400.667L1657.15 405.475L1712.56 446.281L1716.1 441.474ZM1755.2 433.69L1753.66 435.774L1758.47 439.314L1760.01 437.231L1755.2 433.69ZM1838.35 419.223L1836.81 421.307L1841.62 424.848L1843.15 422.764L1838.35 419.223ZM1796.64 431.673C1810.94 442.209 1831.08 439.153 1841.62 424.848L1836.81 421.307C1828.23 432.957 1811.83 435.446 1800.18 426.865L1796.64 431.673ZM1760.01 437.231C1768.59 425.58 1784.99 423.092 1796.64 431.673L1800.18 426.865C1785.87 416.329 1765.74 419.384 1755.2 433.69L1760.01 437.231ZM1712.56 446.281C1727.16 457.037 1747.72 453.918 1758.47 439.314L1753.66 435.774C1744.86 447.722 1728.04 450.274 1716.1 441.474L1712.56 446.281ZM1650.18 359.558C1639.43 374.161 1642.55 394.719 1657.15 405.475L1660.69 400.667C1648.74 391.867 1646.19 375.047 1654.99 363.099L1650.18 359.558ZM1696.7 350.649C1682.39 340.113 1662.26 343.168 1651.72 357.474L1656.53 361.015C1665.11 349.364 1681.51 346.876 1693.16 355.457L1696.7 350.649ZM1733.33 345.091C1724.75 356.741 1708.35 359.23 1696.7 350.649L1693.16 355.457C1707.46 365.993 1727.6 362.938 1738.14 348.632L1733.33 345.091ZM1832.65 381.655C1844.59 390.455 1847.15 407.275 1838.35 419.223L1843.15 422.764C1853.91 408.16 1850.79 387.603 1836.19 376.847L1832.65 381.655ZM1780.78 336.04C1766.18 325.285 1745.62 328.404 1734.87 343.007L1739.67 346.548C1748.47 334.6 1765.29 332.048 1777.24 340.848L1780.78 336.04Z" fill="#417336" mask="url(#path-39-inside-19_1237_1036)"/>
</g>
<g filter="url(#filter20_f_1237_1036)">
<mask id="path-41-inside-20_1237_1036" fill="white">
<path fill-rule="evenodd" clip-rule="evenodd" d="M1840.75 420.993C1850.53 407.717 1847.69 389.029 1834.42 379.251L1779.01 338.444C1765.74 328.666 1747.05 331.502 1737.27 344.778L1735.74 346.862C1726.18 359.84 1707.91 362.612 1694.93 353.053V353.053C1681.95 343.494 1663.68 346.266 1654.12 359.244L1652.59 361.328C1642.81 374.604 1645.65 393.293 1658.92 403.071L1714.33 443.878C1727.6 453.655 1746.29 450.82 1756.07 437.544L1757.6 435.46C1767.16 422.482 1785.43 419.71 1798.41 429.269V429.269C1811.39 438.827 1829.66 436.055 1839.22 423.077L1840.75 420.993Z"/>
</mask>
<path d="M1714.33 443.878L1712.56 446.281L1714.33 443.878ZM1777.24 340.848L1832.65 381.655L1836.19 376.847L1780.78 336.04L1777.24 340.848ZM1738.14 348.632L1739.67 346.548L1734.87 343.007L1733.33 345.091L1738.14 348.632ZM1654.99 363.099L1656.53 361.015L1651.72 357.474L1650.18 359.558L1654.99 363.099ZM1716.1 441.474L1660.69 400.667L1657.15 405.475L1712.56 446.281L1716.1 441.474ZM1755.2 433.69L1753.66 435.774L1758.47 439.314L1760.01 437.231L1755.2 433.69ZM1838.35 419.223L1836.81 421.307L1841.62 424.848L1843.15 422.764L1838.35 419.223ZM1796.64 431.673C1810.94 442.209 1831.08 439.153 1841.62 424.848L1836.81 421.307C1828.23 432.957 1811.83 435.446 1800.18 426.865L1796.64 431.673ZM1760.01 437.231C1768.59 425.58 1784.99 423.092 1796.64 431.673L1800.18 426.865C1785.87 416.329 1765.74 419.384 1755.2 433.69L1760.01 437.231ZM1712.56 446.281C1727.16 457.037 1747.72 453.918 1758.47 439.314L1753.66 435.774C1744.86 447.722 1728.04 450.274 1716.1 441.474L1712.56 446.281ZM1650.18 359.558C1639.43 374.161 1642.55 394.719 1657.15 405.475L1660.69 400.667C1648.74 391.867 1646.19 375.047 1654.99 363.099L1650.18 359.558ZM1696.7 350.649C1682.39 340.113 1662.26 343.168 1651.72 357.474L1656.53 361.015C1665.11 349.364 1681.51 346.876 1693.16 355.457L1696.7 350.649ZM1733.33 345.091C1724.75 356.741 1708.35 359.23 1696.7 350.649L1693.16 355.457C1707.46 365.993 1727.6 362.938 1738.14 348.632L1733.33 345.091ZM1832.65 381.655C1844.59 390.455 1847.15 407.275 1838.35 419.223L1843.15 422.764C1853.91 408.16 1850.79 387.603 1836.19 376.847L1832.65 381.655ZM1780.78 336.04C1766.18 325.285 1745.62 328.404 1734.87 343.007L1739.67 346.548C1748.47 334.6 1765.29 332.048 1777.24 340.848L1780.78 336.04Z" fill="#417336" mask="url(#path-41-inside-20_1237_1036)"/>
</g>
<g filter="url(#filter21_f_1237_1036)">
<mask id="path-43-inside-21_1237_1036" fill="white">
<path fill-rule="evenodd" clip-rule="evenodd" d="M128.033 418.869C118.255 405.593 121.091 386.905 134.367 377.127L189.771 336.32C203.047 326.542 221.736 329.378 231.514 342.654L233.049 344.738C242.607 357.716 260.877 360.487 273.855 350.929V350.929C286.833 341.37 305.102 344.142 314.661 357.12L316.196 359.204C325.974 372.48 323.138 391.169 309.862 400.947L254.458 441.753C241.182 451.531 222.493 448.696 212.715 435.42L211.18 433.336C201.622 420.358 183.352 417.586 170.374 427.145V427.145C157.396 436.703 139.127 433.931 129.568 420.953L128.033 418.869Z"/>
</mask>
<path d="M309.862 400.947L307.738 398.062L309.862 400.947ZM233.049 344.738L235.933 342.613L233.049 344.738ZM191.896 339.205L136.491 380.011L132.242 374.242L187.647 333.436L191.896 339.205ZM230.164 346.862L228.629 344.778L234.398 340.529L235.933 342.613L230.164 346.862ZM313.311 361.329L311.776 359.245L317.545 354.996L319.08 357.08L313.311 361.329ZM252.333 438.869L307.738 398.062L311.987 403.831L256.582 444.638L252.333 438.869ZM214.065 431.212L215.6 433.295L209.831 437.545L208.296 435.461L214.065 431.212ZM130.918 416.745L132.453 418.829L126.684 423.078L125.149 420.994L130.918 416.745ZM172.499 430.029C157.928 440.761 137.416 437.649 126.684 423.078L132.453 418.829C140.838 430.214 156.865 432.645 168.25 424.26L172.499 430.029ZM208.296 435.461C199.911 424.076 183.884 421.644 172.499 430.029L168.25 424.26C182.821 413.528 203.333 416.64 214.065 431.212L208.296 435.461ZM256.582 444.638C241.713 455.589 220.782 452.413 209.831 437.545L215.6 433.295C224.204 444.978 240.651 447.474 252.333 438.869L256.582 444.638ZM319.08 357.08C330.032 371.949 326.856 392.88 311.987 403.831L307.738 398.062C319.42 389.458 321.916 373.012 313.311 361.329L319.08 357.08ZM271.73 348.044C286.301 337.312 306.813 340.425 317.545 354.996L311.776 359.245C303.391 347.86 287.364 345.428 275.979 353.813L271.73 348.044ZM235.933 342.613C244.319 353.998 260.345 356.43 271.73 348.044L275.979 353.813C261.408 364.545 240.896 361.433 230.164 346.862L235.933 342.613ZM136.491 380.011C124.809 388.616 122.313 405.062 130.918 416.745L125.149 420.994C114.198 406.125 117.373 385.193 132.242 374.242L136.491 380.011ZM187.647 333.436C202.516 322.484 223.447 325.66 234.398 340.529L228.629 344.778C220.025 333.095 203.579 330.6 191.896 339.205L187.647 333.436Z" fill="#417336" mask="url(#path-43-inside-21_1237_1036)"/>
</g>
<g filter="url(#filter22_f_1237_1036)">
<mask id="path-45-inside-22_1237_1036" fill="white">
<path fill-rule="evenodd" clip-rule="evenodd" d="M123.704 422.056C113.927 408.78 116.762 390.091 130.038 380.313L185.442 339.507C198.718 329.729 217.407 332.564 227.185 345.84L228.72 347.924C238.278 360.902 256.548 363.674 269.526 354.115V354.115C282.504 344.557 300.773 347.329 310.332 360.307L311.867 362.391C321.645 375.667 318.809 394.355 305.533 404.133L250.129 444.94C236.853 454.718 218.164 451.882 208.386 438.607L206.851 436.523C197.293 423.545 179.023 420.773 166.045 430.331V430.331C153.068 439.89 134.798 437.118 125.239 424.14L123.704 422.056Z"/>
</mask>
<path d="M187.567 342.391L132.163 383.198L127.913 377.429L183.318 336.622L187.567 342.391ZM225.835 350.049L224.3 347.965L230.07 343.716L231.604 345.8L225.835 350.049ZM308.982 364.515L307.447 362.431L313.216 358.182L314.751 360.266L308.982 364.515ZM248.004 442.055L303.409 401.249L307.658 407.018L252.253 447.825L248.004 442.055ZM209.736 434.398L211.271 436.482L205.502 440.731L203.967 438.647L209.736 434.398ZM126.589 419.931L128.124 422.015L122.355 426.264L120.82 424.18L126.589 419.931ZM168.17 433.216C153.599 443.948 133.087 440.835 122.355 426.264L128.124 422.015C136.509 433.4 152.536 435.832 163.921 427.447L168.17 433.216ZM203.967 438.647C195.582 427.262 179.555 424.831 168.17 433.216L163.921 427.447C178.492 416.715 199.004 419.827 209.736 434.398L203.967 438.647ZM252.253 447.825C237.384 458.776 216.453 455.6 205.502 440.731L211.271 436.482C219.875 448.165 236.322 450.66 248.004 442.055L252.253 447.825ZM314.751 360.266C325.703 375.135 322.527 396.067 307.658 407.018L303.409 401.249C315.092 392.644 317.587 376.198 308.982 364.515L314.751 360.266ZM267.401 351.231C281.972 340.499 302.485 343.611 313.216 358.182L307.447 362.431C299.062 351.046 283.035 348.615 271.65 357L267.401 351.231ZM231.604 345.8C239.99 357.184 256.016 359.616 267.401 351.231L271.65 357C257.079 367.732 236.567 364.62 225.835 350.049L231.604 345.8ZM132.163 383.198C120.48 391.802 117.984 408.249 126.589 419.931L120.82 424.18C109.869 409.311 113.045 388.38 127.913 377.429L132.163 383.198ZM183.318 336.622C198.187 325.671 219.118 328.847 230.07 343.716L224.3 347.965C215.696 336.282 199.25 333.787 187.567 342.391L183.318 336.622Z" fill="#417336" mask="url(#path-45-inside-22_1237_1036)"/>
</g>
<g filter="url(#filter23_f_1237_1036)">
<mask id="path-47-inside-23_1237_1036" fill="white">
<path fill-rule="evenodd" clip-rule="evenodd" d="M125.15 420.993C115.372 407.717 118.208 389.029 131.484 379.251L186.888 338.444C200.164 328.666 218.853 331.502 228.631 344.778L230.165 346.862C239.724 359.84 257.993 362.612 270.971 353.053V353.053C283.949 343.494 302.219 346.266 311.777 359.244L313.312 361.328C323.09 374.604 320.255 393.293 306.979 403.071L251.574 443.878C238.299 453.655 219.61 450.82 209.832 437.544L208.297 435.46C198.738 422.482 180.469 419.71 167.491 429.269V429.269C154.513 438.827 136.244 436.055 126.685 423.077L125.15 420.993Z"/>
</mask>
<path d="M251.574 443.878L253.345 446.281L251.574 443.878ZM188.658 340.848L133.254 381.655L129.713 376.847L185.118 336.04L188.658 340.848ZM227.762 348.632L226.227 346.548L231.034 343.007L232.569 345.091L227.762 348.632ZM310.909 363.099L309.374 361.015L314.181 357.474L315.716 359.558L310.909 363.099ZM249.804 441.474L305.208 400.667L308.749 405.475L253.345 446.281L249.804 441.474ZM210.701 433.69L212.236 435.774L207.428 439.314L205.893 437.231L210.701 433.69ZM127.554 419.223L129.089 421.307L124.281 424.848L122.746 422.764L127.554 419.223ZM169.261 431.673C154.956 442.209 134.818 439.153 124.281 424.848L129.089 421.307C137.67 432.957 154.07 435.446 165.721 426.865L169.261 431.673ZM205.893 437.231C197.312 425.58 180.912 423.092 169.261 431.673L165.721 426.865C180.026 416.329 200.164 419.384 210.701 433.69L205.893 437.231ZM253.345 446.281C238.741 457.037 218.184 453.918 207.428 439.314L212.236 435.774C221.036 447.722 237.856 450.274 249.804 441.474L253.345 446.281ZM315.716 359.558C326.472 374.161 323.353 394.719 308.749 405.475L305.208 400.667C317.157 391.867 319.709 375.047 310.909 363.099L315.716 359.558ZM269.201 350.649C283.506 340.113 303.645 343.168 314.181 357.474L309.374 361.015C300.793 349.364 284.392 346.876 272.742 355.457L269.201 350.649ZM232.569 345.091C241.15 356.741 257.551 359.23 269.201 350.649L272.742 355.457C258.436 365.993 238.298 362.938 227.762 348.632L232.569 345.091ZM133.254 381.655C121.306 390.455 118.754 407.275 127.554 419.223L122.746 422.764C111.991 408.16 115.11 387.603 129.713 376.847L133.254 381.655ZM185.118 336.04C199.721 325.285 220.279 328.404 231.034 343.007L226.227 346.548C217.427 334.6 200.607 332.048 188.658 340.848L185.118 336.04Z" fill="#417336" mask="url(#path-47-inside-23_1237_1036)"/>
</g>
<g filter="url(#filter24_f_1237_1036)">
<mask id="path-49-inside-24_1237_1036" fill="white">
<path fill-rule="evenodd" clip-rule="evenodd" d="M125.15 420.993C115.372 407.717 118.208 389.029 131.484 379.251L186.888 338.444C200.164 328.666 218.853 331.502 228.631 344.778L230.165 346.862C239.724 359.84 257.993 362.612 270.971 353.053V353.053C283.949 343.494 302.219 346.266 311.777 359.244L313.312 361.328C323.09 374.604 320.255 393.293 306.979 403.071L251.574 443.878C238.299 453.655 219.61 450.82 209.832 437.544L208.297 435.46C198.738 422.482 180.469 419.71 167.491 429.269V429.269C154.513 438.827 136.244 436.055 126.685 423.077L125.15 420.993Z"/>
</mask>
<path d="M251.574 443.878L253.345 446.281L251.574 443.878ZM188.658 340.848L133.254 381.655L129.713 376.847L185.118 336.04L188.658 340.848ZM227.762 348.632L226.227 346.548L231.034 343.007L232.569 345.091L227.762 348.632ZM310.909 363.099L309.374 361.015L314.181 357.474L315.716 359.558L310.909 363.099ZM249.804 441.474L305.208 400.667L308.749 405.475L253.345 446.281L249.804 441.474ZM210.701 433.69L212.236 435.774L207.428 439.314L205.893 437.231L210.701 433.69ZM127.554 419.223L129.089 421.307L124.281 424.848L122.746 422.764L127.554 419.223ZM169.261 431.673C154.956 442.209 134.818 439.153 124.281 424.848L129.089 421.307C137.67 432.957 154.07 435.446 165.721 426.865L169.261 431.673ZM205.893 437.231C197.312 425.58 180.912 423.092 169.261 431.673L165.721 426.865C180.026 416.329 200.164 419.384 210.701 433.69L205.893 437.231ZM253.345 446.281C238.741 457.037 218.184 453.918 207.428 439.314L212.236 435.774C221.036 447.722 237.856 450.274 249.804 441.474L253.345 446.281ZM315.716 359.558C326.472 374.161 323.353 394.719 308.749 405.475L305.208 400.667C317.157 391.867 319.709 375.047 310.909 363.099L315.716 359.558ZM269.201 350.649C283.506 340.113 303.645 343.168 314.181 357.474L309.374 361.015C300.793 349.364 284.392 346.876 272.742 355.457L269.201 350.649ZM232.569 345.091C241.15 356.741 257.551 359.23 269.201 350.649L272.742 355.457C258.436 365.993 238.298 362.938 227.762 348.632L232.569 345.091ZM133.254 381.655C121.306 390.455 118.754 407.275 127.554 419.223L122.746 422.764C111.991 408.16 115.11 387.603 129.713 376.847L133.254 381.655ZM185.118 336.04C199.721 325.285 220.279 328.404 231.034 343.007L226.227 346.548C217.427 334.6 200.607 332.048 188.658 340.848L185.118 336.04Z" fill="#417336" mask="url(#path-49-inside-24_1237_1036)"/>
</g>
</g>
<defs>
<filter id="filter0_f_1237_1036" x="-160.116" y="-77.1161" width="2196.23" height="2196.23" filterUnits="userSpaceOnUse" color-interpolation-filters="sRGB">
<feFlood flood-opacity="0" result="BackgroundImageFix"/>
<feBlend mode="normal" in="SourceGraphic" in2="BackgroundImageFix" result="shape"/>
<feGaussianBlur stdDeviation="300.558" result="effect1_foregroundBlur_1237_1036"/>
</filter>
<filter id="filter1_f_1237_1036" x="-55.496" y="812.151" width="192.049" height="159.467" filterUnits="userSpaceOnUse" color-interpolation-filters="sRGB">
<feFlood flood-opacity="0" result="BackgroundImageFix"/>
<feBlend mode="normal" in="SourceGraphic" in2="BackgroundImageFix" result="shape"/>
<feGaussianBlur stdDeviation="4.09003" result="effect1_foregroundBlur_1237_1036"/>
</filter>
<filter id="filter2_f_1237_1036" x="-60.7993" y="811.275" width="192.049" height="159.467" filterUnits="userSpaceOnUse" color-interpolation-filters="sRGB">
<feFlood flood-opacity="0" result="BackgroundImageFix"/>
<feBlend mode="normal" in="SourceGraphic" in2="BackgroundImageFix" result="shape"/>
<feGaussianBlur stdDeviation="4.09003" result="effect1_foregroundBlur_1237_1036"/>
</filter>
<filter id="filter3_f_1237_1036" x="-53.2377" y="817.361" width="180.465" height="147.883" filterUnits="userSpaceOnUse" color-interpolation-filters="sRGB">
<feFlood flood-opacity="0" result="BackgroundImageFix"/>
<feBlend mode="normal" in="SourceGraphic" in2="BackgroundImageFix" result="shape"/>
<feGaussianBlur stdDeviation="1.19417" result="effect1_foregroundBlur_1237_1036"/>
</filter>
<filter id="filter4_f_1237_1036" x="-53.2377" y="817.361" width="180.465" height="147.883" filterUnits="userSpaceOnUse" color-interpolation-filters="sRGB">
<feFlood flood-opacity="0" result="BackgroundImageFix"/>
<feBlend mode="normal" in="SourceGraphic" in2="BackgroundImageFix" result="shape"/>
<feGaussianBlur stdDeviation="1.19417" result="effect1_foregroundBlur_1237_1036"/>
</filter>
<filter id="filter5_f_1237_1036" x="335.82" y="662.962" width="157.348" height="193.462" filterUnits="userSpaceOnUse" color-interpolation-filters="sRGB">
<feFlood flood-opacity="0" result="BackgroundImageFix"/>
<feBlend mode="normal" in="SourceGraphic" in2="BackgroundImageFix" result="shape"/>
<feGaussianBlur stdDeviation="4.09003" result="effect1_foregroundBlur_1237_1036"/>
</filter>
<filter id="filter6_f_1237_1036" x="336.599" y="657.643" width="157.348" height="193.462" filterUnits="userSpaceOnUse" color-interpolation-filters="sRGB">
<feFlood flood-opacity="0" result="BackgroundImageFix"/>
<feBlend mode="normal" in="SourceGraphic" in2="BackgroundImageFix" result="shape"/>
<feGaussianBlur stdDeviation="4.09003" result="effect1_foregroundBlur_1237_1036"/>
</filter>
<filter id="filter7_f_1237_1036" x="342.13" y="665.21" width="145.765" height="181.878" filterUnits="userSpaceOnUse" color-interpolation-filters="sRGB">
<feFlood flood-opacity="0" result="BackgroundImageFix"/>
<feBlend mode="normal" in="SourceGraphic" in2="BackgroundImageFix" result="shape"/>
<feGaussianBlur stdDeviation="1.19417" result="effect1_foregroundBlur_1237_1036"/>
</filter>
<filter id="filter8_f_1237_1036" x="342.13" y="665.21" width="145.765" height="181.878" filterUnits="userSpaceOnUse" color-interpolation-filters="sRGB">
<feFlood flood-opacity="0" result="BackgroundImageFix"/>
<feBlend mode="normal" in="SourceGraphic" in2="BackgroundImageFix" result="shape"/>
<feGaussianBlur stdDeviation="1.19417" result="effect1_foregroundBlur_1237_1036"/>
</filter>
<filter id="filter9_f_1237_1036" x="1442.6" y="667.962" width="157.348" height="193.462" filterUnits="userSpaceOnUse" color-interpolation-filters="sRGB">
<feFlood flood-opacity="0" result="BackgroundImageFix"/>
<feBlend mode="normal" in="SourceGraphic" in2="BackgroundImageFix" result="shape"/>
<feGaussianBlur stdDeviation="4.09003" result="effect1_foregroundBlur_1237_1036"/>
</filter>
<filter id="filter10_f_1237_1036" x="1441.82" y="662.643" width="157.348" height="193.462" filterUnits="userSpaceOnUse" color-interpolation-filters="sRGB">
<feFlood flood-opacity="0" result="BackgroundImageFix"/>
<feBlend mode="normal" in="SourceGraphic" in2="BackgroundImageFix" result="shape"/>
<feGaussianBlur stdDeviation="4.09003" result="effect1_foregroundBlur_1237_1036"/>
</filter>
<filter id="filter11_f_1237_1036" x="1447.87" y="670.21" width="145.765" height="181.878" filterUnits="userSpaceOnUse" color-interpolation-filters="sRGB">
<feFlood flood-opacity="0" result="BackgroundImageFix"/>
<feBlend mode="normal" in="SourceGraphic" in2="BackgroundImageFix" result="shape"/>
<feGaussianBlur stdDeviation="1.19417" result="effect1_foregroundBlur_1237_1036"/>
</filter>
<filter id="filter12_f_1237_1036" x="1447.87" y="670.21" width="145.765" height="181.878" filterUnits="userSpaceOnUse" color-interpolation-filters="sRGB">
<feFlood flood-opacity="0" result="BackgroundImageFix"/>
<feBlend mode="normal" in="SourceGraphic" in2="BackgroundImageFix" result="shape"/>
<feGaussianBlur stdDeviation="1.19417" result="effect1_foregroundBlur_1237_1036"/>
</filter>
<filter id="filter13_f_1237_1036" x="1799.22" y="817.151" width="192.049" height="159.467" filterUnits="userSpaceOnUse" color-interpolation-filters="sRGB">
<feFlood flood-opacity="0" result="BackgroundImageFix"/>
<feBlend mode="normal" in="SourceGraphic" in2="BackgroundImageFix" result="shape"/>
<feGaussianBlur stdDeviation="4.09003" result="effect1_foregroundBlur_1237_1036"/>
</filter>
<filter id="filter14_f_1237_1036" x="1804.52" y="816.275" width="192.049" height="159.467" filterUnits="userSpaceOnUse" color-interpolation-filters="sRGB">
<feFlood flood-opacity="0" result="BackgroundImageFix"/>
<feBlend mode="normal" in="SourceGraphic" in2="BackgroundImageFix" result="shape"/>
<feGaussianBlur stdDeviation="4.09003" result="effect1_foregroundBlur_1237_1036"/>
</filter>
<filter id="filter15_f_1237_1036" x="1808.54" y="822.361" width="180.465" height="147.883" filterUnits="userSpaceOnUse" color-interpolation-filters="sRGB">
<feFlood flood-opacity="0" result="BackgroundImageFix"/>
<feBlend mode="normal" in="SourceGraphic" in2="BackgroundImageFix" result="shape"/>
<feGaussianBlur stdDeviation="1.19417" result="effect1_foregroundBlur_1237_1036"/>
</filter>
<filter id="filter16_f_1237_1036" x="1808.54" y="822.361" width="180.465" height="147.883" filterUnits="userSpaceOnUse" color-interpolation-filters="sRGB">
<feFlood flood-opacity="0" result="BackgroundImageFix"/>
<feBlend mode="normal" in="SourceGraphic" in2="BackgroundImageFix" result="shape"/>
<feGaussianBlur stdDeviation="1.19417" result="effect1_foregroundBlur_1237_1036"/>
</filter>
<filter id="filter17_f_1237_1036" x="1635.71" y="322.322" width="216.159" height="133.429" filterUnits="userSpaceOnUse" color-interpolation-filters="sRGB">
<feFlood flood-opacity="0" result="BackgroundImageFix"/>
<feBlend mode="normal" in="SourceGraphic" in2="BackgroundImageFix" result="shape"/>
<feGaussianBlur stdDeviation="4.09003" result="effect1_foregroundBlur_1237_1036"/>
</filter>
<filter id="filter18_f_1237_1036" x="1640.04" y="325.508" width="216.159" height="133.429" filterUnits="userSpaceOnUse" color-interpolation-filters="sRGB">
<feFlood flood-opacity="0" result="BackgroundImageFix"/>
<feBlend mode="normal" in="SourceGraphic" in2="BackgroundImageFix" result="shape"/>
<feGaussianBlur stdDeviation="4.09003" result="effect1_foregroundBlur_1237_1036"/>
</filter>
<filter id="filter19_f_1237_1036" x="1644.38" y="330.238" width="204.575" height="121.846" filterUnits="userSpaceOnUse" color-interpolation-filters="sRGB">
<feFlood flood-opacity="0" result="BackgroundImageFix"/>
<feBlend mode="normal" in="SourceGraphic" in2="BackgroundImageFix" result="shape"/>
<feGaussianBlur stdDeviation="1.19417" result="effect1_foregroundBlur_1237_1036"/>
</filter>
<filter id="filter20_f_1237_1036" x="1644.38" y="330.238" width="204.575" height="121.846" filterUnits="userSpaceOnUse" color-interpolation-filters="sRGB">
<feFlood flood-opacity="0" result="BackgroundImageFix"/>
<feBlend mode="normal" in="SourceGraphic" in2="BackgroundImageFix" result="shape"/>
<feGaussianBlur stdDeviation="1.19417" result="effect1_foregroundBlur_1237_1036"/>
</filter>
<filter id="filter21_f_1237_1036" x="114.035" y="322.322" width="216.159" height="133.429" filterUnits="userSpaceOnUse" color-interpolation-filters="sRGB">
<feFlood flood-opacity="0" result="BackgroundImageFix"/>
<feBlend mode="normal" in="SourceGraphic" in2="BackgroundImageFix" result="shape"/>
<feGaussianBlur stdDeviation="4.09003" result="effect1_foregroundBlur_1237_1036"/>
</filter>
<filter id="filter22_f_1237_1036" x="109.706" y="325.508" width="216.159" height="133.429" filterUnits="userSpaceOnUse" color-interpolation-filters="sRGB">
<feFlood flood-opacity="0" result="BackgroundImageFix"/>
<feBlend mode="normal" in="SourceGraphic" in2="BackgroundImageFix" result="shape"/>
<feGaussianBlur stdDeviation="4.09003" result="effect1_foregroundBlur_1237_1036"/>
</filter>
<filter id="filter23_f_1237_1036" x="116.944" y="330.238" width="204.575" height="121.846" filterUnits="userSpaceOnUse" color-interpolation-filters="sRGB">
<feFlood flood-opacity="0" result="BackgroundImageFix"/>
<feBlend mode="normal" in="SourceGraphic" in2="BackgroundImageFix" result="shape"/>
<feGaussianBlur stdDeviation="1.19417" result="effect1_foregroundBlur_1237_1036"/>
</filter>
<filter id="filter24_f_1237_1036" x="116.944" y="330.238" width="204.575" height="121.846" filterUnits="userSpaceOnUse" color-interpolation-filters="sRGB">
<feFlood flood-opacity="0" result="BackgroundImageFix"/>
<feBlend mode="normal" in="SourceGraphic" in2="BackgroundImageFix" result="shape"/>
<feGaussianBlur stdDeviation="1.19417" result="effect1_foregroundBlur_1237_1036"/>
</filter>
<clipPath id="clip0_1237_1036">
<rect width="1920" height="1080" rx="20" fill="white"/>
</clipPath>
</defs>
</svg>
